<?xml version="1.0" encoding="utf-8" standalone="no"?>
<!DOCTYPE svg PUBLIC "-//W3C//DTD SVG 1.1//EN"
  "http://www.w3.org/Graphics/SVG/1.1/DTD/svg11.dtd">
<!-- Created with matplotlib (http://matplotlib.org/) -->
<svg height="668pt" version="1.1" viewBox="0 0 1382 668" width="1382pt" xmlns="http://www.w3.org/2000/svg" xmlns:xlink="http://www.w3.org/1999/xlink">
 <defs>
  <style type="text/css">
*{stroke-linecap:butt;stroke-linejoin:round;}
  </style>
 </defs>
 <g id="figure_1">
  <g id="patch_1">
   <path d="M 0 668.16 
L 1382.4 668.16 
L 1382.4 0 
L 0 0 
z
" style="fill:#ffffff;"/>
  </g>
  <g id="axes_1">
   <g id="patch_2">
    <path d="M 172.8 594.6624 
L 1244.16 594.6624 
L 1244.16 80.1792 
L 172.8 80.1792 
z
" style="fill:#ffffff;"/>
   </g>
   <g id="matplotlib.axis_1">
    <g id="xtick_1">
     <g id="line2d_1">
      <path clip-path="url(#p6fe45bd357)" d="M 219.221105 594.6624 
L 219.221105 80.1792 
" style="fill:none;stroke:#b0b0b0;stroke-linecap:square;stroke-width:0.8;"/>
     </g>
     <g id="line2d_2">
      <defs>
       <path d="M 0 0 
L 0 3.5 
" id="mfc6e23651f" style="stroke:#000000;stroke-width:0.8;"/>
      </defs>
      <g>
       <use style="stroke:#000000;stroke-width:0.8;" x="219.221105" xlink:href="#mfc6e23651f" y="594.6624"/>
      </g>
     </g>
     <g id="text_1">
      <!-- −0.0100 -->
      <defs>
       <path d="M 10.59375 35.5 
L 73.1875 35.5 
L 73.1875 27.203125 
L 10.59375 27.203125 
z
" id="DejaVuSans-2212"/>
       <path d="M 31.78125 66.40625 
Q 24.171875 66.40625 20.328125 58.90625 
Q 16.5 51.421875 16.5 36.375 
Q 16.5 21.390625 20.328125 13.890625 
Q 24.171875 6.390625 31.78125 6.390625 
Q 39.453125 6.390625 43.28125 13.890625 
Q 47.125 21.390625 47.125 36.375 
Q 47.125 51.421875 43.28125 58.90625 
Q 39.453125 66.40625 31.78125 66.40625 
M 31.78125 74.21875 
Q 44.046875 74.21875 50.515625 64.515625 
Q 56.984375 54.828125 56.984375 36.375 
Q 56.984375 17.96875 50.515625 8.265625 
Q 44.046875 -1.421875 31.78125 -1.421875 
Q 19.53125 -1.421875 13.0625 8.265625 
Q 6.59375 17.96875 6.59375 36.375 
Q 6.59375 54.828125 13.0625 64.515625 
Q 19.53125 74.21875 31.78125 74.21875 
" id="DejaVuSans-30"/>
       <path d="M 10.6875 12.40625 
L 21 12.40625 
L 21 0 
L 10.6875 0 
z
" id="DejaVuSans-2e"/>
       <path d="M 12.40625 8.296875 
L 28.515625 8.296875 
L 28.515625 63.921875 
L 10.984375 60.40625 
L 10.984375 69.390625 
L 28.421875 72.90625 
L 38.28125 72.90625 
L 38.28125 8.296875 
L 54.390625 8.296875 
L 54.390625 0 
L 12.40625 0 
z
" id="DejaVuSans-31"/>
      </defs>
      <g transform="translate(197.535949 609.260837)scale(0.1 -0.1)">
       <use xlink:href="#DejaVuSans-2212"/>
       <use x="83.789062" xlink:href="#DejaVuSans-30"/>
       <use x="147.412109" xlink:href="#DejaVuSans-2e"/>
       <use x="179.199219" xlink:href="#DejaVuSans-30"/>
       <use x="242.822266" xlink:href="#DejaVuSans-31"/>
       <use x="306.445312" xlink:href="#DejaVuSans-30"/>
       <use x="370.068359" xlink:href="#DejaVuSans-30"/>
      </g>
     </g>
    </g>
    <g id="xtick_2">
     <g id="line2d_3">
      <path clip-path="url(#p6fe45bd357)" d="M 340.981194 594.6624 
L 340.981194 80.1792 
" style="fill:none;stroke:#b0b0b0;stroke-linecap:square;stroke-width:0.8;"/>
     </g>
     <g id="line2d_4">
      <g>
       <use style="stroke:#000000;stroke-width:0.8;" x="340.981194" xlink:href="#mfc6e23651f" y="594.6624"/>
      </g>
     </g>
     <g id="text_2">
      <!-- −0.0075 -->
      <defs>
       <path d="M 8.203125 72.90625 
L 55.078125 72.90625 
L 55.078125 68.703125 
L 28.609375 0 
L 18.3125 0 
L 43.21875 64.59375 
L 8.203125 64.59375 
z
" id="DejaVuSans-37"/>
       <path d="M 10.796875 72.90625 
L 49.515625 72.90625 
L 49.515625 64.59375 
L 19.828125 64.59375 
L 19.828125 46.734375 
Q 21.96875 47.46875 24.109375 47.828125 
Q 26.265625 48.1875 28.421875 48.1875 
Q 40.625 48.1875 47.75 41.5 
Q 54.890625 34.8125 54.890625 23.390625 
Q 54.890625 11.625 47.5625 5.09375 
Q 40.234375 -1.421875 26.90625 -1.421875 
Q 22.3125 -1.421875 17.546875 -0.640625 
Q 12.796875 0.140625 7.71875 1.703125 
L 7.71875 11.625 
Q 12.109375 9.234375 16.796875 8.0625 
Q 21.484375 6.890625 26.703125 6.890625 
Q 35.15625 6.890625 40.078125 11.328125 
Q 45.015625 15.765625 45.015625 23.390625 
Q 45.015625 31 40.078125 35.4375 
Q 35.15625 39.890625 26.703125 39.890625 
Q 22.75 39.890625 18.8125 39.015625 
Q 14.890625 38.140625 10.796875 36.28125 
z
" id="DejaVuSans-35"/>
      </defs>
      <g transform="translate(319.296038 609.260837)scale(0.1 -0.1)">
       <use xlink:href="#DejaVuSans-2212"/>
       <use x="83.789062" xlink:href="#DejaVuSans-30"/>
       <use x="147.412109" xlink:href="#DejaVuSans-2e"/>
       <use x="179.199219" xlink:href="#DejaVuSans-30"/>
       <use x="242.822266" xlink:href="#DejaVuSans-30"/>
       <use x="306.445312" xlink:href="#DejaVuSans-37"/>
       <use x="370.068359" xlink:href="#DejaVuSans-35"/>
      </g>
     </g>
    </g>
    <g id="xtick_3">
     <g id="line2d_5">
      <path clip-path="url(#p6fe45bd357)" d="M 462.741283 594.6624 
L 462.741283 80.1792 
" style="fill:none;stroke:#b0b0b0;stroke-linecap:square;stroke-width:0.8;"/>
     </g>
     <g id="line2d_6">
      <g>
       <use style="stroke:#000000;stroke-width:0.8;" x="462.741283" xlink:href="#mfc6e23651f" y="594.6624"/>
      </g>
     </g>
     <g id="text_3">
      <!-- −0.0050 -->
      <g transform="translate(441.056127 609.260837)scale(0.1 -0.1)">
       <use xlink:href="#DejaVuSans-2212"/>
       <use x="83.789062" xlink:href="#DejaVuSans-30"/>
       <use x="147.412109" xlink:href="#DejaVuSans-2e"/>
       <use x="179.199219" xlink:href="#DejaVuSans-30"/>
       <use x="242.822266" xlink:href="#DejaVuSans-30"/>
       <use x="306.445312" xlink:href="#DejaVuSans-35"/>
       <use x="370.068359" xlink:href="#DejaVuSans-30"/>
      </g>
     </g>
    </g>
    <g id="xtick_4">
     <g id="line2d_7">
      <path clip-path="url(#p6fe45bd357)" d="M 584.501372 594.6624 
L 584.501372 80.1792 
" style="fill:none;stroke:#b0b0b0;stroke-linecap:square;stroke-width:0.8;"/>
     </g>
     <g id="line2d_8">
      <g>
       <use style="stroke:#000000;stroke-width:0.8;" x="584.501372" xlink:href="#mfc6e23651f" y="594.6624"/>
      </g>
     </g>
     <g id="text_4">
      <!-- −0.0025 -->
      <defs>
       <path d="M 19.1875 8.296875 
L 53.609375 8.296875 
L 53.609375 0 
L 7.328125 0 
L 7.328125 8.296875 
Q 12.9375 14.109375 22.625 23.890625 
Q 32.328125 33.6875 34.8125 36.53125 
Q 39.546875 41.84375 41.421875 45.53125 
Q 43.3125 49.21875 43.3125 52.78125 
Q 43.3125 58.59375 39.234375 62.25 
Q 35.15625 65.921875 28.609375 65.921875 
Q 23.96875 65.921875 18.8125 64.3125 
Q 13.671875 62.703125 7.8125 59.421875 
L 7.8125 69.390625 
Q 13.765625 71.78125 18.9375 73 
Q 24.125 74.21875 28.421875 74.21875 
Q 39.75 74.21875 46.484375 68.546875 
Q 53.21875 62.890625 53.21875 53.421875 
Q 53.21875 48.921875 51.53125 44.890625 
Q 49.859375 40.875 45.40625 35.40625 
Q 44.1875 33.984375 37.640625 27.21875 
Q 31.109375 20.453125 19.1875 8.296875 
" id="DejaVuSans-32"/>
      </defs>
      <g transform="translate(562.816216 609.260837)scale(0.1 -0.1)">
       <use xlink:href="#DejaVuSans-2212"/>
       <use x="83.789062" xlink:href="#DejaVuSans-30"/>
       <use x="147.412109" xlink:href="#DejaVuSans-2e"/>
       <use x="179.199219" xlink:href="#DejaVuSans-30"/>
       <use x="242.822266" xlink:href="#DejaVuSans-30"/>
       <use x="306.445312" xlink:href="#DejaVuSans-32"/>
       <use x="370.068359" xlink:href="#DejaVuSans-35"/>
      </g>
     </g>
    </g>
    <g id="xtick_5">
     <g id="line2d_9">
      <path clip-path="url(#p6fe45bd357)" d="M 706.261462 594.6624 
L 706.261462 80.1792 
" style="fill:none;stroke:#b0b0b0;stroke-linecap:square;stroke-width:0.8;"/>
     </g>
     <g id="line2d_10">
      <g>
       <use style="stroke:#000000;stroke-width:0.8;" x="706.261462" xlink:href="#mfc6e23651f" y="594.6624"/>
      </g>
     </g>
     <g id="text_5">
      <!-- 0.0000 -->
      <g transform="translate(688.766149 609.260837)scale(0.1 -0.1)">
       <use xlink:href="#DejaVuSans-30"/>
       <use x="63.623047" xlink:href="#DejaVuSans-2e"/>
       <use x="95.410156" xlink:href="#DejaVuSans-30"/>
       <use x="159.033203" xlink:href="#DejaVuSans-30"/>
       <use x="222.65625" xlink:href="#DejaVuSans-30"/>
       <use x="286.279297" xlink:href="#DejaVuSans-30"/>
      </g>
     </g>
    </g>
    <g id="xtick_6">
     <g id="line2d_11">
      <path clip-path="url(#p6fe45bd357)" d="M 828.021551 594.6624 
L 828.021551 80.1792 
" style="fill:none;stroke:#b0b0b0;stroke-linecap:square;stroke-width:0.8;"/>
     </g>
     <g id="line2d_12">
      <g>
       <use style="stroke:#000000;stroke-width:0.8;" x="828.021551" xlink:href="#mfc6e23651f" y="594.6624"/>
      </g>
     </g>
     <g id="text_6">
      <!-- 0.0025 -->
      <g transform="translate(810.526238 609.260837)scale(0.1 -0.1)">
       <use xlink:href="#DejaVuSans-30"/>
       <use x="63.623047" xlink:href="#DejaVuSans-2e"/>
       <use x="95.410156" xlink:href="#DejaVuSans-30"/>
       <use x="159.033203" xlink:href="#DejaVuSans-30"/>
       <use x="222.65625" xlink:href="#DejaVuSans-32"/>
       <use x="286.279297" xlink:href="#DejaVuSans-35"/>
      </g>
     </g>
    </g>
    <g id="xtick_7">
     <g id="line2d_13">
      <path clip-path="url(#p6fe45bd357)" d="M 949.78164 594.6624 
L 949.78164 80.1792 
" style="fill:none;stroke:#b0b0b0;stroke-linecap:square;stroke-width:0.8;"/>
     </g>
     <g id="line2d_14">
      <g>
       <use style="stroke:#000000;stroke-width:0.8;" x="949.78164" xlink:href="#mfc6e23651f" y="594.6624"/>
      </g>
     </g>
     <g id="text_7">
      <!-- 0.0050 -->
      <g transform="translate(932.286327 609.260837)scale(0.1 -0.1)">
       <use xlink:href="#DejaVuSans-30"/>
       <use x="63.623047" xlink:href="#DejaVuSans-2e"/>
       <use x="95.410156" xlink:href="#DejaVuSans-30"/>
       <use x="159.033203" xlink:href="#DejaVuSans-30"/>
       <use x="222.65625" xlink:href="#DejaVuSans-35"/>
       <use x="286.279297" xlink:href="#DejaVuSans-30"/>
      </g>
     </g>
    </g>
    <g id="xtick_8">
     <g id="line2d_15">
      <path clip-path="url(#p6fe45bd357)" d="M 1071.541729 594.6624 
L 1071.541729 80.1792 
" style="fill:none;stroke:#b0b0b0;stroke-linecap:square;stroke-width:0.8;"/>
     </g>
     <g id="line2d_16">
      <g>
       <use style="stroke:#000000;stroke-width:0.8;" x="1071.541729" xlink:href="#mfc6e23651f" y="594.6624"/>
      </g>
     </g>
     <g id="text_8">
      <!-- 0.0075 -->
      <g transform="translate(1054.046417 609.260837)scale(0.1 -0.1)">
       <use xlink:href="#DejaVuSans-30"/>
       <use x="63.623047" xlink:href="#DejaVuSans-2e"/>
       <use x="95.410156" xlink:href="#DejaVuSans-30"/>
       <use x="159.033203" xlink:href="#DejaVuSans-30"/>
       <use x="222.65625" xlink:href="#DejaVuSans-37"/>
       <use x="286.279297" xlink:href="#DejaVuSans-35"/>
      </g>
     </g>
    </g>
    <g id="xtick_9">
     <g id="line2d_17">
      <path clip-path="url(#p6fe45bd357)" d="M 1193.301818 594.6624 
L 1193.301818 80.1792 
" style="fill:none;stroke:#b0b0b0;stroke-linecap:square;stroke-width:0.8;"/>
     </g>
     <g id="line2d_18">
      <g>
       <use style="stroke:#000000;stroke-width:0.8;" x="1193.301818" xlink:href="#mfc6e23651f" y="594.6624"/>
      </g>
     </g>
     <g id="text_9">
      <!-- 0.0100 -->
      <g transform="translate(1175.806506 609.260837)scale(0.1 -0.1)">
       <use xlink:href="#DejaVuSans-30"/>
       <use x="63.623047" xlink:href="#DejaVuSans-2e"/>
       <use x="95.410156" xlink:href="#DejaVuSans-30"/>
       <use x="159.033203" xlink:href="#DejaVuSans-31"/>
       <use x="222.65625" xlink:href="#DejaVuSans-30"/>
       <use x="286.279297" xlink:href="#DejaVuSans-30"/>
      </g>
     </g>
    </g>
    <g id="text_10">
     <!-- theta -->
     <defs>
      <path d="M 18.3125 70.21875 
L 18.3125 54.6875 
L 36.8125 54.6875 
L 36.8125 47.703125 
L 18.3125 47.703125 
L 18.3125 18.015625 
Q 18.3125 11.328125 20.140625 9.421875 
Q 21.96875 7.515625 27.59375 7.515625 
L 36.8125 7.515625 
L 36.8125 0 
L 27.59375 0 
Q 17.1875 0 13.234375 3.875 
Q 9.28125 7.765625 9.28125 18.015625 
L 9.28125 47.703125 
L 2.6875 47.703125 
L 2.6875 54.6875 
L 9.28125 54.6875 
L 9.28125 70.21875 
z
" id="DejaVuSans-74"/>
      <path d="M 54.890625 33.015625 
L 54.890625 0 
L 45.90625 0 
L 45.90625 32.71875 
Q 45.90625 40.484375 42.875 44.328125 
Q 39.84375 48.1875 33.796875 48.1875 
Q 26.515625 48.1875 22.3125 43.546875 
Q 18.109375 38.921875 18.109375 30.90625 
L 18.109375 0 
L 9.078125 0 
L 9.078125 75.984375 
L 18.109375 75.984375 
L 18.109375 46.1875 
Q 21.34375 51.125 25.703125 53.5625 
Q 30.078125 56 35.796875 56 
Q 45.21875 56 50.046875 50.171875 
Q 54.890625 44.34375 54.890625 33.015625 
" id="DejaVuSans-68"/>
      <path d="M 56.203125 29.59375 
L 56.203125 25.203125 
L 14.890625 25.203125 
Q 15.484375 15.921875 20.484375 11.0625 
Q 25.484375 6.203125 34.421875 6.203125 
Q 39.59375 6.203125 44.453125 7.46875 
Q 49.3125 8.734375 54.109375 11.28125 
L 54.109375 2.78125 
Q 49.265625 0.734375 44.1875 -0.34375 
Q 39.109375 -1.421875 33.890625 -1.421875 
Q 20.796875 -1.421875 13.15625 6.1875 
Q 5.515625 13.8125 5.515625 26.8125 
Q 5.515625 40.234375 12.765625 48.109375 
Q 20.015625 56 32.328125 56 
Q 43.359375 56 49.78125 48.890625 
Q 56.203125 41.796875 56.203125 29.59375 
M 47.21875 32.234375 
Q 47.125 39.59375 43.09375 43.984375 
Q 39.0625 48.390625 32.421875 48.390625 
Q 24.90625 48.390625 20.390625 44.140625 
Q 15.875 39.890625 15.1875 32.171875 
z
" id="DejaVuSans-65"/>
      <path d="M 34.28125 27.484375 
Q 23.390625 27.484375 19.1875 25 
Q 14.984375 22.515625 14.984375 16.5 
Q 14.984375 11.71875 18.140625 8.90625 
Q 21.296875 6.109375 26.703125 6.109375 
Q 34.1875 6.109375 38.703125 11.40625 
Q 43.21875 16.703125 43.21875 25.484375 
L 43.21875 27.484375 
z
M 52.203125 31.203125 
L 52.203125 0 
L 43.21875 0 
L 43.21875 8.296875 
Q 40.140625 3.328125 35.546875 0.953125 
Q 30.953125 -1.421875 24.3125 -1.421875 
Q 15.921875 -1.421875 10.953125 3.296875 
Q 6 8.015625 6 15.921875 
Q 6 25.140625 12.171875 29.828125 
Q 18.359375 34.515625 30.609375 34.515625 
L 43.21875 34.515625 
L 43.21875 35.40625 
Q 43.21875 41.609375 39.140625 45 
Q 35.0625 48.390625 27.6875 48.390625 
Q 23 48.390625 18.546875 47.265625 
Q 14.109375 46.140625 10.015625 43.890625 
L 10.015625 52.203125 
Q 14.9375 54.109375 19.578125 55.046875 
Q 24.21875 56 28.609375 56 
Q 40.484375 56 46.34375 49.84375 
Q 52.203125 43.703125 52.203125 31.203125 
" id="DejaVuSans-61"/>
     </defs>
     <g transform="translate(695.250312 622.938963)scale(0.1 -0.1)">
      <use xlink:href="#DejaVuSans-74"/>
      <use x="39.208984" xlink:href="#DejaVuSans-68"/>
      <use x="102.587891" xlink:href="#DejaVuSans-65"/>
      <use x="164.111328" xlink:href="#DejaVuSans-74"/>
      <use x="203.320312" xlink:href="#DejaVuSans-61"/>
     </g>
    </g>
   </g>
   <g id="matplotlib.axis_2">
    <g id="ytick_1">
     <g id="line2d_19">
      <path clip-path="url(#p6fe45bd357)" d="M 172.8 568.500465 
L 1244.16 568.500465 
" style="fill:none;stroke:#b0b0b0;stroke-linecap:square;stroke-width:0.8;"/>
     </g>
     <g id="line2d_20">
      <defs>
       <path d="M 0 0 
L -3.5 0 
" id="mac025ccebf" style="stroke:#000000;stroke-width:0.8;"/>
      </defs>
      <g>
       <use style="stroke:#000000;stroke-width:0.8;" x="172.8" xlink:href="#mac025ccebf" y="568.500465"/>
      </g>
     </g>
     <g id="text_11">
      <!-- −0.0100 -->
      <g transform="translate(122.429687 572.299684)scale(0.1 -0.1)">
       <use xlink:href="#DejaVuSans-2212"/>
       <use x="83.789062" xlink:href="#DejaVuSans-30"/>
       <use x="147.412109" xlink:href="#DejaVuSans-2e"/>
       <use x="179.199219" xlink:href="#DejaVuSans-30"/>
       <use x="242.822266" xlink:href="#DejaVuSans-31"/>
       <use x="306.445312" xlink:href="#DejaVuSans-30"/>
       <use x="370.068359" xlink:href="#DejaVuSans-30"/>
      </g>
     </g>
    </g>
    <g id="ytick_2">
     <g id="line2d_21">
      <path clip-path="url(#p6fe45bd357)" d="M 172.8 510.028659 
L 1244.16 510.028659 
" style="fill:none;stroke:#b0b0b0;stroke-linecap:square;stroke-width:0.8;"/>
     </g>
     <g id="line2d_22">
      <g>
       <use style="stroke:#000000;stroke-width:0.8;" x="172.8" xlink:href="#mac025ccebf" y="510.028659"/>
      </g>
     </g>
     <g id="text_12">
      <!-- −0.0075 -->
      <g transform="translate(122.429687 513.827878)scale(0.1 -0.1)">
       <use xlink:href="#DejaVuSans-2212"/>
       <use x="83.789062" xlink:href="#DejaVuSans-30"/>
       <use x="147.412109" xlink:href="#DejaVuSans-2e"/>
       <use x="179.199219" xlink:href="#DejaVuSans-30"/>
       <use x="242.822266" xlink:href="#DejaVuSans-30"/>
       <use x="306.445312" xlink:href="#DejaVuSans-37"/>
       <use x="370.068359" xlink:href="#DejaVuSans-35"/>
      </g>
     </g>
    </g>
    <g id="ytick_3">
     <g id="line2d_23">
      <path clip-path="url(#p6fe45bd357)" d="M 172.8 451.556853 
L 1244.16 451.556853 
" style="fill:none;stroke:#b0b0b0;stroke-linecap:square;stroke-width:0.8;"/>
     </g>
     <g id="line2d_24">
      <g>
       <use style="stroke:#000000;stroke-width:0.8;" x="172.8" xlink:href="#mac025ccebf" y="451.556853"/>
      </g>
     </g>
     <g id="text_13">
      <!-- −0.0050 -->
      <g transform="translate(122.429687 455.356072)scale(0.1 -0.1)">
       <use xlink:href="#DejaVuSans-2212"/>
       <use x="83.789062" xlink:href="#DejaVuSans-30"/>
       <use x="147.412109" xlink:href="#DejaVuSans-2e"/>
       <use x="179.199219" xlink:href="#DejaVuSans-30"/>
       <use x="242.822266" xlink:href="#DejaVuSans-30"/>
       <use x="306.445312" xlink:href="#DejaVuSans-35"/>
       <use x="370.068359" xlink:href="#DejaVuSans-30"/>
      </g>
     </g>
    </g>
    <g id="ytick_4">
     <g id="line2d_25">
      <path clip-path="url(#p6fe45bd357)" d="M 172.8 393.085047 
L 1244.16 393.085047 
" style="fill:none;stroke:#b0b0b0;stroke-linecap:square;stroke-width:0.8;"/>
     </g>
     <g id="line2d_26">
      <g>
       <use style="stroke:#000000;stroke-width:0.8;" x="172.8" xlink:href="#mac025ccebf" y="393.085047"/>
      </g>
     </g>
     <g id="text_14">
      <!-- −0.0025 -->
      <g transform="translate(122.429687 396.884266)scale(0.1 -0.1)">
       <use xlink:href="#DejaVuSans-2212"/>
       <use x="83.789062" xlink:href="#DejaVuSans-30"/>
       <use x="147.412109" xlink:href="#DejaVuSans-2e"/>
       <use x="179.199219" xlink:href="#DejaVuSans-30"/>
       <use x="242.822266" xlink:href="#DejaVuSans-30"/>
       <use x="306.445312" xlink:href="#DejaVuSans-32"/>
       <use x="370.068359" xlink:href="#DejaVuSans-35"/>
      </g>
     </g>
    </g>
    <g id="ytick_5">
     <g id="line2d_27">
      <path clip-path="url(#p6fe45bd357)" d="M 172.8 334.613241 
L 1244.16 334.613241 
" style="fill:none;stroke:#b0b0b0;stroke-linecap:square;stroke-width:0.8;"/>
     </g>
     <g id="line2d_28">
      <g>
       <use style="stroke:#000000;stroke-width:0.8;" x="172.8" xlink:href="#mac025ccebf" y="334.613241"/>
      </g>
     </g>
     <g id="text_15">
      <!-- 0.0000 -->
      <g transform="translate(130.809375 338.41246)scale(0.1 -0.1)">
       <use xlink:href="#DejaVuSans-30"/>
       <use x="63.623047" xlink:href="#DejaVuSans-2e"/>
       <use x="95.410156" xlink:href="#DejaVuSans-30"/>
       <use x="159.033203" xlink:href="#DejaVuSans-30"/>
       <use x="222.65625" xlink:href="#DejaVuSans-30"/>
       <use x="286.279297" xlink:href="#DejaVuSans-30"/>
      </g>
     </g>
    </g>
    <g id="ytick_6">
     <g id="line2d_29">
      <path clip-path="url(#p6fe45bd357)" d="M 172.8 276.141435 
L 1244.16 276.141435 
" style="fill:none;stroke:#b0b0b0;stroke-linecap:square;stroke-width:0.8;"/>
     </g>
     <g id="line2d_30">
      <g>
       <use style="stroke:#000000;stroke-width:0.8;" x="172.8" xlink:href="#mac025ccebf" y="276.141435"/>
      </g>
     </g>
     <g id="text_16">
      <!-- 0.0025 -->
      <g transform="translate(130.809375 279.940654)scale(0.1 -0.1)">
       <use xlink:href="#DejaVuSans-30"/>
       <use x="63.623047" xlink:href="#DejaVuSans-2e"/>
       <use x="95.410156" xlink:href="#DejaVuSans-30"/>
       <use x="159.033203" xlink:href="#DejaVuSans-30"/>
       <use x="222.65625" xlink:href="#DejaVuSans-32"/>
       <use x="286.279297" xlink:href="#DejaVuSans-35"/>
      </g>
     </g>
    </g>
    <g id="ytick_7">
     <g id="line2d_31">
      <path clip-path="url(#p6fe45bd357)" d="M 172.8 217.669629 
L 1244.16 217.669629 
" style="fill:none;stroke:#b0b0b0;stroke-linecap:square;stroke-width:0.8;"/>
     </g>
     <g id="line2d_32">
      <g>
       <use style="stroke:#000000;stroke-width:0.8;" x="172.8" xlink:href="#mac025ccebf" y="217.669629"/>
      </g>
     </g>
     <g id="text_17">
      <!-- 0.0050 -->
      <g transform="translate(130.809375 221.468848)scale(0.1 -0.1)">
       <use xlink:href="#DejaVuSans-30"/>
       <use x="63.623047" xlink:href="#DejaVuSans-2e"/>
       <use x="95.410156" xlink:href="#DejaVuSans-30"/>
       <use x="159.033203" xlink:href="#DejaVuSans-30"/>
       <use x="222.65625" xlink:href="#DejaVuSans-35"/>
       <use x="286.279297" xlink:href="#DejaVuSans-30"/>
      </g>
     </g>
    </g>
    <g id="ytick_8">
     <g id="line2d_33">
      <path clip-path="url(#p6fe45bd357)" d="M 172.8 159.197823 
L 1244.16 159.197823 
" style="fill:none;stroke:#b0b0b0;stroke-linecap:square;stroke-width:0.8;"/>
     </g>
     <g id="line2d_34">
      <g>
       <use style="stroke:#000000;stroke-width:0.8;" x="172.8" xlink:href="#mac025ccebf" y="159.197823"/>
      </g>
     </g>
     <g id="text_18">
      <!-- 0.0075 -->
      <g transform="translate(130.809375 162.997042)scale(0.1 -0.1)">
       <use xlink:href="#DejaVuSans-30"/>
       <use x="63.623047" xlink:href="#DejaVuSans-2e"/>
       <use x="95.410156" xlink:href="#DejaVuSans-30"/>
       <use x="159.033203" xlink:href="#DejaVuSans-30"/>
       <use x="222.65625" xlink:href="#DejaVuSans-37"/>
       <use x="286.279297" xlink:href="#DejaVuSans-35"/>
      </g>
     </g>
    </g>
    <g id="ytick_9">
     <g id="line2d_35">
      <path clip-path="url(#p6fe45bd357)" d="M 172.8 100.726017 
L 1244.16 100.726017 
" style="fill:none;stroke:#b0b0b0;stroke-linecap:square;stroke-width:0.8;"/>
     </g>
     <g id="line2d_36">
      <g>
       <use style="stroke:#000000;stroke-width:0.8;" x="172.8" xlink:href="#mac025ccebf" y="100.726017"/>
      </g>
     </g>
     <g id="text_19">
      <!-- 0.0100 -->
      <g transform="translate(130.809375 104.525236)scale(0.1 -0.1)">
       <use xlink:href="#DejaVuSans-30"/>
       <use x="63.623047" xlink:href="#DejaVuSans-2e"/>
       <use x="95.410156" xlink:href="#DejaVuSans-30"/>
       <use x="159.033203" xlink:href="#DejaVuSans-31"/>
       <use x="222.65625" xlink:href="#DejaVuSans-30"/>
       <use x="286.279297" xlink:href="#DejaVuSans-30"/>
      </g>
     </g>
    </g>
    <g id="text_20">
     <!-- omega -->
     <defs>
      <path d="M 30.609375 48.390625 
Q 23.390625 48.390625 19.1875 42.75 
Q 14.984375 37.109375 14.984375 27.296875 
Q 14.984375 17.484375 19.15625 11.84375 
Q 23.34375 6.203125 30.609375 6.203125 
Q 37.796875 6.203125 41.984375 11.859375 
Q 46.1875 17.53125 46.1875 27.296875 
Q 46.1875 37.015625 41.984375 42.703125 
Q 37.796875 48.390625 30.609375 48.390625 
M 30.609375 56 
Q 42.328125 56 49.015625 48.375 
Q 55.71875 40.765625 55.71875 27.296875 
Q 55.71875 13.875 49.015625 6.21875 
Q 42.328125 -1.421875 30.609375 -1.421875 
Q 18.84375 -1.421875 12.171875 6.21875 
Q 5.515625 13.875 5.515625 27.296875 
Q 5.515625 40.765625 12.171875 48.375 
Q 18.84375 56 30.609375 56 
" id="DejaVuSans-6f"/>
      <path d="M 52 44.1875 
Q 55.375 50.25 60.0625 53.125 
Q 64.75 56 71.09375 56 
Q 79.640625 56 84.28125 50.015625 
Q 88.921875 44.046875 88.921875 33.015625 
L 88.921875 0 
L 79.890625 0 
L 79.890625 32.71875 
Q 79.890625 40.578125 77.09375 44.375 
Q 74.3125 48.1875 68.609375 48.1875 
Q 61.625 48.1875 57.5625 43.546875 
Q 53.515625 38.921875 53.515625 30.90625 
L 53.515625 0 
L 44.484375 0 
L 44.484375 32.71875 
Q 44.484375 40.625 41.703125 44.40625 
Q 38.921875 48.1875 33.109375 48.1875 
Q 26.21875 48.1875 22.15625 43.53125 
Q 18.109375 38.875 18.109375 30.90625 
L 18.109375 0 
L 9.078125 0 
L 9.078125 54.6875 
L 18.109375 54.6875 
L 18.109375 46.1875 
Q 21.1875 51.21875 25.484375 53.609375 
Q 29.78125 56 35.6875 56 
Q 41.65625 56 45.828125 52.96875 
Q 50 49.953125 52 44.1875 
" id="DejaVuSans-6d"/>
      <path d="M 45.40625 27.984375 
Q 45.40625 37.75 41.375 43.109375 
Q 37.359375 48.484375 30.078125 48.484375 
Q 22.859375 48.484375 18.828125 43.109375 
Q 14.796875 37.75 14.796875 27.984375 
Q 14.796875 18.265625 18.828125 12.890625 
Q 22.859375 7.515625 30.078125 7.515625 
Q 37.359375 7.515625 41.375 12.890625 
Q 45.40625 18.265625 45.40625 27.984375 
M 54.390625 6.78125 
Q 54.390625 -7.171875 48.1875 -13.984375 
Q 42 -20.796875 29.203125 -20.796875 
Q 24.46875 -20.796875 20.265625 -20.09375 
Q 16.0625 -19.390625 12.109375 -17.921875 
L 12.109375 -9.1875 
Q 16.0625 -11.328125 19.921875 -12.34375 
Q 23.78125 -13.375 27.78125 -13.375 
Q 36.625 -13.375 41.015625 -8.765625 
Q 45.40625 -4.15625 45.40625 5.171875 
L 45.40625 9.625 
Q 42.625 4.78125 38.28125 2.390625 
Q 33.9375 0 27.875 0 
Q 17.828125 0 11.671875 7.65625 
Q 5.515625 15.328125 5.515625 27.984375 
Q 5.515625 40.671875 11.671875 48.328125 
Q 17.828125 56 27.875 56 
Q 33.9375 56 38.28125 53.609375 
Q 42.625 51.21875 45.40625 46.390625 
L 45.40625 54.6875 
L 54.390625 54.6875 
z
" id="DejaVuSans-67"/>
     </defs>
     <g transform="translate(116.35 354.665331)rotate(-90)scale(0.1 -0.1)">
      <use xlink:href="#DejaVuSans-6f"/>
      <use x="61.181641" xlink:href="#DejaVuSans-6d"/>
      <use x="158.59375" xlink:href="#DejaVuSans-65"/>
      <use x="220.117188" xlink:href="#DejaVuSans-67"/>
      <use x="283.59375" xlink:href="#DejaVuSans-61"/>
     </g>
    </g>
   </g>
   <g id="line2d_37">
    <path clip-path="url(#p6fe45bd357)" d="M 1193.301818 334.613241 
L 969.002106 531.547468 
L 502.699545 547.090406 
L 223.893184 366.927695 
L 389.379901 157.001927 
L 846.735451 110.667674 
L 1174.703543 270.602644 
L 1071.20582 489.494292 
L 631.570493 565.730815 
L 260.731898 429.091881 
L 300.255575 205.433387 
L 713.737046 100.757405 
L 1120.331929 211.479181 
L 1145.539965 435.614021 
L 766.14415 566.721095 
L 331.593149 484.040423 
L 242.137475 263.728819 
L 580.169822 108.706029 
L 1034.340447 161.759613 
L 1186.327251 374.021772 
L 896.142644 549.986144 
L 431.065187 527.577239 
L 219.463273 327.436308 
L 456.233819 133.906193 
L 923.296171 125.240737 
L 1190.453575 309.421155 
L 1011.638679 516.804286 
L 551.551351 556.377626 
L 233.963853 391.690856 
L 351.393325 174.433093 
L 795.679563 104.711305 
L 1157.604365 246.745243 
L 1103.8125 469.709909 
L 683.850264 568.242305 
L 284.531416 451.585824 
L 273.65426 227.191418 
L 661.23632 101.738953 
L 1090.288654 190.780191 
L 1165.625669 412.299753 
L 817.858681 562.265367 
L 367.303787 502.547385 
L 228.952632 288.152072 
L 530.233543 116.550431 
L 993.647535 145.799701 
L 1192.358362 348.958047 
L 943.342707 538.9036 
L 475.959714 540.683939 
L 220.70154 352.659714 
L 412.675413 148.014233 
L 875.061287 115.238675 
L 1181.969751 284.521934 
L 1050.719858 499.94143 
L 602.201268 563.083181 
L 249.530433 415.788256 
L 317.53904 193.727244 
L 743.586302 101.430879 
L 1135.253695 223.911918 
L 1131.790502 448.35461 
L 736.387511 568.034693 
L 313.237378 472.717069 
L 252.0892 250.198169 
L 609.262945 105.430592 
L 1055.778102 171.756383 
L 1180.364156 388.082911 
L 868.271152 555.160551 
L 406.956851 519.098818 
L 221.323391 313.114446 
L 482.349047 126.932094 
L 949.612685 132.038155 
L 1192.73206 323.728993 
L 987.780647 525.444291 
L 523.531577 551.391609 
L 227.590503 377.67149 
L 372.536482 164.292944 
L 824.865027 107.790285 
L 1167.950333 260.207233 
L 1085.789817 481.155635 
L 654.058971 567.129415 
L 270.411308 438.939453 
L 288.210765 214.659719 
L 691.06199 100.864404 
L 1107.911971 202.368328 
L 1154.814534 425.677028 
L 788.570799 565.110571 
L 346.515408 492.239783 
L 235.811033 274.185817 
L 558.421746 111.789183 
L 1017.202179 154.629048 
L 1189.58425 363.245374 
L 916.794957 545.489508 
L 450.090623 533.502216 
L 219.338182 338.325412 
L 437.073469 139.730026 
L 902.748576 120.634999 
L 1187.444358 298.628215 
L 1028.939486 509.765016 
L 573.226978 559.575778 
L 240.049633 402.180582 
L 336.283928 182.552731 
L 773.291689 102.982094 
L 1148.558823 236.759974 
L 1116.440686 460.665654 
L 706.520876 568.469405 
L 296.363141 460.875087 
L 263.749515 236.986804 
L 638.717925 103.0183 
L 1075.8977 182.36511 
L 1172.616974 401.941156 
L 839.792848 559.504146 
L 383.97794 509.926865 
L 225.008856 298.875144 
L 509.30433 120.740549 
L 975.010072 139.597395 
L 1193.179007 338.076223 
L 962.865512 533.364962 
L 496.202898 545.590085 
L 223.019744 363.491568 
L 394.933541 154.795125 
L 853.60078 111.722797 
L 1176.557154 273.94781 
L 1066.340438 492.048399 
L 624.467436 565.141355 
L 257.933581 425.901802 
L 304.339393 202.580958 
L 720.941561 100.869895 
L 1124.021238 214.452972 
L 1142.316049 438.710055 
L 758.976403 567.087729 
L 327.083595 481.339953 
L 244.439643 260.448577 
L 587.163277 107.86732 
L 1039.583746 164.134959 
L 1184.990987 377.423289 
L 889.457607 551.280842 
L 425.188735 525.572588 
L 219.808021 323.978781 
L 462.482203 132.18034 
L 929.693029 126.836233 
L 1191.106955 312.868382 
L 1005.946818 518.92818 
L 544.756835 555.221887 
L 232.324873 388.32005 
L 356.419469 171.951911 
L 802.741416 105.405119 
L 1160.197502 249.974965 
L 1099.54849 472.500763 
L 676.656525 568.023728 
L 281.033879 448.559148 
L 277.074356 224.144425 
L 668.423935 101.478099 
L 1094.623467 193.545755 
L 1163.115089 415.544445 
L 810.815086 563.000643 
L 362.214855 500.09598 
L 230.505535 284.771928 
L 536.997978 115.354853 
L 999.392989 147.889927 
L 1191.792921 352.408797 
L 936.987187 540.536537 
L 469.667958 538.994994 
L 220.26869 349.204565 
L 418.500122 145.975253 
L 881.778632 116.493937 
L 1183.39257 287.915204 
L 1045.537701 502.347334 
L 595.187221 562.285679 
L 247.144922 412.521942 
L 321.979231 191.000577 
L 750.762485 101.755329 
L 1138.556137 226.988616 
L 1128.177454 451.34972 
L 729.186817 568.189523 
L 309.081367 469.889011 
L 254.805812 246.992083 
L 616.350012 104.799453 
L 1060.707934 174.281545 
L 1178.596085 391.438491 
L 861.433677 556.255888 
L 401.347797 516.924991 
L 222.109002 309.673743 
L 488.805749 125.393584 
L 955.793401 133.818952 
L 1192.943976 327.188813 
L 981.828585 527.396443 
L 516.897766 550.038007 
L 226.38514 374.25893 
L 377.869755 161.964587 
L 831.824664 108.690723 
L 1170.125991 263.507061 
L 1081.177643 483.815531 
L 646.90704 566.699412 
L 267.307071 435.815639 
L 292.013362 211.719315 
L 698.268989 100.815734 
L 1111.885243 205.256206 
L 1151.894458 428.841522 
L 781.44695 565.636983 
L 341.749328 489.643244 
L 237.792588 270.857953 
L 565.325791 110.795126 
L 1022.66962 156.884433 
L 1188.579221 366.672786 
L 910.243167 546.932136 
L 444.02674 531.631251 
L 219.347403 334.864194 
L 443.147308 137.866512 
L 909.2926 122.085658 
L 1188.431119 302.056841 
L 1023.460121 512.013649 
L 566.328334 558.573254 
L 238.08583 398.850325 
L 341.063727 179.962111 
L 780.412605 103.517249 
L 1151.461968 239.927969 
L 1112.452135 463.548571 
L 699.314307 568.411884 
L 292.576346 457.930116 
L 266.870303 233.866897 
L 645.871874 102.597095 
L 1080.495522 185.030569 
L 1170.423814 405.238196 
L 832.828745 560.395991 
L 378.657295 507.592052 
L 226.232331 295.464231 
L 515.945016 119.395166 
L 980.951459 141.556768 
L 1192.948671 341.535578 
L 956.675639 535.138069 
L 489.754774 544.04374 
L 222.252515 360.050115 
L 400.553852 152.628314 
L 860.431933 112.826456 
L 1178.30723 277.305343 
L 1061.397511 494.567329 
L 617.384261 564.501556 
L 255.234237 422.692601 
L 308.510127 199.75824 
L 728.140874 101.033559 
L 1127.618045 217.452273 
L 1138.997501 441.782429 
L 751.799072 567.403337 
L 322.65835 478.608088 
L 246.842344 257.185486 
L 594.18092 107.078503 
L 1044.752575 166.546993 
L 1183.550223 380.814495 
L 882.734285 552.52772 
L 419.375478 523.526659 
L 220.259222 320.524522 
L 468.782263 130.49931 
L 936.039186 128.476807 
L 1191.653948 316.319422 
L 1000.190877 521.011112 
L 537.99954 554.018142 
L 230.790168 384.93841 
L 361.520869 169.507041 
L 809.780189 106.148951 
L 1162.690482 253.222336 
L 1095.199496 475.260657 
L 669.471262 567.75408 
L 277.630453 445.508343 
L 280.587525 221.122468 
L 675.617854 101.268389 
L 1098.872034 196.341464 
L 1160.505124 418.77051 
L 803.750524 563.685685 
L 357.202685 497.608999 
L 232.16223 281.403636 
L 543.797647 114.207628 
L 1005.072639 150.02048 
L 1191.121274 355.854699 
L 930.582869 542.12392 
L 463.429771 537.261742 
L 219.942412 345.747162 
L 424.386259 143.978161 
L 888.45568 117.796637 
L 1184.710488 291.317773 
L 1040.282652 504.715829 
L 588.199419 561.438524 
L 244.860646 409.239466 
L 326.502381 188.30612 
L 757.926961 102.130696 
L 1141.762964 230.08804 
L 1124.472972 454.318442 
L 721.983092 568.293142 
L 305.013508 467.032098 
L 257.620569 243.806062 
L 623.454816 104.218833 
L 1065.558777 176.841137 
L 1176.725033 394.780695 
L 854.564094 557.302368 
L 395.807056 514.711824 
L 223.000457 306.239454 
L 495.308318 123.901325 
L 961.917745 135.643243 
L 1193.049218 330.649306 
L 975.817783 529.305839 
L 510.307272 548.637587 
L 225.285226 370.838621 
L 383.273492 159.674694 
L 838.754874 109.640406 
L 1172.199457 266.821567 
L 1076.484612 486.442007 
L 639.77007 566.218686 
L 264.299851 432.670519 
L 295.905658 208.806644 
L 705.475782 100.818287 
L 1115.768556 208.171622 
L 1148.877563 431.984508 
L 774.308599 566.112641 
L 337.064417 487.013461 
L 239.876214 267.544956 
L 572.258802 109.850376 
L 1028.066248 159.178132 
L 1187.468813 370.092229 
L 903.648499 548.327854 
L 438.021942 529.717641 
L 219.463289 331.403878 
L 449.277119 136.046608 
L 915.790343 123.582474 
L 1189.311979 305.491652 
L 1017.912767 514.222815 
L 559.462254 557.521945 
L 236.225125 395.506912 
L 345.922209 177.406081 
L 787.515311 104.102882 
L 1154.266806 243.115842 
L 1108.375704 466.402446 
L 692.11124 568.303161 
L 288.881213 454.958943 
L 270.086486 230.769921 
L 653.037103 102.226826 
L 1085.01009 187.72806 
L 1168.129575 408.518859 
L 825.83883 561.238134 
L 373.409888 505.21999 
L 227.560621 292.062824 
L 522.625558 118.097302 
L 986.831036 143.557894 
L 1192.61179 344.992468 
L 950.432617 536.866758 
L 483.355836 542.451941 
L 221.591529 356.604042 
L 406.239587 150.501967 
L 867.227447 113.978394 
L 1179.953411 280.674503 
L 1056.37814 497.050535 
L 610.322515 563.811573 
L 252.634442 419.464988 
L 312.766847 196.965831 
L 735.333404 101.248349 
L 1131.121569 220.476418 
L 1135.585073 444.830478 
L 744.613743 567.667861 
L 318.318334 475.845428 
L 249.345026 253.940258 
L 601.221195 106.339745 
L 1049.845822 168.995178 
L 1182.005296 384.194647 
L 875.974139 553.726528 
L 413.626676 521.439909 
L 220.816761 317.074294 
L 475.132605 128.863459 
L 942.333257 130.162087 
L 1192.094474 319.77353 
L 994.372135 523.052633 
L 531.280956 552.766663 
L 229.360047 381.546681 
L 366.696385 167.099016 
L 816.794375 106.942623 
L 1165.082782 256.486639 
L 1090.766493 477.988985 
L 662.296045 567.433432 
L 274.321866 442.434086 
L 284.192977 218.12619 
L 682.816498 101.109858 
L 1103.033429 199.166697 
L 1157.79637 421.977249 
L 796.666553 564.320354 
L 352.268333 495.086993 
L 233.922329 278.047931 
L 550.631039 113.109001 
L 1010.685262 152.190881 
L 1190.343594 359.294997 
L 924.131156 543.665418 
L 457.246507 535.484575 
L 219.722758 342.28827 
L 430.33252 142.02338 
L 895.09097 119.146475 
L 1185.923248 294.7289 
L 1034.955881 507.046404 
L 581.2394 560.541911 
L 242.678073 405.941547 
L 331.107478 185.644459 
L 765.078171 102.556884 
L 1144.873498 233.209505 
L 1120.677893 457.260124 
L 714.777905 568.345542 
L 301.034676 464.146965 
L 260.532832 240.640799 
L 630.575797 103.688847 
L 1070.329575 179.434588 
L 1174.751438 398.108802 
L 847.663919 558.299774 
L 390.335829 512.45981 
L 223.997533 302.81233 
L 501.855313 122.455637 
L 967.984408 137.510618 
L 1193.04779 334.109711 
L 969.749573 531.172066 
L 503.76153 547.190667 
L 224.290981 367.411318 
L 388.746501 157.423746 
L 845.654144 110.639112 
L 1174.170292 270.150018 
L 1071.711774 489.034496 
L 632.649633 565.687354 
L 261.390261 429.504779 
L 299.886777 205.922338 
L 712.680777 100.872053 
L 1119.561084 211.113931 
L 1145.764535 435.105298 
L 767.157287 566.53746 
L 332.461682 484.351018 
L 242.061435 264.247557 
L 579.219251 108.955127 
L 1033.390891 161.509631 
L 1186.253304 373.50297 
L 897.012411 549.676365 
L 432.077549 527.761815 
L 219.685785 327.945222 
L 455.461538 134.270706 
L 922.240424 125.125107 
L 1190.086772 308.931894 
L 1012.298661 516.392031 
L 552.630231 556.422093 
L 234.467906 392.151081 
L 350.858299 174.88518 
L 794.598252 104.738853 
L 1156.972735 246.322884 
L 1104.212309 469.226662 
L 684.913261 568.143273 
L 285.278505 451.962217 
L 273.397334 227.696551 
L 660.212028 101.907567 
L 1089.440439 190.456982 
L 1165.734786 411.782426 
L 818.82462 562.030407 
L 368.236852 502.811209 
L 228.993413 288.671671 
L 529.344484 116.847229 
L 992.647524 145.600323 
L 1192.168469 348.446145 
L 944.137829 538.550661 
L 477.007485 540.815049 
L 221.036898 353.154101 
L 411.98948 148.41654 
L 873.985855 115.178348 
L 1181.495364 284.054546 
L 1051.283448 499.497474 
L 603.283731 563.07157 
L 250.134744 416.219678 
L 317.108602 194.204332 
L 742.517576 101.514204 
L 1134.531057 223.524736 
L 1132.079535 447.853544 
L 737.421996 567.881254 
L 314.064479 473.052584 
L 251.947114 250.713601 
L 608.282547 105.651198 
L 1054.862407 171.478969 
L 1180.356572 387.563003 
L 869.178659 554.877011 
L 407.943574 519.312809 
L 221.480494 313.628858 
L 481.531838 127.273127 
L 948.57387 131.891692 
L 1192.428456 323.229946 
L 988.491884 525.052308 
L 524.602555 551.467737 
L 228.034782 378.1456 
L 371.944862 164.728354 
L 823.782432 107.785951 
L 1167.373905 259.767154 
L 1086.250475 480.685153 
L 655.132416 567.061873 
L 271.108822 439.337059 
L 287.889903 215.156248 
L 690.018287 101.002525 
L 1107.106755 202.020823 
L 1154.989449 425.163978 
L 789.564734 564.904523 
L 347.412876 492.530522 
L 235.785418 274.705546 
L 557.496644 112.059203 
L 1016.229675 154.40065 
L 1189.460078 362.728937 
L 917.633481 545.160699 
L 451.119506 533.663893 
L 219.609753 338.82865 
L 436.337606 140.111316 
L 901.683057 120.543144 
L 1187.0306 298.147831 
L 1029.558574 509.33856 
L 574.30869 559.59605 
L 240.597638 402.628899 
L 335.793489 183.016168 
L 772.214535 103.033793 
L 1147.887085 236.352322 
L 1116.79307 460.174127 
L 707.572809 568.34673 
L 297.14572 461.234253 
L 263.541941 237.496991 
L 637.71139 103.209598 
L 1075.019297 182.061319 
L 1172.675759 401.422097 
L 840.734673 559.247898 
L 384.935315 510.169454 
L 225.099984 299.393119 
L 508.445282 121.056828 
L 973.992093 139.420661 
L 1192.939718 337.569269 
L 963.625306 532.99472 
L 497.261954 545.697577 
L 223.4026 363.977775 
L 394.287573 155.212224 
L 852.520967 111.68661 
L 1176.03808 273.491675 
L 1066.860191 491.592443 
L 625.547288 565.105545 
L 258.578912 426.319115 
L 303.955823 203.067022 
L 719.882386 100.977013 
L 1123.262031 214.082485 
L 1142.55608 438.20321 
L 759.994584 566.91136 
L 327.942111 481.656508 
L 244.34775 260.96648 
L 586.205621 108.109556 
L 1038.642395 163.87841 
L 1184.932982 376.904263 
L 890.336368 550.977388 
L 426.19486 525.764212 
L 220.014808 324.488973 
L 461.699195 132.539187 
L 928.641432 126.713209 
L 1190.755356 312.37681 
L 1006.619054 518.520826 
L 545.83373 555.273953 
L 232.814534 388.783572 
L 355.870897 172.399957 
L 801.659881 105.425009 
L 1159.579177 249.548385 
L 1099.962878 472.020621 
L 677.721948 567.932265 
L 281.769004 448.940604 
L 276.802098 224.647453 
L 667.395064 101.639378 
L 1093.785646 193.216738 
L 1163.239997 415.028185 
L 811.78767 562.772644 
L 363.1393 500.366246 
L 230.530369 285.291517 
L 536.100337 115.645197 
L 998.399661 147.683597 
L 1191.618825 351.895847 
L 937.792669 540.189419 
L 470.711111 539.133433 
L 220.588705 349.701037 
L 417.802253 146.372482 
L 880.705667 116.426045 
L 1182.932778 287.444731 
L 1046.114573 501.907615 
L 596.269415 562.281725 
L 247.735665 412.957388 
L 321.534419 191.474348 
L 749.691819 101.831053 
L 1137.845778 226.59655 
L 1128.481675 450.850985 
L 730.225411 568.043483 
L 309.897711 470.230178 
L 254.648013 247.506215 
L 615.363415 105.013004 
L 1059.801268 173.99782 
L 1178.604439 390.918827 
L 862.349353 555.978924 
L 402.327394 517.145832 
L 222.250251 310.18897 
L 487.978559 125.728646 
L 954.759671 133.665231 
L 1192.655839 326.687907 
L 982.551425 527.009712 
L 517.965796 550.12166 
L 226.814634 374.735907 
L 377.265131 162.395566 
L 830.742823 108.678741 
L 1169.563381 263.063162 
L 1081.652454 483.348574 
L 647.981937 566.639495 
L 267.992001 436.217945 
L 291.677468 212.213291 
L 697.221654 100.946399 
L 1111.091138 204.90321 
L 1152.084995 428.330004 
L 782.44663 565.438078 
L 342.637372 489.94016 
L 237.751059 271.377202 
L 564.392945 111.058453 
L 1021.704675 156.649293 
L 1188.470947 366.155768 
L 911.091286 546.609442 
L 445.050074 531.800106 
L 219.603398 335.369062 
L 442.400184 138.242382 
L 908.230507 121.986327 
L 1188.032319 301.573808 
L 1024.091922 511.591815 
L 567.408805 558.601158 
L 238.619781 399.302258 
L 340.559368 180.421816 
L 779.334485 103.561305 
L 1150.80311 239.515805 
L 1112.81938 463.059817 
L 700.369395 568.296713 
L 293.34747 458.294607 
L 266.647214 234.375324 
L 644.860058 102.781168 
L 1079.626932 184.720745 
L 1170.498472 404.719851 
L 833.777882 560.146547 
L 379.606686 507.841267 
L 226.307533 295.982552 
L 515.076768 119.705192 
L 979.939481 141.372941 
L 1192.725054 341.027223 
L 957.446343 534.77341 
L 490.809926 544.158654 
L 222.620252 360.538749 
L 399.895473 153.040609 
L 859.353849 112.782658 
L 1177.802432 276.845802 
L 1061.930937 494.115309 
L 618.464591 564.473398 
L 255.866409 423.114234 
L 308.111882 200.241314 
L 727.079024 101.13313 
L 1126.870629 217.076634 
L 1139.252927 441.277571 
L 752.822073 567.234265 
L 323.506672 478.930528 
L 246.734633 257.702442 
L 593.216391 107.313832 
L 1043.819626 166.283939 
L 1183.508156 380.295358 
L 883.621841 552.230652 
L 420.375153 523.725283 
L 220.450255 321.035882 
L 467.988707 130.852418 
L 934.991964 128.346422 
L 1191.317616 315.825647 
L 1000.875211 520.608741 
L 539.07422 554.077788 
L 231.265343 385.405127 
L 360.958882 169.950954 
L 808.698667 106.161186 
L 1162.085584 252.791631 
L 1095.62836 474.78372 
L 670.538876 567.670199 
L 278.353466 445.894775 
L 280.300008 221.623282 
L 674.584631 101.422305 
L 1098.044777 196.006716 
L 1160.64578 418.255429 
L 804.729536 563.46469 
L 358.118314 497.885643 
L 232.171128 281.923102 
L 542.891624 114.491461 
L 1004.086204 149.807247 
L 1190.962997 355.340813 
L 931.398524 541.782695 
L 464.468083 537.407473 
L 220.247028 346.245611 
L 423.676617 144.370231 
L 887.385411 117.7212 
L 1184.265379 290.844323 
L 1040.872668 504.280439 
L 589.281112 561.44222 
L 245.437706 409.678837 
L 326.043306 188.776476 
L 756.854592 102.198809 
L 1141.065027 229.691179 
L 1124.792303 453.822143 
L 723.025565 568.154526 
L 305.818929 467.378838 
L 257.447104 244.318782 
L 622.462241 104.42529 
L 1064.661326 176.551168 
L 1176.749307 394.261388 
L 855.487731 557.032034 
L 396.77932 514.939461 
L 223.125835 306.755383 
L 494.471335 124.230348 
L 960.889318 135.482305 
L 1192.776597 330.146651 
L 976.552058 528.924439 
L 511.372127 548.728739 
L 225.699856 371.318359 
L 382.656007 160.101153 
L 837.674022 109.620785 
L 1171.650775 266.373948 
L 1076.973461 485.978673 
L 640.846186 566.1664 
L 264.972059 433.077435 
L 295.554819 209.297963 
L 704.425046 100.941475 
L 1114.985724 207.813217 
L 1149.083666 431.47463 
L 775.3138 565.920915 
L 337.942852 487.316481 
L 239.818797 268.063612 
L 571.31842 110.10696 
L 1027.109064 158.936308 
L 1187.376446 369.574743 
L 904.506021 548.011338 
L 439.039513 529.893631 
L 219.703664 331.910265 
L 448.518905 136.416982 
L 914.731906 123.475693 
L 1188.928211 305.006078 
L 1018.557132 513.805689 
L 560.541249 557.557469 
L 236.74492 395.962358 
L 345.404052 177.861958 
L 786.436459 104.139294 
L 1153.620959 242.699258 
L 1108.757717 465.916567 
L 693.169252 568.195513 
L 289.640721 455.328674 
L 269.847944 231.27648 
L 652.020228 102.403643 
L 1084.151493 187.412275 
L 1168.220075 408.001339 
L 826.795065 560.995541 
L 374.351098 505.475772 
L 227.619895 292.581378 
L 521.748307 118.401015 
L 985.825272 143.367021 
L 1192.403881 344.482826 
L 951.214054 536.507755 
L 484.406859 542.574246 
L 221.94408 357.094994 
L 405.568951 150.909372 
L 866.151327 113.927002 
L 1179.462986 280.211657 
L 1056.925112 496.602545 
L 611.403088 563.791066 
L 253.25333 419.890847 
L 312.354027 197.445811 
L 734.269111 101.340359 
L 1130.386095 220.095714 
L 1135.855824 444.327714 
L 745.641338 567.506116 
L 319.156285 476.173677 
L 249.221535 254.456157 
L 600.250009 106.568121 
L 1048.92147 168.725681 
L 1181.979163 383.67551 
L 876.870287 553.435903 
L 414.619691 521.645485 
L 220.992013 317.58671 
L 474.328683 129.210756 
L 941.290631 130.024376 
L 1191.773468 319.277663 
L 995.068407 522.65533 
L 532.35319 552.83387 
L 229.820647 382.016488 
L 366.121116 167.538702 
L 815.713102 106.947207 
L 1164.49143 256.051906 
L 1091.209726 477.515352 
L 663.365617 567.357145 
L 275.032623 442.825407 
L 283.890278 218.624683 
L 681.77915 101.256383 
L 1102.216907 198.826295 
L 1157.952731 421.463457 
L 797.651777 564.106405 
L 353.174956 495.369948 
L 233.915302 278.567163 
L 549.716839 113.386268 
L 1009.705929 151.9708 
L 1190.201157 358.780287 
L 924.956799 543.330154 
L 458.279758 535.63756 
L 220.011924 342.788585 
L 429.611271 142.410209 
L 894.023627 119.063518 
L 1185.492905 294.252577 
L 1035.558901 506.615434 
L 582.320359 560.55325 
L 243.241336 406.384742 
L 330.634252 186.111301 
L 764.004331 102.61738 
L 1144.188124 232.807939 
L 1121.012249 456.766368 
L 715.824025 568.214373 
L 301.829008 464.499199 
L 260.343754 241.151999 
L 629.577464 103.888171 
L 1069.441525 179.138443 
L 1174.791613 397.589966 
L 848.595311 558.036123 
L 391.300558 512.694187 
L 224.107029 303.32885 
L 501.008727 122.778557 
L 966.961507 137.342505 
L 1192.790729 333.605418 
L 970.495114 530.796075 
L 504.82298 547.289293 
L 224.690671 367.89371 
L 388.116303 157.845595 
L 844.574513 110.611864 
L 1173.635644 269.698778 
L 1072.214541 488.574882 
L 633.726733 565.642703 
L 262.04961 429.91621 
L 299.521083 206.410896 
L 711.626871 100.987745 
L 1118.789685 210.750199 
L 1145.986145 434.597169 
L 768.167784 566.352949 
L 333.330327 484.660073 
L 241.988156 264.765509 
L 578.271546 109.204917 
L 1032.441667 161.261181 
L 1186.17685 372.98513 
L 897.879141 549.366091 
L 433.089142 527.944895 
L 219.910504 328.453017 
L 454.692409 134.63551 
L 921.185869 125.010907 
L 1189.718105 308.443886 
L 1012.955439 515.979698 
L 553.707519 556.465222 
L 234.973446 392.609939 
L 350.32647 175.337132 
L 793.518903 104.76762 
L 1156.340025 245.901975 
L 1104.608992 468.743762 
L 685.973964 568.043163 
L 286.026245 452.337102 
L 273.143406 228.201133 
L 659.190317 102.077096 
L 1088.592013 190.135311 
L 1165.841093 411.265842 
L 819.787739 561.794712 
L 369.169683 503.073496 
L 229.036762 289.190346 
L 528.45843 117.144567 
L 991.648186 145.402451 
L 1191.976299 347.935328 
L 944.92982 538.197386 
L 478.054157 540.944711 
L 221.374201 353.647263 
L 411.306744 148.818972 
L 872.911929 115.11938 
L 1181.019404 283.588501 
L 1051.843835 499.053606 
L 604.36431 563.058712 
L 250.740226 416.649667 
L 316.68131 194.681119 
L 741.451074 101.59864 
L 1133.807671 223.139052 
L 1132.365538 447.352984 
L 738.453958 567.726864 
L 314.891888 473.386566 
L 251.807884 251.228331 
L 607.304919 105.87258 
L 1053.946846 171.203095 
L 1180.346363 387.043979 
L 870.083198 554.592887 
L 408.929719 519.525284 
L 221.639942 314.142218 
L 480.717736 127.614542 
L 947.536062 131.746691 
L 1192.122831 322.732096 
L 989.199933 524.660153 
L 525.672114 551.542483 
L 228.480718 378.61839 
L 371.356449 165.163722 
L 822.70164 107.782892 
L 1166.796215 259.328491 
L 1086.707969 480.214924 
L 656.203708 566.993188 
L 271.807179 439.733178 
L 287.572101 215.652315 
L 688.977043 101.141635 
L 1106.301133 201.674846 
L 1155.161466 424.651588 
L 790.55595 564.69766 
L 348.310307 492.819722 
L 235.762483 275.22443 
L 556.574471 112.32985 
L 1015.257652 154.173774 
L 1189.333496 362.213516 
L 918.468924 544.831463 
L 452.147475 533.824094 
L 219.883421 339.330721 
L 435.604918 140.492825 
L 900.618868 120.452692 
L 1186.615101 297.66874 
L 1030.174456 508.912099 
L 575.388682 559.615021 
L 241.146994 403.075821 
L 335.306228 183.479398 
L 771.139459 103.086665 
L 1147.214411 235.946142 
L 1117.142366 459.683017 
L 708.622346 568.22303 
L 297.928803 461.591898 
L 263.337306 238.00656 
L 636.707523 103.401751 
L 1074.140832 181.759068 
L 1172.731812 400.903844 
L 841.673611 558.990981 
L 385.892307 510.410514 
L 225.193587 299.910115 
L 507.589286 121.373579 
L 972.974933 139.245415 
L 1192.698259 337.063449 
L 964.381942 532.624214 
L 498.31977 545.803648 
L 223.787278 364.462716 
L 393.64481 155.629376 
L 851.44279 111.651748 
L 1175.517567 273.036917 
L 1067.376755 491.136647 
L 626.625139 565.068531 
L 259.225272 426.734969 
L 303.575366 203.552715 
L 718.825539 101.08519 
L 1122.502224 213.713511 
L 1142.793135 437.696939 
L 761.010154 566.734096 
L 328.800787 481.971524 
L 244.258641 261.483617 
L 585.250807 108.352504 
L 1037.701328 163.623394 
L 1184.872441 376.386181 
L 891.21211 550.673418 
L 427.200261 525.954336 
L 220.223834 324.998064 
L 460.919327 132.898346 
L 927.590984 126.591622 
L 1190.401856 311.886476 
L 1007.288091 518.113371 
L 546.909074 555.324671 
L 233.305721 389.24574 
L 355.325523 172.84789 
L 800.58027 105.446132 
L 1158.95973 249.123246 
L 1100.374132 471.540803 
L 678.785111 567.83971 
L 282.504825 449.320558 
L 276.532852 225.149951 
L 666.368744 101.801589 
L 1092.947568 192.889256 
L 1163.362074 414.512648 
L 812.757458 562.543891 
L 364.063558 500.634975 
L 230.557798 285.810201 
L 535.205681 115.936101 
L 997.40696 147.478776 
L 1191.44242 351.383965 
L 938.595032 539.841944 
L 471.753208 539.270418 
L 220.910699 350.196299 
L 417.107576 146.769859 
L 879.634166 116.359522 
L 1182.471373 286.97559 
L 1046.688241 501.467963 
L 597.349766 562.276511 
L 248.327623 413.391409 
L 321.092762 191.947842 
L 748.623342 101.907903 
L 1137.134627 226.205975 
L 1128.782854 450.352735 
L 731.261513 567.896474 
L 310.71441 470.569815 
L 254.493088 248.019665 
L 614.379564 105.22735 
L 1058.894689 173.715634 
L 1178.610142 390.400029 
L 863.26208 555.701356 
L 403.306461 517.365155 
L 222.393875 310.703162 
L 487.154462 126.064111 
L 953.726902 133.512979 
L 1192.365647 326.188183 
L 983.271085 526.622787 
L 983.271085 526.622787 
" style="fill:none;stroke:#0000ff;stroke-linecap:square;stroke-width:1.5;"/>
   </g>
   <g id="patch_3">
    <path d="M 172.8 594.6624 
L 172.8 80.1792 
" style="fill:none;stroke:#000000;stroke-linecap:square;stroke-linejoin:miter;stroke-width:0.8;"/>
   </g>
   <g id="patch_4">
    <path d="M 1244.16 594.6624 
L 1244.16 80.1792 
" style="fill:none;stroke:#000000;stroke-linecap:square;stroke-linejoin:miter;stroke-width:0.8;"/>
   </g>
   <g id="patch_5">
    <path d="M 172.8 594.6624 
L 1244.16 594.6624 
" style="fill:none;stroke:#000000;stroke-linecap:square;stroke-linejoin:miter;stroke-width:0.8;"/>
   </g>
   <g id="patch_6">
    <path d="M 172.8 80.1792 
L 1244.16 80.1792 
" style="fill:none;stroke:#000000;stroke-linecap:square;stroke-linejoin:miter;stroke-width:0.8;"/>
   </g>
   <g id="text_21">
    <!-- $\theta_0$ = 0.01$^{\circ}$, q = 0$kg s^{-1}$ and F = 0$N$ -->
    <defs>
     <path d="M 45.515625 34.671875 
L 14.453125 34.671875 
Q 12.359375 20.0625 14.5 13.875 
Q 17.1875 6.25 24.46875 6.25 
Q 31.78125 6.25 37.359375 13.921875 
Q 42.234375 20.65625 45.515625 34.671875 
M 47.015625 42.96875 
Q 48.34375 56.84375 46.625 61.71875 
Q 43.953125 69.4375 36.765625 69.4375 
Q 29.296875 69.4375 23.828125 61.8125 
Q 19.53125 55.671875 16.15625 42.96875 
z
M 38.1875 76.765625 
Q 49.90625 76.765625 54.59375 66.40625 
Q 59.28125 56.109375 55.71875 37.84375 
Q 52.203125 19.625 43.453125 9.28125 
Q 34.765625 -1.125 23.046875 -1.125 
Q 11.28125 -1.125 6.640625 9.28125 
Q 2 19.625 5.515625 37.84375 
Q 9.078125 56.109375 17.71875 66.40625 
Q 26.421875 76.765625 38.1875 76.765625 
" id="DejaVuSans-Oblique-3b8"/>
     <path id="DejaVuSans-20"/>
     <path d="M 10.59375 45.40625 
L 73.1875 45.40625 
L 73.1875 37.203125 
L 10.59375 37.203125 
z
M 10.59375 25.484375 
L 73.1875 25.484375 
L 73.1875 17.1875 
L 10.59375 17.1875 
z
" id="DejaVuSans-3d"/>
     <path d="M 31.25 40.921875 
Q 27.34375 40.921875 24.65625 38.203125 
Q 21.96875 35.5 21.96875 31.59375 
Q 21.96875 27.734375 24.65625 25.078125 
Q 27.34375 22.421875 31.25 22.421875 
Q 35.15625 22.421875 37.84375 25.078125 
Q 40.53125 27.734375 40.53125 31.59375 
Q 40.53125 35.453125 37.8125 38.1875 
Q 35.109375 40.921875 31.25 40.921875 
M 31.25 47.21875 
Q 34.375 47.21875 37.25 46.015625 
Q 40.140625 44.828125 42.234375 42.578125 
Q 44.484375 40.390625 45.609375 37.59375 
Q 46.734375 34.8125 46.734375 31.59375 
Q 46.734375 25.15625 42.21875 20.6875 
Q 37.703125 16.21875 31.15625 16.21875 
Q 24.5625 16.21875 20.15625 20.609375 
Q 15.765625 25 15.765625 31.59375 
Q 15.765625 38.140625 20.25 42.671875 
Q 24.75 47.21875 31.25 47.21875 
" id="DejaVuSans-2218"/>
     <path d="M 11.71875 12.40625 
L 22.015625 12.40625 
L 22.015625 4 
L 14.015625 -11.625 
L 7.71875 -11.625 
L 11.71875 4 
z
" id="DejaVuSans-2c"/>
     <path d="M 14.796875 27.296875 
Q 14.796875 17.390625 18.875 11.75 
Q 22.953125 6.109375 30.078125 6.109375 
Q 37.203125 6.109375 41.296875 11.75 
Q 45.40625 17.390625 45.40625 27.296875 
Q 45.40625 37.203125 41.296875 42.84375 
Q 37.203125 48.484375 30.078125 48.484375 
Q 22.953125 48.484375 18.875 42.84375 
Q 14.796875 37.203125 14.796875 27.296875 
M 45.40625 8.203125 
Q 42.578125 3.328125 38.25 0.953125 
Q 33.9375 -1.421875 27.875 -1.421875 
Q 17.96875 -1.421875 11.734375 6.484375 
Q 5.515625 14.40625 5.515625 27.296875 
Q 5.515625 40.1875 11.734375 48.09375 
Q 17.96875 56 27.875 56 
Q 33.9375 56 38.25 53.625 
Q 42.578125 51.265625 45.40625 46.390625 
L 45.40625 54.6875 
L 54.390625 54.6875 
L 54.390625 -20.796875 
L 45.40625 -20.796875 
z
" id="DejaVuSans-71"/>
     <path d="M 18.3125 75.984375 
L 27.296875 75.984375 
L 18.703125 31.6875 
L 49.515625 54.6875 
L 61.1875 54.6875 
L 26.8125 28.515625 
L 51.90625 0 
L 41.015625 0 
L 17.671875 26.703125 
L 12.5 0 
L 3.515625 0 
z
" id="DejaVuSans-Oblique-6b"/>
     <path d="M 59.625 54.6875 
L 50.296875 6.78125 
Q 47.609375 -7.125 40.015625 -13.953125 
Q 32.421875 -20.796875 19.578125 -20.796875 
Q 14.84375 -20.796875 10.78125 -20.09375 
Q 6.734375 -19.390625 3.21875 -17.921875 
L 4.890625 -9.1875 
Q 8.203125 -11.328125 11.90625 -12.34375 
Q 15.625 -13.375 19.828125 -13.375 
Q 28.375 -13.375 33.859375 -8.703125 
Q 39.359375 -4.046875 41.109375 4.6875 
L 41.890625 8.796875 
Q 38.140625 4.5 33.15625 2.25 
Q 28.171875 0 22.40625 0 
Q 14.109375 0 9.34375 5.484375 
Q 4.59375 10.984375 4.59375 20.609375 
Q 4.59375 28.171875 7.46875 35.421875 
Q 10.359375 42.671875 15.578125 48.296875 
Q 19.046875 52 23.65625 54 
Q 28.265625 56 33.296875 56 
Q 38.8125 56 42.90625 53.4375 
Q 47.015625 50.875 49.03125 46.1875 
L 50.59375 54.6875 
z
M 46.09375 34.625 
Q 46.09375 41.265625 42.96875 44.875 
Q 39.84375 48.484375 34.078125 48.484375 
Q 30.515625 48.484375 27.296875 47.0625 
Q 24.078125 45.65625 21.78125 43.109375 
Q 18.0625 38.921875 15.984375 33.234375 
Q 13.921875 27.546875 13.921875 21.484375 
Q 13.921875 14.75 17.0625 11.125 
Q 20.21875 7.515625 26.125 7.515625 
Q 34.671875 7.515625 40.375 15.25 
Q 46.09375 23 46.09375 34.625 
" id="DejaVuSans-Oblique-67"/>
     <path d="M 50 53.078125 
L 48.296875 44.578125 
Q 44.734375 46.53125 40.765625 47.5 
Q 36.8125 48.484375 32.625 48.484375 
Q 25.53125 48.484375 21.453125 46.0625 
Q 17.390625 43.65625 17.390625 39.5 
Q 17.390625 34.671875 26.859375 32.078125 
Q 27.59375 31.890625 27.9375 31.78125 
L 30.8125 30.90625 
Q 39.796875 28.421875 42.796875 25.6875 
Q 45.796875 22.953125 45.796875 18.21875 
Q 45.796875 9.515625 38.890625 4.046875 
Q 31.984375 -1.421875 20.796875 -1.421875 
Q 16.453125 -1.421875 11.671875 -0.578125 
Q 6.890625 0.25 1.125 2 
L 2.875 11.28125 
Q 7.8125 8.734375 12.59375 7.421875 
Q 17.390625 6.109375 21.78125 6.109375 
Q 28.375 6.109375 32.5 8.9375 
Q 36.625 11.765625 36.625 16.109375 
Q 36.625 20.796875 25.78125 23.6875 
L 24.859375 23.921875 
L 21.78125 24.703125 
Q 14.9375 26.515625 11.765625 29.46875 
Q 8.59375 32.421875 8.59375 37.015625 
Q 8.59375 45.75 15.15625 50.875 
Q 21.734375 56 33.015625 56 
Q 37.453125 56 41.671875 55.265625 
Q 45.90625 54.546875 50 53.078125 
" id="DejaVuSans-Oblique-73"/>
     <path d="M 54.890625 33.015625 
L 54.890625 0 
L 45.90625 0 
L 45.90625 32.71875 
Q 45.90625 40.484375 42.875 44.328125 
Q 39.84375 48.1875 33.796875 48.1875 
Q 26.515625 48.1875 22.3125 43.546875 
Q 18.109375 38.921875 18.109375 30.90625 
L 18.109375 0 
L 9.078125 0 
L 9.078125 54.6875 
L 18.109375 54.6875 
L 18.109375 46.1875 
Q 21.34375 51.125 25.703125 53.5625 
Q 30.078125 56 35.796875 56 
Q 45.21875 56 50.046875 50.171875 
Q 54.890625 44.34375 54.890625 33.015625 
" id="DejaVuSans-6e"/>
     <path d="M 45.40625 46.390625 
L 45.40625 75.984375 
L 54.390625 75.984375 
L 54.390625 0 
L 45.40625 0 
L 45.40625 8.203125 
Q 42.578125 3.328125 38.25 0.953125 
Q 33.9375 -1.421875 27.875 -1.421875 
Q 17.96875 -1.421875 11.734375 6.484375 
Q 5.515625 14.40625 5.515625 27.296875 
Q 5.515625 40.1875 11.734375 48.09375 
Q 17.96875 56 27.875 56 
Q 33.9375 56 38.25 53.625 
Q 42.578125 51.265625 45.40625 46.390625 
M 14.796875 27.296875 
Q 14.796875 17.390625 18.875 11.75 
Q 22.953125 6.109375 30.078125 6.109375 
Q 37.203125 6.109375 41.296875 11.75 
Q 45.40625 17.390625 45.40625 27.296875 
Q 45.40625 37.203125 41.296875 42.84375 
Q 37.203125 48.484375 30.078125 48.484375 
Q 22.953125 48.484375 18.875 42.84375 
Q 14.796875 37.203125 14.796875 27.296875 
" id="DejaVuSans-64"/>
     <path d="M 9.8125 72.90625 
L 51.703125 72.90625 
L 51.703125 64.59375 
L 19.671875 64.59375 
L 19.671875 43.109375 
L 48.578125 43.109375 
L 48.578125 34.8125 
L 19.671875 34.8125 
L 19.671875 0 
L 9.8125 0 
z
" id="DejaVuSans-46"/>
     <path d="M 16.890625 72.90625 
L 30.171875 72.90625 
L 50.296875 10.40625 
L 62.5 72.90625 
L 72.125 72.90625 
L 57.90625 0 
L 44.578125 0 
L 24.515625 62.890625 
L 12.3125 0 
L 2.6875 0 
z
" id="DejaVuSans-Oblique-4e"/>
    </defs>
    <g transform="translate(603.84 74.1792)scale(0.12 -0.12)">
     <use transform="translate(0 0.684375)" xlink:href="#DejaVuSans-Oblique-3b8"/>
     <use transform="translate(61.181641 -15.721875)scale(0.7)" xlink:href="#DejaVuSans-30"/>
     <use transform="translate(108.452148 0.684375)" xlink:href="#DejaVuSans-20"/>
     <use transform="translate(140.239258 0.684375)" xlink:href="#DejaVuSans-3d"/>
     <use transform="translate(224.02832 0.684375)" xlink:href="#DejaVuSans-20"/>
     <use transform="translate(255.81543 0.684375)" xlink:href="#DejaVuSans-30"/>
     <use transform="translate(319.438477 0.684375)" xlink:href="#DejaVuSans-2e"/>
     <use transform="translate(351.225586 0.684375)" xlink:href="#DejaVuSans-30"/>
     <use transform="translate(414.848633 0.684375)" xlink:href="#DejaVuSans-31"/>
     <use transform="translate(479.428711 38.965625)scale(0.7)" xlink:href="#DejaVuSans-2218"/>
     <use transform="translate(525.981445 0.684375)" xlink:href="#DejaVuSans-2c"/>
     <use transform="translate(557.768555 0.684375)" xlink:href="#DejaVuSans-20"/>
     <use transform="translate(589.555664 0.684375)" xlink:href="#DejaVuSans-71"/>
     <use transform="translate(653.032227 0.684375)" xlink:href="#DejaVuSans-20"/>
     <use transform="translate(684.819336 0.684375)" xlink:href="#DejaVuSans-3d"/>
     <use transform="translate(768.608398 0.684375)" xlink:href="#DejaVuSans-20"/>
     <use transform="translate(800.395508 0.684375)" xlink:href="#DejaVuSans-30"/>
     <use transform="translate(864.018555 0.684375)" xlink:href="#DejaVuSans-Oblique-6b"/>
     <use transform="translate(921.928711 0.684375)" xlink:href="#DejaVuSans-Oblique-67"/>
     <use transform="translate(985.405273 0.684375)" xlink:href="#DejaVuSans-Oblique-73"/>
     <use transform="translate(1042.154779 38.965625)scale(0.7)" xlink:href="#DejaVuSans-2212"/>
     <use transform="translate(1100.807122 38.965625)scale(0.7)" xlink:href="#DejaVuSans-31"/>
     <use transform="translate(1148.07763 0.684375)" xlink:href="#DejaVuSans-20"/>
     <use transform="translate(1179.86474 0.684375)" xlink:href="#DejaVuSans-61"/>
     <use transform="translate(1241.144036 0.684375)" xlink:href="#DejaVuSans-6e"/>
     <use transform="translate(1304.522943 0.684375)" xlink:href="#DejaVuSans-64"/>
     <use transform="translate(1367.999505 0.684375)" xlink:href="#DejaVuSans-20"/>
     <use transform="translate(1399.786615 0.684375)" xlink:href="#DejaVuSans-46"/>
     <use transform="translate(1457.306146 0.684375)" xlink:href="#DejaVuSans-20"/>
     <use transform="translate(1489.093255 0.684375)" xlink:href="#DejaVuSans-3d"/>
     <use transform="translate(1572.882318 0.684375)" xlink:href="#DejaVuSans-20"/>
     <use transform="translate(1604.669427 0.684375)" xlink:href="#DejaVuSans-30"/>
     <use transform="translate(1668.292474 0.684375)" xlink:href="#DejaVuSans-Oblique-4e"/>
    </g>
   </g>
  </g>
 </g>
 <defs>
  <clipPath id="p6fe45bd357">
   <rect height="514.4832" width="1071.36" x="172.8" y="80.1792"/>
  </clipPath>
 </defs>
</svg>
