<?xml version="1.0" encoding="utf-8" standalone="no"?>
<!DOCTYPE svg PUBLIC "-//W3C//DTD SVG 1.1//EN"
  "http://www.w3.org/Graphics/SVG/1.1/DTD/svg11.dtd">
<!-- Created with matplotlib (http://matplotlib.org/) -->
<svg height="342pt" version="1.1" viewBox="0 0 460 342" width="460pt" xmlns="http://www.w3.org/2000/svg" xmlns:xlink="http://www.w3.org/1999/xlink">
 <defs>
  <style type="text/css">
*{stroke-linecap:butt;stroke-linejoin:round;}
  </style>
 </defs>
 <g id="figure_1">
  <g id="patch_1">
   <path d="M 0 342.72 
L 460.8 342.72 
L 460.8 0 
L 0 0 
z
" style="fill:#ffffff;"/>
  </g>
  <g id="axes_1">
   <g id="patch_2">
    <path d="M 57.6 305.0208 
L 414.72 305.0208 
L 414.72 41.1264 
L 57.6 41.1264 
z
" style="fill:#ffffff;"/>
   </g>
   <g id="matplotlib.axis_1">
    <g id="xtick_1">
     <g id="line2d_1">
      <path clip-path="url(#p3e832b984e)" d="M 91.976255 305.0208 
L 91.976255 41.1264 
" style="fill:none;stroke:#b0b0b0;stroke-linecap:square;stroke-width:0.8;"/>
     </g>
     <g id="line2d_2">
      <defs>
       <path d="M 0 0 
L 0 3.5 
" id="m79bc370fe0" style="stroke:#000000;stroke-width:0.8;"/>
      </defs>
      <g>
       <use style="stroke:#000000;stroke-width:0.8;" x="91.976255" xlink:href="#m79bc370fe0" y="305.0208"/>
      </g>
     </g>
     <g id="text_1">
      <!-- −0.0075 -->
      <defs>
       <path d="M 10.59375 35.5 
L 73.1875 35.5 
L 73.1875 27.203125 
L 10.59375 27.203125 
z
" id="DejaVuSans-2212"/>
       <path d="M 31.78125 66.40625 
Q 24.171875 66.40625 20.328125 58.90625 
Q 16.5 51.421875 16.5 36.375 
Q 16.5 21.390625 20.328125 13.890625 
Q 24.171875 6.390625 31.78125 6.390625 
Q 39.453125 6.390625 43.28125 13.890625 
Q 47.125 21.390625 47.125 36.375 
Q 47.125 51.421875 43.28125 58.90625 
Q 39.453125 66.40625 31.78125 66.40625 
M 31.78125 74.21875 
Q 44.046875 74.21875 50.515625 64.515625 
Q 56.984375 54.828125 56.984375 36.375 
Q 56.984375 17.96875 50.515625 8.265625 
Q 44.046875 -1.421875 31.78125 -1.421875 
Q 19.53125 -1.421875 13.0625 8.265625 
Q 6.59375 17.96875 6.59375 36.375 
Q 6.59375 54.828125 13.0625 64.515625 
Q 19.53125 74.21875 31.78125 74.21875 
" id="DejaVuSans-30"/>
       <path d="M 10.6875 12.40625 
L 21 12.40625 
L 21 0 
L 10.6875 0 
z
" id="DejaVuSans-2e"/>
       <path d="M 8.203125 72.90625 
L 55.078125 72.90625 
L 55.078125 68.703125 
L 28.609375 0 
L 18.3125 0 
L 43.21875 64.59375 
L 8.203125 64.59375 
z
" id="DejaVuSans-37"/>
       <path d="M 10.796875 72.90625 
L 49.515625 72.90625 
L 49.515625 64.59375 
L 19.828125 64.59375 
L 19.828125 46.734375 
Q 21.96875 47.46875 24.109375 47.828125 
Q 26.265625 48.1875 28.421875 48.1875 
Q 40.625 48.1875 47.75 41.5 
Q 54.890625 34.8125 54.890625 23.390625 
Q 54.890625 11.625 47.5625 5.09375 
Q 40.234375 -1.421875 26.90625 -1.421875 
Q 22.3125 -1.421875 17.546875 -0.640625 
Q 12.796875 0.140625 7.71875 1.703125 
L 7.71875 11.625 
Q 12.109375 9.234375 16.796875 8.0625 
Q 21.484375 6.890625 26.703125 6.890625 
Q 35.15625 6.890625 40.078125 11.328125 
Q 45.015625 15.765625 45.015625 23.390625 
Q 45.015625 31 40.078125 35.4375 
Q 35.15625 39.890625 26.703125 39.890625 
Q 22.75 39.890625 18.8125 39.015625 
Q 14.890625 38.140625 10.796875 36.28125 
z
" id="DejaVuSans-35"/>
      </defs>
      <g transform="translate(70.291099 319.619237)scale(0.1 -0.1)">
       <use xlink:href="#DejaVuSans-2212"/>
       <use x="83.789062" xlink:href="#DejaVuSans-30"/>
       <use x="147.412109" xlink:href="#DejaVuSans-2e"/>
       <use x="179.199219" xlink:href="#DejaVuSans-30"/>
       <use x="242.822266" xlink:href="#DejaVuSans-30"/>
       <use x="306.445312" xlink:href="#DejaVuSans-37"/>
       <use x="370.068359" xlink:href="#DejaVuSans-35"/>
      </g>
     </g>
    </g>
    <g id="xtick_2">
     <g id="line2d_3">
      <path clip-path="url(#p3e832b984e)" d="M 135.763544 305.0208 
L 135.763544 41.1264 
" style="fill:none;stroke:#b0b0b0;stroke-linecap:square;stroke-width:0.8;"/>
     </g>
     <g id="line2d_4">
      <g>
       <use style="stroke:#000000;stroke-width:0.8;" x="135.763544" xlink:href="#m79bc370fe0" y="305.0208"/>
      </g>
     </g>
     <g id="text_2">
      <!-- −0.0050 -->
      <g transform="translate(114.078387 319.619237)scale(0.1 -0.1)">
       <use xlink:href="#DejaVuSans-2212"/>
       <use x="83.789062" xlink:href="#DejaVuSans-30"/>
       <use x="147.412109" xlink:href="#DejaVuSans-2e"/>
       <use x="179.199219" xlink:href="#DejaVuSans-30"/>
       <use x="242.822266" xlink:href="#DejaVuSans-30"/>
       <use x="306.445312" xlink:href="#DejaVuSans-35"/>
       <use x="370.068359" xlink:href="#DejaVuSans-30"/>
      </g>
     </g>
    </g>
    <g id="xtick_3">
     <g id="line2d_5">
      <path clip-path="url(#p3e832b984e)" d="M 179.550832 305.0208 
L 179.550832 41.1264 
" style="fill:none;stroke:#b0b0b0;stroke-linecap:square;stroke-width:0.8;"/>
     </g>
     <g id="line2d_6">
      <g>
       <use style="stroke:#000000;stroke-width:0.8;" x="179.550832" xlink:href="#m79bc370fe0" y="305.0208"/>
      </g>
     </g>
     <g id="text_3">
      <!-- −0.0025 -->
      <defs>
       <path d="M 19.1875 8.296875 
L 53.609375 8.296875 
L 53.609375 0 
L 7.328125 0 
L 7.328125 8.296875 
Q 12.9375 14.109375 22.625 23.890625 
Q 32.328125 33.6875 34.8125 36.53125 
Q 39.546875 41.84375 41.421875 45.53125 
Q 43.3125 49.21875 43.3125 52.78125 
Q 43.3125 58.59375 39.234375 62.25 
Q 35.15625 65.921875 28.609375 65.921875 
Q 23.96875 65.921875 18.8125 64.3125 
Q 13.671875 62.703125 7.8125 59.421875 
L 7.8125 69.390625 
Q 13.765625 71.78125 18.9375 73 
Q 24.125 74.21875 28.421875 74.21875 
Q 39.75 74.21875 46.484375 68.546875 
Q 53.21875 62.890625 53.21875 53.421875 
Q 53.21875 48.921875 51.53125 44.890625 
Q 49.859375 40.875 45.40625 35.40625 
Q 44.1875 33.984375 37.640625 27.21875 
Q 31.109375 20.453125 19.1875 8.296875 
" id="DejaVuSans-32"/>
      </defs>
      <g transform="translate(157.865676 319.619237)scale(0.1 -0.1)">
       <use xlink:href="#DejaVuSans-2212"/>
       <use x="83.789062" xlink:href="#DejaVuSans-30"/>
       <use x="147.412109" xlink:href="#DejaVuSans-2e"/>
       <use x="179.199219" xlink:href="#DejaVuSans-30"/>
       <use x="242.822266" xlink:href="#DejaVuSans-30"/>
       <use x="306.445312" xlink:href="#DejaVuSans-32"/>
       <use x="370.068359" xlink:href="#DejaVuSans-35"/>
      </g>
     </g>
    </g>
    <g id="xtick_4">
     <g id="line2d_7">
      <path clip-path="url(#p3e832b984e)" d="M 223.33812 305.0208 
L 223.33812 41.1264 
" style="fill:none;stroke:#b0b0b0;stroke-linecap:square;stroke-width:0.8;"/>
     </g>
     <g id="line2d_8">
      <g>
       <use style="stroke:#000000;stroke-width:0.8;" x="223.33812" xlink:href="#m79bc370fe0" y="305.0208"/>
      </g>
     </g>
     <g id="text_4">
      <!-- 0.0000 -->
      <g transform="translate(205.842807 319.619237)scale(0.1 -0.1)">
       <use xlink:href="#DejaVuSans-30"/>
       <use x="63.623047" xlink:href="#DejaVuSans-2e"/>
       <use x="95.410156" xlink:href="#DejaVuSans-30"/>
       <use x="159.033203" xlink:href="#DejaVuSans-30"/>
       <use x="222.65625" xlink:href="#DejaVuSans-30"/>
       <use x="286.279297" xlink:href="#DejaVuSans-30"/>
      </g>
     </g>
    </g>
    <g id="xtick_5">
     <g id="line2d_9">
      <path clip-path="url(#p3e832b984e)" d="M 267.125408 305.0208 
L 267.125408 41.1264 
" style="fill:none;stroke:#b0b0b0;stroke-linecap:square;stroke-width:0.8;"/>
     </g>
     <g id="line2d_10">
      <g>
       <use style="stroke:#000000;stroke-width:0.8;" x="267.125408" xlink:href="#m79bc370fe0" y="305.0208"/>
      </g>
     </g>
     <g id="text_5">
      <!-- 0.0025 -->
      <g transform="translate(249.630096 319.619237)scale(0.1 -0.1)">
       <use xlink:href="#DejaVuSans-30"/>
       <use x="63.623047" xlink:href="#DejaVuSans-2e"/>
       <use x="95.410156" xlink:href="#DejaVuSans-30"/>
       <use x="159.033203" xlink:href="#DejaVuSans-30"/>
       <use x="222.65625" xlink:href="#DejaVuSans-32"/>
       <use x="286.279297" xlink:href="#DejaVuSans-35"/>
      </g>
     </g>
    </g>
    <g id="xtick_6">
     <g id="line2d_11">
      <path clip-path="url(#p3e832b984e)" d="M 310.912696 305.0208 
L 310.912696 41.1264 
" style="fill:none;stroke:#b0b0b0;stroke-linecap:square;stroke-width:0.8;"/>
     </g>
     <g id="line2d_12">
      <g>
       <use style="stroke:#000000;stroke-width:0.8;" x="310.912696" xlink:href="#m79bc370fe0" y="305.0208"/>
      </g>
     </g>
     <g id="text_6">
      <!-- 0.0050 -->
      <g transform="translate(293.417384 319.619237)scale(0.1 -0.1)">
       <use xlink:href="#DejaVuSans-30"/>
       <use x="63.623047" xlink:href="#DejaVuSans-2e"/>
       <use x="95.410156" xlink:href="#DejaVuSans-30"/>
       <use x="159.033203" xlink:href="#DejaVuSans-30"/>
       <use x="222.65625" xlink:href="#DejaVuSans-35"/>
       <use x="286.279297" xlink:href="#DejaVuSans-30"/>
      </g>
     </g>
    </g>
    <g id="xtick_7">
     <g id="line2d_13">
      <path clip-path="url(#p3e832b984e)" d="M 354.699985 305.0208 
L 354.699985 41.1264 
" style="fill:none;stroke:#b0b0b0;stroke-linecap:square;stroke-width:0.8;"/>
     </g>
     <g id="line2d_14">
      <g>
       <use style="stroke:#000000;stroke-width:0.8;" x="354.699985" xlink:href="#m79bc370fe0" y="305.0208"/>
      </g>
     </g>
     <g id="text_7">
      <!-- 0.0075 -->
      <g transform="translate(337.204672 319.619237)scale(0.1 -0.1)">
       <use xlink:href="#DejaVuSans-30"/>
       <use x="63.623047" xlink:href="#DejaVuSans-2e"/>
       <use x="95.410156" xlink:href="#DejaVuSans-30"/>
       <use x="159.033203" xlink:href="#DejaVuSans-30"/>
       <use x="222.65625" xlink:href="#DejaVuSans-37"/>
       <use x="286.279297" xlink:href="#DejaVuSans-35"/>
      </g>
     </g>
    </g>
    <g id="xtick_8">
     <g id="line2d_15">
      <path clip-path="url(#p3e832b984e)" d="M 398.487273 305.0208 
L 398.487273 41.1264 
" style="fill:none;stroke:#b0b0b0;stroke-linecap:square;stroke-width:0.8;"/>
     </g>
     <g id="line2d_16">
      <g>
       <use style="stroke:#000000;stroke-width:0.8;" x="398.487273" xlink:href="#m79bc370fe0" y="305.0208"/>
      </g>
     </g>
     <g id="text_8">
      <!-- 0.0100 -->
      <defs>
       <path d="M 12.40625 8.296875 
L 28.515625 8.296875 
L 28.515625 63.921875 
L 10.984375 60.40625 
L 10.984375 69.390625 
L 28.421875 72.90625 
L 38.28125 72.90625 
L 38.28125 8.296875 
L 54.390625 8.296875 
L 54.390625 0 
L 12.40625 0 
z
" id="DejaVuSans-31"/>
      </defs>
      <g transform="translate(380.99196 319.619237)scale(0.1 -0.1)">
       <use xlink:href="#DejaVuSans-30"/>
       <use x="63.623047" xlink:href="#DejaVuSans-2e"/>
       <use x="95.410156" xlink:href="#DejaVuSans-30"/>
       <use x="159.033203" xlink:href="#DejaVuSans-31"/>
       <use x="222.65625" xlink:href="#DejaVuSans-30"/>
       <use x="286.279297" xlink:href="#DejaVuSans-30"/>
      </g>
     </g>
    </g>
    <g id="text_9">
     <!-- theta -->
     <defs>
      <path d="M 18.3125 70.21875 
L 18.3125 54.6875 
L 36.8125 54.6875 
L 36.8125 47.703125 
L 18.3125 47.703125 
L 18.3125 18.015625 
Q 18.3125 11.328125 20.140625 9.421875 
Q 21.96875 7.515625 27.59375 7.515625 
L 36.8125 7.515625 
L 36.8125 0 
L 27.59375 0 
Q 17.1875 0 13.234375 3.875 
Q 9.28125 7.765625 9.28125 18.015625 
L 9.28125 47.703125 
L 2.6875 47.703125 
L 2.6875 54.6875 
L 9.28125 54.6875 
L 9.28125 70.21875 
z
" id="DejaVuSans-74"/>
      <path d="M 54.890625 33.015625 
L 54.890625 0 
L 45.90625 0 
L 45.90625 32.71875 
Q 45.90625 40.484375 42.875 44.328125 
Q 39.84375 48.1875 33.796875 48.1875 
Q 26.515625 48.1875 22.3125 43.546875 
Q 18.109375 38.921875 18.109375 30.90625 
L 18.109375 0 
L 9.078125 0 
L 9.078125 75.984375 
L 18.109375 75.984375 
L 18.109375 46.1875 
Q 21.34375 51.125 25.703125 53.5625 
Q 30.078125 56 35.796875 56 
Q 45.21875 56 50.046875 50.171875 
Q 54.890625 44.34375 54.890625 33.015625 
" id="DejaVuSans-68"/>
      <path d="M 56.203125 29.59375 
L 56.203125 25.203125 
L 14.890625 25.203125 
Q 15.484375 15.921875 20.484375 11.0625 
Q 25.484375 6.203125 34.421875 6.203125 
Q 39.59375 6.203125 44.453125 7.46875 
Q 49.3125 8.734375 54.109375 11.28125 
L 54.109375 2.78125 
Q 49.265625 0.734375 44.1875 -0.34375 
Q 39.109375 -1.421875 33.890625 -1.421875 
Q 20.796875 -1.421875 13.15625 6.1875 
Q 5.515625 13.8125 5.515625 26.8125 
Q 5.515625 40.234375 12.765625 48.109375 
Q 20.015625 56 32.328125 56 
Q 43.359375 56 49.78125 48.890625 
Q 56.203125 41.796875 56.203125 29.59375 
M 47.21875 32.234375 
Q 47.125 39.59375 43.09375 43.984375 
Q 39.0625 48.390625 32.421875 48.390625 
Q 24.90625 48.390625 20.390625 44.140625 
Q 15.875 39.890625 15.1875 32.171875 
z
" id="DejaVuSans-65"/>
      <path d="M 34.28125 27.484375 
Q 23.390625 27.484375 19.1875 25 
Q 14.984375 22.515625 14.984375 16.5 
Q 14.984375 11.71875 18.140625 8.90625 
Q 21.296875 6.109375 26.703125 6.109375 
Q 34.1875 6.109375 38.703125 11.40625 
Q 43.21875 16.703125 43.21875 25.484375 
L 43.21875 27.484375 
z
M 52.203125 31.203125 
L 52.203125 0 
L 43.21875 0 
L 43.21875 8.296875 
Q 40.140625 3.328125 35.546875 0.953125 
Q 30.953125 -1.421875 24.3125 -1.421875 
Q 15.921875 -1.421875 10.953125 3.296875 
Q 6 8.015625 6 15.921875 
Q 6 25.140625 12.171875 29.828125 
Q 18.359375 34.515625 30.609375 34.515625 
L 43.21875 34.515625 
L 43.21875 35.40625 
Q 43.21875 41.609375 39.140625 45 
Q 35.0625 48.390625 27.6875 48.390625 
Q 23 48.390625 18.546875 47.265625 
Q 14.109375 46.140625 10.015625 43.890625 
L 10.015625 52.203125 
Q 14.9375 54.109375 19.578125 55.046875 
Q 24.21875 56 28.609375 56 
Q 40.484375 56 46.34375 49.84375 
Q 52.203125 43.703125 52.203125 31.203125 
" id="DejaVuSans-61"/>
     </defs>
     <g transform="translate(222.930312 333.297362)scale(0.1 -0.1)">
      <use xlink:href="#DejaVuSans-74"/>
      <use x="39.208984" xlink:href="#DejaVuSans-68"/>
      <use x="102.587891" xlink:href="#DejaVuSans-65"/>
      <use x="164.111328" xlink:href="#DejaVuSans-74"/>
      <use x="203.320312" xlink:href="#DejaVuSans-61"/>
     </g>
    </g>
   </g>
   <g id="matplotlib.axis_2">
    <g id="ytick_1">
     <g id="line2d_17">
      <path clip-path="url(#p3e832b984e)" d="M 57.6 303.296952 
L 414.72 303.296952 
" style="fill:none;stroke:#b0b0b0;stroke-linecap:square;stroke-width:0.8;"/>
     </g>
     <g id="line2d_18">
      <defs>
       <path d="M 0 0 
L -3.5 0 
" id="m4ad621607d" style="stroke:#000000;stroke-width:0.8;"/>
      </defs>
      <g>
       <use style="stroke:#000000;stroke-width:0.8;" x="57.6" xlink:href="#m4ad621607d" y="303.296952"/>
      </g>
     </g>
     <g id="text_10">
      <!-- −0.0100 -->
      <g transform="translate(7.229687 307.096171)scale(0.1 -0.1)">
       <use xlink:href="#DejaVuSans-2212"/>
       <use x="83.789062" xlink:href="#DejaVuSans-30"/>
       <use x="147.412109" xlink:href="#DejaVuSans-2e"/>
       <use x="179.199219" xlink:href="#DejaVuSans-30"/>
       <use x="242.822266" xlink:href="#DejaVuSans-31"/>
       <use x="306.445312" xlink:href="#DejaVuSans-30"/>
       <use x="370.068359" xlink:href="#DejaVuSans-30"/>
      </g>
     </g>
    </g>
    <g id="ytick_2">
     <g id="line2d_19">
      <path clip-path="url(#p3e832b984e)" d="M 57.6 268.383788 
L 414.72 268.383788 
" style="fill:none;stroke:#b0b0b0;stroke-linecap:square;stroke-width:0.8;"/>
     </g>
     <g id="line2d_20">
      <g>
       <use style="stroke:#000000;stroke-width:0.8;" x="57.6" xlink:href="#m4ad621607d" y="268.383788"/>
      </g>
     </g>
     <g id="text_11">
      <!-- −0.0075 -->
      <g transform="translate(7.229687 272.183006)scale(0.1 -0.1)">
       <use xlink:href="#DejaVuSans-2212"/>
       <use x="83.789062" xlink:href="#DejaVuSans-30"/>
       <use x="147.412109" xlink:href="#DejaVuSans-2e"/>
       <use x="179.199219" xlink:href="#DejaVuSans-30"/>
       <use x="242.822266" xlink:href="#DejaVuSans-30"/>
       <use x="306.445312" xlink:href="#DejaVuSans-37"/>
       <use x="370.068359" xlink:href="#DejaVuSans-35"/>
      </g>
     </g>
    </g>
    <g id="ytick_3">
     <g id="line2d_21">
      <path clip-path="url(#p3e832b984e)" d="M 57.6 233.470623 
L 414.72 233.470623 
" style="fill:none;stroke:#b0b0b0;stroke-linecap:square;stroke-width:0.8;"/>
     </g>
     <g id="line2d_22">
      <g>
       <use style="stroke:#000000;stroke-width:0.8;" x="57.6" xlink:href="#m4ad621607d" y="233.470623"/>
      </g>
     </g>
     <g id="text_12">
      <!-- −0.0050 -->
      <g transform="translate(7.229687 237.269842)scale(0.1 -0.1)">
       <use xlink:href="#DejaVuSans-2212"/>
       <use x="83.789062" xlink:href="#DejaVuSans-30"/>
       <use x="147.412109" xlink:href="#DejaVuSans-2e"/>
       <use x="179.199219" xlink:href="#DejaVuSans-30"/>
       <use x="242.822266" xlink:href="#DejaVuSans-30"/>
       <use x="306.445312" xlink:href="#DejaVuSans-35"/>
       <use x="370.068359" xlink:href="#DejaVuSans-30"/>
      </g>
     </g>
    </g>
    <g id="ytick_4">
     <g id="line2d_23">
      <path clip-path="url(#p3e832b984e)" d="M 57.6 198.557459 
L 414.72 198.557459 
" style="fill:none;stroke:#b0b0b0;stroke-linecap:square;stroke-width:0.8;"/>
     </g>
     <g id="line2d_24">
      <g>
       <use style="stroke:#000000;stroke-width:0.8;" x="57.6" xlink:href="#m4ad621607d" y="198.557459"/>
      </g>
     </g>
     <g id="text_13">
      <!-- −0.0025 -->
      <g transform="translate(7.229687 202.356678)scale(0.1 -0.1)">
       <use xlink:href="#DejaVuSans-2212"/>
       <use x="83.789062" xlink:href="#DejaVuSans-30"/>
       <use x="147.412109" xlink:href="#DejaVuSans-2e"/>
       <use x="179.199219" xlink:href="#DejaVuSans-30"/>
       <use x="242.822266" xlink:href="#DejaVuSans-30"/>
       <use x="306.445312" xlink:href="#DejaVuSans-32"/>
       <use x="370.068359" xlink:href="#DejaVuSans-35"/>
      </g>
     </g>
    </g>
    <g id="ytick_5">
     <g id="line2d_25">
      <path clip-path="url(#p3e832b984e)" d="M 57.6 163.644295 
L 414.72 163.644295 
" style="fill:none;stroke:#b0b0b0;stroke-linecap:square;stroke-width:0.8;"/>
     </g>
     <g id="line2d_26">
      <g>
       <use style="stroke:#000000;stroke-width:0.8;" x="57.6" xlink:href="#m4ad621607d" y="163.644295"/>
      </g>
     </g>
     <g id="text_14">
      <!-- 0.0000 -->
      <g transform="translate(15.609375 167.443514)scale(0.1 -0.1)">
       <use xlink:href="#DejaVuSans-30"/>
       <use x="63.623047" xlink:href="#DejaVuSans-2e"/>
       <use x="95.410156" xlink:href="#DejaVuSans-30"/>
       <use x="159.033203" xlink:href="#DejaVuSans-30"/>
       <use x="222.65625" xlink:href="#DejaVuSans-30"/>
       <use x="286.279297" xlink:href="#DejaVuSans-30"/>
      </g>
     </g>
    </g>
    <g id="ytick_6">
     <g id="line2d_27">
      <path clip-path="url(#p3e832b984e)" d="M 57.6 128.731131 
L 414.72 128.731131 
" style="fill:none;stroke:#b0b0b0;stroke-linecap:square;stroke-width:0.8;"/>
     </g>
     <g id="line2d_28">
      <g>
       <use style="stroke:#000000;stroke-width:0.8;" x="57.6" xlink:href="#m4ad621607d" y="128.731131"/>
      </g>
     </g>
     <g id="text_15">
      <!-- 0.0025 -->
      <g transform="translate(15.609375 132.53035)scale(0.1 -0.1)">
       <use xlink:href="#DejaVuSans-30"/>
       <use x="63.623047" xlink:href="#DejaVuSans-2e"/>
       <use x="95.410156" xlink:href="#DejaVuSans-30"/>
       <use x="159.033203" xlink:href="#DejaVuSans-30"/>
       <use x="222.65625" xlink:href="#DejaVuSans-32"/>
       <use x="286.279297" xlink:href="#DejaVuSans-35"/>
      </g>
     </g>
    </g>
    <g id="ytick_7">
     <g id="line2d_29">
      <path clip-path="url(#p3e832b984e)" d="M 57.6 93.817967 
L 414.72 93.817967 
" style="fill:none;stroke:#b0b0b0;stroke-linecap:square;stroke-width:0.8;"/>
     </g>
     <g id="line2d_30">
      <g>
       <use style="stroke:#000000;stroke-width:0.8;" x="57.6" xlink:href="#m4ad621607d" y="93.817967"/>
      </g>
     </g>
     <g id="text_16">
      <!-- 0.0050 -->
      <g transform="translate(15.609375 97.617186)scale(0.1 -0.1)">
       <use xlink:href="#DejaVuSans-30"/>
       <use x="63.623047" xlink:href="#DejaVuSans-2e"/>
       <use x="95.410156" xlink:href="#DejaVuSans-30"/>
       <use x="159.033203" xlink:href="#DejaVuSans-30"/>
       <use x="222.65625" xlink:href="#DejaVuSans-35"/>
       <use x="286.279297" xlink:href="#DejaVuSans-30"/>
      </g>
     </g>
    </g>
    <g id="ytick_8">
     <g id="line2d_31">
      <path clip-path="url(#p3e832b984e)" d="M 57.6 58.904803 
L 414.72 58.904803 
" style="fill:none;stroke:#b0b0b0;stroke-linecap:square;stroke-width:0.8;"/>
     </g>
     <g id="line2d_32">
      <g>
       <use style="stroke:#000000;stroke-width:0.8;" x="57.6" xlink:href="#m4ad621607d" y="58.904803"/>
      </g>
     </g>
     <g id="text_17">
      <!-- 0.0075 -->
      <g transform="translate(15.609375 62.704021)scale(0.1 -0.1)">
       <use xlink:href="#DejaVuSans-30"/>
       <use x="63.623047" xlink:href="#DejaVuSans-2e"/>
       <use x="95.410156" xlink:href="#DejaVuSans-30"/>
       <use x="159.033203" xlink:href="#DejaVuSans-30"/>
       <use x="222.65625" xlink:href="#DejaVuSans-37"/>
       <use x="286.279297" xlink:href="#DejaVuSans-35"/>
      </g>
     </g>
    </g>
    <g id="text_18">
     <!-- omega -->
     <defs>
      <path d="M 30.609375 48.390625 
Q 23.390625 48.390625 19.1875 42.75 
Q 14.984375 37.109375 14.984375 27.296875 
Q 14.984375 17.484375 19.15625 11.84375 
Q 23.34375 6.203125 30.609375 6.203125 
Q 37.796875 6.203125 41.984375 11.859375 
Q 46.1875 17.53125 46.1875 27.296875 
Q 46.1875 37.015625 41.984375 42.703125 
Q 37.796875 48.390625 30.609375 48.390625 
M 30.609375 56 
Q 42.328125 56 49.015625 48.375 
Q 55.71875 40.765625 55.71875 27.296875 
Q 55.71875 13.875 49.015625 6.21875 
Q 42.328125 -1.421875 30.609375 -1.421875 
Q 18.84375 -1.421875 12.171875 6.21875 
Q 5.515625 13.875 5.515625 27.296875 
Q 5.515625 40.765625 12.171875 48.375 
Q 18.84375 56 30.609375 56 
" id="DejaVuSans-6f"/>
      <path d="M 52 44.1875 
Q 55.375 50.25 60.0625 53.125 
Q 64.75 56 71.09375 56 
Q 79.640625 56 84.28125 50.015625 
Q 88.921875 44.046875 88.921875 33.015625 
L 88.921875 0 
L 79.890625 0 
L 79.890625 32.71875 
Q 79.890625 40.578125 77.09375 44.375 
Q 74.3125 48.1875 68.609375 48.1875 
Q 61.625 48.1875 57.5625 43.546875 
Q 53.515625 38.921875 53.515625 30.90625 
L 53.515625 0 
L 44.484375 0 
L 44.484375 32.71875 
Q 44.484375 40.625 41.703125 44.40625 
Q 38.921875 48.1875 33.109375 48.1875 
Q 26.21875 48.1875 22.15625 43.53125 
Q 18.109375 38.875 18.109375 30.90625 
L 18.109375 0 
L 9.078125 0 
L 9.078125 54.6875 
L 18.109375 54.6875 
L 18.109375 46.1875 
Q 21.1875 51.21875 25.484375 53.609375 
Q 29.78125 56 35.6875 56 
Q 41.65625 56 45.828125 52.96875 
Q 50 49.953125 52 44.1875 
" id="DejaVuSans-6d"/>
      <path d="M 45.40625 27.984375 
Q 45.40625 37.75 41.375 43.109375 
Q 37.359375 48.484375 30.078125 48.484375 
Q 22.859375 48.484375 18.828125 43.109375 
Q 14.796875 37.75 14.796875 27.984375 
Q 14.796875 18.265625 18.828125 12.890625 
Q 22.859375 7.515625 30.078125 7.515625 
Q 37.359375 7.515625 41.375 12.890625 
Q 45.40625 18.265625 45.40625 27.984375 
M 54.390625 6.78125 
Q 54.390625 -7.171875 48.1875 -13.984375 
Q 42 -20.796875 29.203125 -20.796875 
Q 24.46875 -20.796875 20.265625 -20.09375 
Q 16.0625 -19.390625 12.109375 -17.921875 
L 12.109375 -9.1875 
Q 16.0625 -11.328125 19.921875 -12.34375 
Q 23.78125 -13.375 27.78125 -13.375 
Q 36.625 -13.375 41.015625 -8.765625 
Q 45.40625 -4.15625 45.40625 5.171875 
L 45.40625 9.625 
Q 42.625 4.78125 38.28125 2.390625 
Q 33.9375 0 27.875 0 
Q 17.828125 0 11.671875 7.65625 
Q 5.515625 15.328125 5.515625 27.984375 
Q 5.515625 40.671875 11.671875 48.328125 
Q 17.828125 56 27.875 56 
Q 33.9375 56 38.28125 53.609375 
Q 42.625 51.21875 45.40625 46.390625 
L 45.40625 54.6875 
L 54.390625 54.6875 
z
" id="DejaVuSans-67"/>
     </defs>
     <g transform="translate(1.15 190.318131)rotate(-90)scale(0.1 -0.1)">
      <use xlink:href="#DejaVuSans-6f"/>
      <use x="61.181641" xlink:href="#DejaVuSans-6d"/>
      <use x="158.59375" xlink:href="#DejaVuSans-65"/>
      <use x="220.117188" xlink:href="#DejaVuSans-67"/>
      <use x="283.59375" xlink:href="#DejaVuSans-61"/>
     </g>
    </g>
   </g>
   <g id="line2d_33">
    <path clip-path="url(#p3e832b984e)" d="M 398.487273 163.644295 
L 397.615061 177.518047 
L 395.018608 191.115782 
L 390.740839 204.30502 
L 384.840881 216.958684 
L 377.393638 228.956274 
L 368.488697 240.185068 
L 358.22903 250.541035 
L 346.730117 259.929886 
L 334.118533 268.267911 
L 320.531023 275.482511 
L 306.112349 281.513134 
L 291.013995 286.311793 
L 275.392943 289.842912 
L 259.409712 292.083981 
L 243.226845 293.0256 
L 227.007248 292.671284 
L 210.912585 291.037477 
L 195.101648 288.153147 
L 179.728841 284.059429 
L 164.942657 278.809074 
L 150.884289 272.46585 
L 137.686278 265.103643 
L 125.471304 256.805814 
L 114.351045 247.664183 
L 104.425194 237.778055 
L 95.780553 227.253138 
L 88.490338 216.200455 
L 82.61356 204.735161 
L 78.194592 192.975381 
L 75.262863 181.040963 
L 73.832727 169.052328 
L 73.903463 157.129216 
L 75.459431 145.389562 
L 78.470377 133.948234 
L 82.891876 122.916046 
L 88.665934 112.398629 
L 95.721678 102.495426 
L 103.976184 93.298826 
L 113.335461 84.893207 
L 123.695423 77.35432 
L 134.943132 70.74848 
L 146.957877 65.132111 
L 159.612578 60.551206 
L 172.775018 57.041015 
L 186.309257 54.625797 
L 200.07704 53.318664 
L 213.939098 53.1216 
L 227.756697 54.02551 
L 241.392824 56.010452 
L 254.713746 59.045933 
L 267.590105 63.091306 
L 279.898293 68.0963 
L 291.52159 74.001595 
L 302.351198 80.7395 
L 312.287378 88.234747 
L 321.240169 96.405239 
L 329.130371 105.16304 
L 335.890077 114.415196 
L 341.463328 124.064797 
L 345.806523 134.011941 
L 348.888696 144.154734 
L 350.691769 154.390411 
L 351.210525 164.616225 
L 350.452595 174.730633 
L 348.438219 184.634141 
L 345.199927 194.230385 
L 340.782101 203.427008 
L 335.240412 212.136515 
L 328.641134 220.277185 
L 321.060435 227.77369 
L 312.583433 234.557931 
L 303.303366 240.569511 
L 293.320486 245.756348 
L 282.741057 250.075074 
L 271.676231 253.491371 
L 260.240827 255.980264 
L 248.552291 257.526213 
L 236.729324 258.123241 
L 224.890865 257.774848 
L 213.154767 256.493905 
L 201.636717 254.302433 
L 190.449093 251.231284 
L 179.699819 247.319747 
L 169.491467 242.615093 
L 159.920119 237.17198 
L 151.074648 231.051902 
L 143.035764 224.322439 
L 135.875384 217.056579 
L 129.655975 209.331915 
L 124.429995 201.229805 
L 120.239551 192.834602 
L 117.115982 184.232665 
L 115.079747 175.511621 
L 114.140267 166.759348 
L 114.295968 158.0632 
L 115.534408 149.50909 
L 117.832495 141.180647 
L 121.156832 133.158469 
L 125.464156 125.519242 
L 130.701845 118.335153 
L 136.808571 111.673083 
L 143.714952 105.594098 
L 151.344359 100.152842 
L 159.61374 95.397067 
L 168.434479 91.36726 
L 177.713408 88.096249 
L 187.353665 85.609028 
L 197.255826 83.922519 
L 207.318796 83.045531 
L 217.440921 82.978728 
L 227.520967 83.71471 
L 237.459094 85.238173 
L 247.15793 87.526131 
L 256.52337 90.54822 
L 265.465643 94.267093 
L 273.900011 98.638824 
L 281.747673 103.613452 
L 288.936433 109.135508 
L 295.401351 115.144628 
L 301.08537 121.576227 
L 305.939711 128.362124 
L 309.924386 135.43134 
L 313.008409 142.710739 
L 315.170084 150.125861 
L 316.397094 157.601612 
L 316.686534 165.063043 
L 316.044868 172.436138 
L 314.487734 179.648418 
L 312.039724 186.629802 
L 308.734053 193.313144 
L 304.61212 199.634959 
L 299.723036 205.535995 
L 294.123061 210.961736 
L 287.87493 215.862989 
L 281.04725 220.196208 
L 273.71366 223.923975 
L 265.952128 227.015241 
L 257.844098 229.445593 
L 249.473614 231.197457 
L 240.926563 232.260147 
L 232.289651 232.629965 
L 223.649685 232.310124 
L 215.092597 231.310666 
L 206.702648 229.648295 
L 198.561625 227.346138 
L 190.747965 224.43345 
L 183.33615 220.945279 
L 176.39585 216.922026 
L 169.991403 212.409032 
L 164.181161 207.456045 
L 159.01697 202.116689 
L 154.543776 196.447917 
L 150.799159 190.509354 
L 147.813124 184.36276 
L 145.607803 178.071307 
L 144.197359 171.699006 
L 143.587909 165.31003 
L 143.777538 158.968058 
L 144.756413 152.735715 
L 146.506944 146.673846 
L 149.00404 140.841059 
L 152.215449 135.293064 
L 156.102129 130.082187 
L 160.618701 125.256911 
L 165.714006 120.861349 
L 171.331594 116.934962 
L 177.410428 113.512108 
L 183.885464 110.621816 
L 190.688363 108.287536 
L 197.748245 106.526929 
L 204.992311 105.351811 
L 212.346732 104.768031 
L 219.737256 104.775513 
L 227.090034 105.3683 
L 234.332356 106.53467 
L 241.393268 108.257318 
L 248.204394 110.513583 
L 254.700463 113.275712 
L 260.820034 116.511212 
L 266.505997 120.183193 
L 271.706118 124.250797 
L 276.373541 128.669651 
L 280.467133 133.392301 
L 283.951922 138.368784 
L 286.799296 143.547067 
L 288.987294 148.873668 
L 290.500719 154.294136 
L 291.331231 159.753634 
L 291.477374 165.197502 
L 290.9445 170.571739 
L 289.744667 175.823622 
L 287.896444 180.902118 
L 285.42466 185.758471 
L 282.360101 190.34661 
L 278.739145 194.623556 
L 274.603317 198.549906 
L 269.998887 202.090081 
L 264.976291 205.212735 
L 259.589633 207.890974 
L 253.896116 210.102575 
L 247.955377 211.830207 
L 241.828983 213.061492 
L 235.57968 213.789132 
L 229.270835 214.010906 
L 222.965793 213.729637 
L 216.727174 212.95313 
L 210.616394 211.694037 
L 204.692918 209.969675 
L 199.013781 207.801825 
L 193.633041 205.216457 
L 188.601218 202.243427 
L 183.964897 198.916167 
L 179.766219 195.271276 
L 176.042599 191.34817 
L 172.826329 187.188621 
L 170.144342 182.836344 
L 168.017996 178.336543 
L 166.462894 173.735415 
L 165.488826 169.079741 
L 165.09969 164.416338 
L 165.293537 159.791671 
L 166.062638 155.251333 
L 167.393619 150.839633 
L 169.267654 146.599167 
L 171.660707 142.570384 
L 174.543807 138.791264 
L 177.883421 135.296872 
L 181.641788 132.119134 
L 185.777368 129.286504 
L 190.2453 126.823697 
L 194.997823 124.751544 
L 199.984873 123.086743 
L 205.154508 121.841804 
L 210.453505 121.024932 
L 215.827909 120.63998 
L 221.223492 120.686487 
L 226.586422 121.159693 
L 231.863679 122.050644 
L 237.003635 123.346327 
L 241.956574 125.029832 
L 246.675069 127.080552 
L 251.114565 129.47445 
L 255.233685 132.184303 
L 258.994651 135.18002 
L 262.363631 138.428972 
L 265.311018 141.896323 
L 267.811714 145.545433 
L 269.845285 149.338194 
L 271.396163 153.235475 
L 272.453727 157.197472 
L 273.012372 161.184148 
L 273.07151 165.155618 
L 272.635521 169.072532 
L 271.713667 172.8965 
L 270.319951 176.590405 
L 268.472925 180.118825 
L 266.195471 183.448309 
L 263.514514 186.547735 
L 260.460734 189.388569 
L 257.068211 191.945128 
L 253.374033 194.194843 
L 249.417958 196.118375 
L 245.241915 197.699853 
L 240.889621 198.926954 
L 236.40612 199.790997 
L 231.837276 200.287013 
L 227.229398 200.413726 
L 222.628674 200.17355 
L 218.080785 199.572527 
L 213.630444 198.620223 
L 209.320904 197.329603 
L 205.193646 195.71687 
L 201.287879 193.801263 
L 197.640239 191.604844 
L 194.284441 189.152254 
L 191.250926 186.470418 
L 188.566667 183.588294 
L 186.254878 180.53653 
L 184.334845 177.347163 
L 182.821759 174.053278 
L 181.726612 170.688662 
L 181.056142 167.287486 
L 180.812787 163.883923 
L 180.994717 160.511853 
L 181.59589 157.204482 
L 182.606155 153.994062 
L 184.011398 150.911551 
L 185.793714 147.986322 
L 187.931626 145.245908 
L 190.400341 142.715707 
L 193.172011 140.4188 
L 196.216069 138.375695 
L 199.499523 136.604193 
L 202.987346 135.119203 
L 206.642833 133.932631 
L 210.427944 133.053317 
L 214.303775 132.48694 
L 218.230865 132.236023 
L 222.169658 132.299919 
L 226.080885 132.674858 
L 229.925903 133.354018 
L 233.667162 134.327622 
L 237.268475 135.583053 
L 240.695427 137.105024 
L 243.91569 138.875753 
L 246.899276 140.875147 
L 249.618895 143.081061 
L 252.050117 145.469496 
L 254.171637 148.014887 
L 255.965454 150.690371 
L 257.416979 153.468039 
L 258.515188 156.31926 
L 259.252672 159.214942 
L 259.625693 162.125857 
L 259.634166 165.022901 
L 259.281633 167.877408 
L 258.575193 170.661418 
L 257.525393 173.347942 
L 256.146088 175.911247 
L 254.454275 178.327059 
L 252.469882 180.572833 
L 250.215558 182.627921 
L 247.716402 184.473791 
L 244.999703 186.094168 
L 242.094643 187.475182 
L 239.031978 188.605485 
L 235.843746 189.476326 
L 232.562878 190.081637 
L 229.222935 190.418037 
L 225.857715 190.484857 
L 222.500921 190.284116 
L 219.185867 189.820472 
L 215.945082 189.101152 
L 212.810066 188.135855 
L 209.810938 186.936626 
L 206.976159 185.517715 
L 204.332299 183.895424 
L 201.903729 182.087901 
L 199.71247 180.114969 
L 197.777946 177.997892 
L 196.116831 175.759148 
L 194.742935 173.422222 
L 193.66705 171.011316 
L 192.896911 168.551145 
L 192.437138 166.066662 
L 192.289213 163.582816 
L 192.451505 161.124301 
L 192.919311 158.715304 
L 193.684939 156.379297 
L 194.737816 154.138774 
L 196.064609 152.015071 
L 197.649403 150.028139 
L 199.473868 148.196374 
L 201.517477 146.536451 
L 203.757734 145.06316 
L 206.170397 143.789301 
L 208.729767 142.725548 
L 211.408927 141.880396 
L 214.180051 141.260068 
L 217.014664 140.868498 
L 219.883947 140.707303 
L 222.759027 140.775792 
L 225.611251 141.071 
L 228.412494 141.587735 
L 231.135397 142.318653 
L 233.753674 143.254356 
L 236.242323 144.383501 
L 238.57789 145.692935 
L 240.738676 147.167844 
L 242.704929 148.791913 
L 244.459039 150.547512 
L 245.985667 152.415869 
L 247.271905 154.37729 
L 248.307347 156.411339 
L 249.084198 158.497072 
L 249.597304 160.613229 
L 249.844186 162.738467 
L 249.825044 164.851568 
L 249.54271 166.93163 
L 249.002613 168.95831 
L 248.212689 170.911977 
L 247.183278 172.773935 
L 245.927 174.526582 
L 244.458605 176.153575 
L 242.794803 177.639991 
L 240.954088 178.972442 
L 238.956517 180.139216 
L 236.823522 181.130356 
L 234.577656 181.937755 
L 232.242374 182.555214 
L 229.841793 182.978481 
L 227.400424 183.205283 
L 224.942959 183.235317 
L 222.493987 183.070243 
L 220.077781 182.713644 
L 217.71804 182.170971 
L 215.437664 181.449474 
L 213.258545 180.558106 
L 211.201335 179.507419 
L 209.285287 178.30945 
L 207.528041 176.977573 
L 205.945496 175.526369 
L 204.551648 173.971452 
L 203.358478 172.329316 
L 202.375858 170.617163 
L 201.611457 168.852707 
L 201.07071 167.054022 
L 200.756766 165.239327 
L 200.670491 163.426833 
L 200.810477 161.634539 
L 201.173079 159.880062 
L 201.752477 158.180479 
L 202.540754 156.552136 
L 203.527989 155.010523 
L 204.702388 153.570102 
L 206.05041 152.24419 
L 207.556921 151.044835 
L 209.205369 149.982697 
L 210.977941 149.066981 
L 212.855785 148.305328 
L 214.819173 147.703783 
L 216.847733 147.266734 
L 218.920649 146.996887 
L 221.016858 146.895265 
L 223.115295 146.961203 
L 225.195064 147.192377 
L 227.235673 147.584846 
L 229.217218 148.133101 
L 231.120583 148.83014 
L 232.927623 149.667552 
L 234.621321 150.635612 
L 236.18597 151.723396 
L 237.607289 152.918893 
L 238.872577 154.209145 
L 239.970801 155.580378 
L 240.892704 157.018152 
L 241.630875 158.507508 
L 242.179799 160.033121 
L 242.535904 161.579463 
L 242.697566 163.130946 
L 242.665113 164.672098 
L 242.440799 166.187688 
L 242.028764 167.662907 
L 241.434974 169.083487 
L 240.667143 170.43584 
L 239.734635 171.707206 
L 238.648366 172.885741 
L 237.420663 173.960656 
L 236.065144 174.92229 
L 234.596562 175.762207 
L 233.030639 176.473271 
L 231.383922 177.049688 
L 229.673584 177.48707 
L 227.917269 177.78245 
L 226.132899 177.934303 
L 224.338491 177.94255 
L 222.551997 177.808535 
L 220.791093 177.535008 
L 219.073041 177.126077 
L 217.414496 176.587155 
L 215.831358 175.924895 
L 214.338623 175.14711 
L 212.950227 174.262682 
L 211.678946 173.28147 
L 210.53625 172.21419 
L 209.532226 171.072316 
L 208.675476 169.867941 
L 207.973053 168.613664 
L 207.430408 167.322456 
L 207.051345 166.00752 
L 206.838007 164.682172 
L 206.790866 163.35969 
L 206.908736 162.0532 
L 207.188804 160.775533 
L 207.62667 159.539107 
L 208.216409 158.355809 
L 208.950647 157.23687 
L 209.820643 156.192783 
L 210.816397 155.233181 
L 211.926755 154.366765 
L 213.139533 153.601228 
L 214.441659 152.943172 
L 215.819287 152.398075 
L 217.257974 151.970232 
L 218.742804 151.66273 
L 220.258549 151.477432 
L 221.789838 151.41496 
L 223.32128 151.474717 
L 224.837652 151.65489 
L 226.324024 151.95249 
L 227.765909 152.363388 
L 229.149422 152.882374 
L 230.461377 153.503207 
L 231.689447 154.218704 
L 232.822252 155.020806 
L 233.849473 155.900675 
L 234.761954 156.848791 
L 235.551755 157.855043 
L 236.212249 158.90885 
L 236.738153 159.999258 
L 237.125575 161.115058 
L 237.372045 162.244908 
L 237.476511 163.377427 
L 237.439348 164.501331 
L 237.262337 165.605529 
L 236.948627 166.679234 
L 236.5027 167.712079 
L 235.930306 168.694194 
L 235.238392 169.616322 
L 234.435032 170.469889 
L 233.529322 171.247088 
L 232.531284 171.940956 
L 231.451765 172.545416 
L 230.302307 173.055352 
L 227.84254 173.776147 
L 225.253657 174.082681 
L 222.64042 173.971055 
L 220.106479 173.453957 
L 217.750301 172.559831 
L 215.661381 171.331443 
L 213.916892 169.823906 
L 212.578883 168.102263 
L 212.077021 167.183519 
L 211.692128 166.238722 
L 211.426873 165.277532 
L 211.282698 164.309663 
L 211.259835 163.344811 
L 211.357303 162.392541 
L 211.572935 161.46219 
L 211.903412 160.562799 
L 212.344304 159.702998 
L 212.890128 158.890945 
L 214.269772 157.439854 
L 215.980097 156.262441 
L 217.947031 155.399768 
L 220.087845 154.879657 
L 222.314579 154.715859 
L 224.537623 154.907785 
L 226.669287 155.440811 
L 228.627227 156.287141 
L 230.337589 157.407158 
L 231.737754 158.751226 
L 232.778587 160.261846 
L 233.426114 161.876083 
L 233.662562 163.528158 
L 233.486737 165.152101 
L 232.913744 166.68436 
L 231.974069 168.066257 
L 230.712071 169.246216 
L 229.183956 170.181653 
L 227.455318 170.840483 
L 225.598374 171.202172 
L 223.688973 171.258327 
L 221.803535 171.01278 
L 220.016019 170.481202 
L 218.395052 169.690242 
L 217.001329 168.676262 
L 215.885372 167.48371 
L 215.085739 166.163201 
L 214.627744 164.769415 
L 214.5227 163.358808 
L 214.767771 161.987416 
L 215.346362 160.708608 
L 216.228988 159.57104 
L 217.374773 158.616818 
L 218.733286 157.879993 
L 220.246671 157.385352 
L 221.852097 157.147599 
L 223.484374 157.171038 
L 225.078526 157.449581 
L 226.572366 157.967167 
L 227.90892 158.698608 
L 229.038533 159.610808 
L 229.920699 160.664173 
L 230.525511 161.814305 
L 230.834595 163.013887 
L 230.841591 164.214584 
L 230.552207 165.368965 
L 229.983771 166.432378 
L 229.164238 167.364648 
L 228.130928 168.131558 
L 226.928885 168.706111 
L 225.608916 169.069452 
L 224.225454 169.211409 
L 222.834382 169.130758 
L 221.490772 168.835112 
L 220.246719 168.340404 
L 219.149371 167.670096 
L 218.239149 166.854135 
L 217.54826 165.927635 
L 217.099641 164.929352 
L 216.906212 163.900119 
L 216.970581 162.881188 
L 217.285039 161.912586 
L 217.832267 161.031564 
L 218.586005 160.271166 
L 219.512391 159.659009 
L 220.571463 159.21635 
L 221.718743 158.957273 
L 222.907202 158.888369 
L 224.089107 159.008618 
L 225.217917 159.309477 
L 226.250132 159.775506 
L 227.146895 160.38505 
L 227.875516 161.111158 
L 228.410553 161.922879 
L 228.734697 162.786469 
L 228.839383 163.666788 
L 228.724798 164.528765 
L 228.3998 165.338721 
L 227.881444 166.065724 
L 227.193986 166.68271 
L 226.367924 167.167492 
L 225.43865 167.503582 
L 224.444865 167.680632 
L 223.427099 167.694809 
L 222.426009 167.548812 
L 221.48078 167.251546 
L 220.627633 166.817761 
L 219.898404 166.267306 
L 219.319448 165.624199 
L 218.910633 164.915686 
L 218.684706 164.171034 
L 218.646995 163.42035 
L 218.795229 162.693402 
L 219.119864 162.018407 
L 219.604618 161.420995 
L 220.227139 160.923205 
L 220.960133 160.54271 
L 222.197951 160.218219 
L 223.499484 160.204896 
L 224.748285 160.494702 
L 225.835995 161.053154 
L 226.671645 161.823146 
L 227.054867 162.41793 
L 227.283753 163.04933 
L 227.352284 163.691708 
L 227.260973 164.319452 
L 227.016605 164.908086 
L 226.631819 165.435125 
L 225.832054 166.068337 
L 224.836467 166.469417 
L 223.738494 166.609933 
L 222.637817 166.485242 
L 221.6314 166.114196 
L 220.805027 165.536736 
L 220.226102 164.80981 
L 219.938251 164.001824 
L 219.958192 163.186306 
L 220.275044 162.43526 
L 220.852119 161.812881 
L 221.63092 161.370138 
L 222.536923 161.140681 
L 223.486615 161.13839 
L 224.39511 161.356739 
L 225.18366 161.769975 
L 225.786408 162.335952 
L 226.155802 163.000328 
L 226.266238 163.701709 
L 226.115667 164.377261 
L 225.725072 164.968287 
L 225.135944 165.425267 
L 224.406021 165.711947 
L 223.603721 165.80814 
L 222.801808 165.711022 
L 222.070851 165.434866 
L 221.47309 165.009282 
L 221.057194 164.476155 
L 220.854385 163.885596 
L 220.876205 163.291289 
L 221.114083 162.745656 
L 221.54068 162.295285 
L 222.112854 161.976998 
L 222.775928 161.8149 
L 223.695668 161.856231 
L 224.52391 162.172736 
L 225.136028 162.704605 
L 225.399575 163.190955 
L 225.473856 163.702796 
L 225.357939 164.194319 
L 225.067665 164.622859 
L 224.633752 164.95256 
L 223.906341 165.194997 
L 223.119567 165.187856 
L 222.397553 164.942053 
L 221.84952 164.505026 
L 221.553457 163.951941 
L 221.545322 163.372968 
L 221.815043 162.858768 
L 222.309931 162.486402 
L 222.944514 162.307931 
L 223.615061 162.343354 
L 224.216363 162.578745 
L 224.658079 162.969826 
L 224.878106 163.449943 
L 224.851097 163.941276 
L 224.590949 164.367326 
L 224.147095 164.664711 
L 223.595455 164.792451 
L 223.025659 164.737436 
L 222.422136 164.43809 
L 222.113482 164.067082 
L 222.006552 163.645201 
L 222.109963 163.239774 
L 222.399426 162.912921 
L 222.94153 162.685236 
L 223.551847 162.697785 
L 224.08126 162.935792 
L 224.407277 163.331405 
L 224.461978 163.782414 
L 224.245546 164.178383 
L 223.82295 164.427425 
L 223.305197 164.477223 
L 222.820619 164.325637 
L 222.483352 164.018697 
L 222.366759 163.637336 
L 222.487914 163.276294 
L 222.806223 163.020822 
L 223.236014 162.92678 
L 223.746707 163.044432 
L 224.089022 163.358645 
L 224.166081 163.686426 
L 224.041605 163.988116 
L 223.684731 164.217773 
L 223.231149 164.239543 
L 222.840325 164.058178 
L 222.641139 163.74704 
L 222.689958 163.419229 
L 222.955735 163.186896 
L 223.335663 163.123247 
L 223.742827 163.274267 
L 223.93851 163.58316 
L 223.877641 163.859351 
L 223.637357 164.046471 
L 223.254705 164.077413 
L 222.935905 163.90948 
L 222.821464 163.632457 
L 222.949516 163.379602 
L 223.245434 163.264154 
L 223.601522 163.351792 
L 223.776562 163.60322 
L 223.707788 163.832734 
L 223.43557 163.967237 
L 223.096338 163.882525 
L 222.961834 163.662768 
L 223.057109 163.449182 
L 223.343782 163.367707 
L 223.601812 163.493636 
L 223.646485 163.718107 
L 223.463475 163.869921 
L 223.180566 163.831381 
L 223.062651 163.632215 
L 223.175412 163.472798 
L 223.443138 163.46827 
L 223.574237 163.646935 
L 223.466279 163.796558 
L 223.219407 163.779418 
L 223.143283 163.601069 
L 223.292051 163.496264 
L 223.492447 163.580664 
L 223.455975 163.742544 
L 223.248685 163.741833 
L 223.207196 163.589479 
L 223.214683 163.579904 
L 223.38727 163.546452 
L 223.457402 163.678773 
L 223.45251 163.687725 
L 223.289891 163.725432 
L 223.238343 163.610081 
L 223.255261 163.589384 
L 223.413135 163.599267 
L 223.405439 163.694322 
L 223.367938 163.711094 
L 223.259473 163.655011 
L 223.265581 163.618163 
L 223.379261 163.599322 
L 223.397632 163.617092 
L 223.381683 163.684955 
L 223.315524 163.689394 
L 223.283128 163.628393 
L 223.350519 163.603319 
L 223.350519 163.603319 
L 223.387182 163.652724 
L 223.329223 163.67986 
L 223.329223 163.67986 
L 223.295744 163.638361 
L 223.344245 163.613477 
L 223.344245 163.613477 
L 223.374012 163.651115 
L 223.330946 163.670642 
L 223.330946 163.670642 
L 223.30679 163.637195 
L 223.342627 163.620539 
L 223.342627 163.620539 
L 223.366282 163.649227 
L 223.333117 163.665108 
L 223.333117 163.665108 
L 223.313404 163.639188 
L 223.341122 163.625601 
L 223.341122 163.625601 
L 223.360192 163.647799 
L 223.334594 163.66059 
L 223.334594 163.66059 
L 223.318796 163.64058 
L 223.341943 163.630036 
L 223.341943 163.630036 
L 223.355058 163.648094 
L 223.335731 163.657148 
L 223.335731 163.657148 
L 223.322868 163.641675 
L 223.34077 163.633022 
L 223.34077 163.633022 
L 223.351511 163.647016 
L 223.335313 163.654192 
L 223.335313 163.654192 
L 223.326117 163.64246 
L 223.339957 163.635436 
L 223.339957 163.635436 
L 223.348601 163.646262 
L 223.336292 163.652023 
L 223.336292 163.652023 
L 223.329089 163.642849 
L 223.339788 163.637899 
L 223.339788 163.637899 
L 223.345574 163.645563 
L 223.336615 163.649574 
L 223.336615 163.649574 
L 223.331956 163.643161 
L 223.33946 163.639939 
L 223.33946 163.639939 
L 223.343216 163.645297 
L 223.336942 163.647889 
L 223.336942 163.647889 
L 223.333907 163.64342 
L 223.339143 163.64133 
L 223.339143 163.64133 
L 223.341601 163.645055 
L 223.337526 163.646822 
L 223.337526 163.646822 
L 223.335169 163.643819 
L 223.338679 163.642206 
L 223.338679 163.642206 
L 223.340565 163.644736 
L 223.337603 163.646021 
L 223.337603 163.646021 
L 223.336096 163.64389 
L 223.338594 163.64287 
L 223.338594 163.64287 
L 223.339794 163.644661 
L 223.337836 163.645511 
L 223.337836 163.645511 
L 223.3367 163.644067 
L 223.338388 163.64329 
L 223.338388 163.64329 
L 223.339295 163.644504 
L 223.337874 163.645125 
L 223.337874 163.645125 
L 223.337147 163.644102 
L 223.338346 163.64361 
L 223.338346 163.64361 
L 223.338925 163.644471 
L 223.337984 163.64488 
L 223.337984 163.64488 
L 223.337437 163.644186 
L 223.338248 163.643812 
L 223.338248 163.643812 
L 223.338685 163.644396 
L 223.338002 163.644694 
L 223.338002 163.644694 
L 223.337652 163.644202 
L 223.338228 163.643965 
L 223.338228 163.643965 
L 223.338507 163.644379 
L 223.338056 163.644576 
L 223.338056 163.644576 
L 223.337792 163.644243 
L 223.338181 163.644063 
L 223.338181 163.644063 
L 223.338392 163.644343 
L 223.338063 163.644487 
L 223.338063 163.644487 
L 223.337895 163.644251 
L 223.338172 163.644137 
L 223.338172 163.644137 
L 223.338306 163.644336 
L 223.338089 163.64443 
L 223.338089 163.64443 
L 223.337962 163.644271 
L 223.338149 163.644183 
L 223.338149 163.644183 
L 223.338251 163.644318 
L 223.338093 163.644387 
L 223.338093 163.644387 
L 223.338012 163.644274 
L 223.338145 163.644219 
L 223.338145 163.644219 
L 223.33821 163.644314 
L 223.338105 163.64436 
L 223.338105 163.64436 
L 223.338044 163.644283 
L 223.338134 163.644241 
L 223.338134 163.644241 
L 223.338183 163.644306 
L 223.338107 163.64434 
L 223.338107 163.64434 
L 223.338068 163.644285 
L 223.338132 163.644258 
L 223.338132 163.644258 
L 223.338163 163.644304 
L 223.338113 163.644326 
L 223.338113 163.644326 
L 223.338084 163.644289 
L 223.338127 163.644269 
L 223.338127 163.644269 
L 223.33815 163.6443 
L 223.338112 163.644323 
L 223.338112 163.644323 
L 223.338092 163.644299 
L 223.338117 163.64428 
L 223.338117 163.64428 
L 223.338128 163.644289 
L 223.33812 163.644295 
" style="fill:none;stroke:#0000ff;stroke-linecap:square;stroke-width:1.5;"/>
   </g>
   <g id="patch_3">
    <path d="M 57.6 305.0208 
L 57.6 41.1264 
" style="fill:none;stroke:#000000;stroke-linecap:square;stroke-linejoin:miter;stroke-width:0.8;"/>
   </g>
   <g id="patch_4">
    <path d="M 414.72 305.0208 
L 414.72 41.1264 
" style="fill:none;stroke:#000000;stroke-linecap:square;stroke-linejoin:miter;stroke-width:0.8;"/>
   </g>
   <g id="patch_5">
    <path d="M 57.6 305.0208 
L 414.72 305.0208 
" style="fill:none;stroke:#000000;stroke-linecap:square;stroke-linejoin:miter;stroke-width:0.8;"/>
   </g>
   <g id="patch_6">
    <path d="M 57.6 41.1264 
L 414.72 41.1264 
" style="fill:none;stroke:#000000;stroke-linecap:square;stroke-linejoin:miter;stroke-width:0.8;"/>
   </g>
   <g id="text_19">
    <!-- $\theta_0$ = 0.01$^{\circ}$, q = 0.1$kg s^{-1}$ and F = 0$N$ -->
    <defs>
     <path d="M 45.515625 34.671875 
L 14.453125 34.671875 
Q 12.359375 20.0625 14.5 13.875 
Q 17.1875 6.25 24.46875 6.25 
Q 31.78125 6.25 37.359375 13.921875 
Q 42.234375 20.65625 45.515625 34.671875 
M 47.015625 42.96875 
Q 48.34375 56.84375 46.625 61.71875 
Q 43.953125 69.4375 36.765625 69.4375 
Q 29.296875 69.4375 23.828125 61.8125 
Q 19.53125 55.671875 16.15625 42.96875 
z
M 38.1875 76.765625 
Q 49.90625 76.765625 54.59375 66.40625 
Q 59.28125 56.109375 55.71875 37.84375 
Q 52.203125 19.625 43.453125 9.28125 
Q 34.765625 -1.125 23.046875 -1.125 
Q 11.28125 -1.125 6.640625 9.28125 
Q 2 19.625 5.515625 37.84375 
Q 9.078125 56.109375 17.71875 66.40625 
Q 26.421875 76.765625 38.1875 76.765625 
" id="DejaVuSans-Oblique-3b8"/>
     <path id="DejaVuSans-20"/>
     <path d="M 10.59375 45.40625 
L 73.1875 45.40625 
L 73.1875 37.203125 
L 10.59375 37.203125 
z
M 10.59375 25.484375 
L 73.1875 25.484375 
L 73.1875 17.1875 
L 10.59375 17.1875 
z
" id="DejaVuSans-3d"/>
     <path d="M 31.25 40.921875 
Q 27.34375 40.921875 24.65625 38.203125 
Q 21.96875 35.5 21.96875 31.59375 
Q 21.96875 27.734375 24.65625 25.078125 
Q 27.34375 22.421875 31.25 22.421875 
Q 35.15625 22.421875 37.84375 25.078125 
Q 40.53125 27.734375 40.53125 31.59375 
Q 40.53125 35.453125 37.8125 38.1875 
Q 35.109375 40.921875 31.25 40.921875 
M 31.25 47.21875 
Q 34.375 47.21875 37.25 46.015625 
Q 40.140625 44.828125 42.234375 42.578125 
Q 44.484375 40.390625 45.609375 37.59375 
Q 46.734375 34.8125 46.734375 31.59375 
Q 46.734375 25.15625 42.21875 20.6875 
Q 37.703125 16.21875 31.15625 16.21875 
Q 24.5625 16.21875 20.15625 20.609375 
Q 15.765625 25 15.765625 31.59375 
Q 15.765625 38.140625 20.25 42.671875 
Q 24.75 47.21875 31.25 47.21875 
" id="DejaVuSans-2218"/>
     <path d="M 11.71875 12.40625 
L 22.015625 12.40625 
L 22.015625 4 
L 14.015625 -11.625 
L 7.71875 -11.625 
L 11.71875 4 
z
" id="DejaVuSans-2c"/>
     <path d="M 14.796875 27.296875 
Q 14.796875 17.390625 18.875 11.75 
Q 22.953125 6.109375 30.078125 6.109375 
Q 37.203125 6.109375 41.296875 11.75 
Q 45.40625 17.390625 45.40625 27.296875 
Q 45.40625 37.203125 41.296875 42.84375 
Q 37.203125 48.484375 30.078125 48.484375 
Q 22.953125 48.484375 18.875 42.84375 
Q 14.796875 37.203125 14.796875 27.296875 
M 45.40625 8.203125 
Q 42.578125 3.328125 38.25 0.953125 
Q 33.9375 -1.421875 27.875 -1.421875 
Q 17.96875 -1.421875 11.734375 6.484375 
Q 5.515625 14.40625 5.515625 27.296875 
Q 5.515625 40.1875 11.734375 48.09375 
Q 17.96875 56 27.875 56 
Q 33.9375 56 38.25 53.625 
Q 42.578125 51.265625 45.40625 46.390625 
L 45.40625 54.6875 
L 54.390625 54.6875 
L 54.390625 -20.796875 
L 45.40625 -20.796875 
z
" id="DejaVuSans-71"/>
     <path d="M 18.3125 75.984375 
L 27.296875 75.984375 
L 18.703125 31.6875 
L 49.515625 54.6875 
L 61.1875 54.6875 
L 26.8125 28.515625 
L 51.90625 0 
L 41.015625 0 
L 17.671875 26.703125 
L 12.5 0 
L 3.515625 0 
z
" id="DejaVuSans-Oblique-6b"/>
     <path d="M 59.625 54.6875 
L 50.296875 6.78125 
Q 47.609375 -7.125 40.015625 -13.953125 
Q 32.421875 -20.796875 19.578125 -20.796875 
Q 14.84375 -20.796875 10.78125 -20.09375 
Q 6.734375 -19.390625 3.21875 -17.921875 
L 4.890625 -9.1875 
Q 8.203125 -11.328125 11.90625 -12.34375 
Q 15.625 -13.375 19.828125 -13.375 
Q 28.375 -13.375 33.859375 -8.703125 
Q 39.359375 -4.046875 41.109375 4.6875 
L 41.890625 8.796875 
Q 38.140625 4.5 33.15625 2.25 
Q 28.171875 0 22.40625 0 
Q 14.109375 0 9.34375 5.484375 
Q 4.59375 10.984375 4.59375 20.609375 
Q 4.59375 28.171875 7.46875 35.421875 
Q 10.359375 42.671875 15.578125 48.296875 
Q 19.046875 52 23.65625 54 
Q 28.265625 56 33.296875 56 
Q 38.8125 56 42.90625 53.4375 
Q 47.015625 50.875 49.03125 46.1875 
L 50.59375 54.6875 
z
M 46.09375 34.625 
Q 46.09375 41.265625 42.96875 44.875 
Q 39.84375 48.484375 34.078125 48.484375 
Q 30.515625 48.484375 27.296875 47.0625 
Q 24.078125 45.65625 21.78125 43.109375 
Q 18.0625 38.921875 15.984375 33.234375 
Q 13.921875 27.546875 13.921875 21.484375 
Q 13.921875 14.75 17.0625 11.125 
Q 20.21875 7.515625 26.125 7.515625 
Q 34.671875 7.515625 40.375 15.25 
Q 46.09375 23 46.09375 34.625 
" id="DejaVuSans-Oblique-67"/>
     <path d="M 50 53.078125 
L 48.296875 44.578125 
Q 44.734375 46.53125 40.765625 47.5 
Q 36.8125 48.484375 32.625 48.484375 
Q 25.53125 48.484375 21.453125 46.0625 
Q 17.390625 43.65625 17.390625 39.5 
Q 17.390625 34.671875 26.859375 32.078125 
Q 27.59375 31.890625 27.9375 31.78125 
L 30.8125 30.90625 
Q 39.796875 28.421875 42.796875 25.6875 
Q 45.796875 22.953125 45.796875 18.21875 
Q 45.796875 9.515625 38.890625 4.046875 
Q 31.984375 -1.421875 20.796875 -1.421875 
Q 16.453125 -1.421875 11.671875 -0.578125 
Q 6.890625 0.25 1.125 2 
L 2.875 11.28125 
Q 7.8125 8.734375 12.59375 7.421875 
Q 17.390625 6.109375 21.78125 6.109375 
Q 28.375 6.109375 32.5 8.9375 
Q 36.625 11.765625 36.625 16.109375 
Q 36.625 20.796875 25.78125 23.6875 
L 24.859375 23.921875 
L 21.78125 24.703125 
Q 14.9375 26.515625 11.765625 29.46875 
Q 8.59375 32.421875 8.59375 37.015625 
Q 8.59375 45.75 15.15625 50.875 
Q 21.734375 56 33.015625 56 
Q 37.453125 56 41.671875 55.265625 
Q 45.90625 54.546875 50 53.078125 
" id="DejaVuSans-Oblique-73"/>
     <path d="M 54.890625 33.015625 
L 54.890625 0 
L 45.90625 0 
L 45.90625 32.71875 
Q 45.90625 40.484375 42.875 44.328125 
Q 39.84375 48.1875 33.796875 48.1875 
Q 26.515625 48.1875 22.3125 43.546875 
Q 18.109375 38.921875 18.109375 30.90625 
L 18.109375 0 
L 9.078125 0 
L 9.078125 54.6875 
L 18.109375 54.6875 
L 18.109375 46.1875 
Q 21.34375 51.125 25.703125 53.5625 
Q 30.078125 56 35.796875 56 
Q 45.21875 56 50.046875 50.171875 
Q 54.890625 44.34375 54.890625 33.015625 
" id="DejaVuSans-6e"/>
     <path d="M 45.40625 46.390625 
L 45.40625 75.984375 
L 54.390625 75.984375 
L 54.390625 0 
L 45.40625 0 
L 45.40625 8.203125 
Q 42.578125 3.328125 38.25 0.953125 
Q 33.9375 -1.421875 27.875 -1.421875 
Q 17.96875 -1.421875 11.734375 6.484375 
Q 5.515625 14.40625 5.515625 27.296875 
Q 5.515625 40.1875 11.734375 48.09375 
Q 17.96875 56 27.875 56 
Q 33.9375 56 38.25 53.625 
Q 42.578125 51.265625 45.40625 46.390625 
M 14.796875 27.296875 
Q 14.796875 17.390625 18.875 11.75 
Q 22.953125 6.109375 30.078125 6.109375 
Q 37.203125 6.109375 41.296875 11.75 
Q 45.40625 17.390625 45.40625 27.296875 
Q 45.40625 37.203125 41.296875 42.84375 
Q 37.203125 48.484375 30.078125 48.484375 
Q 22.953125 48.484375 18.875 42.84375 
Q 14.796875 37.203125 14.796875 27.296875 
" id="DejaVuSans-64"/>
     <path d="M 9.8125 72.90625 
L 51.703125 72.90625 
L 51.703125 64.59375 
L 19.671875 64.59375 
L 19.671875 43.109375 
L 48.578125 43.109375 
L 48.578125 34.8125 
L 19.671875 34.8125 
L 19.671875 0 
L 9.8125 0 
z
" id="DejaVuSans-46"/>
     <path d="M 16.890625 72.90625 
L 30.171875 72.90625 
L 50.296875 10.40625 
L 62.5 72.90625 
L 72.125 72.90625 
L 57.90625 0 
L 44.578125 0 
L 24.515625 62.890625 
L 12.3125 0 
L 2.6875 0 
z
" id="DejaVuSans-Oblique-4e"/>
    </defs>
    <g transform="translate(125.82 35.1264)scale(0.12 -0.12)">
     <use transform="translate(0 0.684375)" xlink:href="#DejaVuSans-Oblique-3b8"/>
     <use transform="translate(61.181641 -15.721875)scale(0.7)" xlink:href="#DejaVuSans-30"/>
     <use transform="translate(108.452148 0.684375)" xlink:href="#DejaVuSans-20"/>
     <use transform="translate(140.239258 0.684375)" xlink:href="#DejaVuSans-3d"/>
     <use transform="translate(224.02832 0.684375)" xlink:href="#DejaVuSans-20"/>
     <use transform="translate(255.81543 0.684375)" xlink:href="#DejaVuSans-30"/>
     <use transform="translate(319.438477 0.684375)" xlink:href="#DejaVuSans-2e"/>
     <use transform="translate(351.225586 0.684375)" xlink:href="#DejaVuSans-30"/>
     <use transform="translate(414.848633 0.684375)" xlink:href="#DejaVuSans-31"/>
     <use transform="translate(479.428711 38.965625)scale(0.7)" xlink:href="#DejaVuSans-2218"/>
     <use transform="translate(525.981445 0.684375)" xlink:href="#DejaVuSans-2c"/>
     <use transform="translate(557.768555 0.684375)" xlink:href="#DejaVuSans-20"/>
     <use transform="translate(589.555664 0.684375)" xlink:href="#DejaVuSans-71"/>
     <use transform="translate(653.032227 0.684375)" xlink:href="#DejaVuSans-20"/>
     <use transform="translate(684.819336 0.684375)" xlink:href="#DejaVuSans-3d"/>
     <use transform="translate(768.608398 0.684375)" xlink:href="#DejaVuSans-20"/>
     <use transform="translate(800.395508 0.684375)" xlink:href="#DejaVuSans-30"/>
     <use transform="translate(864.018555 0.684375)" xlink:href="#DejaVuSans-2e"/>
     <use transform="translate(895.805664 0.684375)" xlink:href="#DejaVuSans-31"/>
     <use transform="translate(959.428711 0.684375)" xlink:href="#DejaVuSans-Oblique-6b"/>
     <use transform="translate(1017.338867 0.684375)" xlink:href="#DejaVuSans-Oblique-67"/>
     <use transform="translate(1080.81543 0.684375)" xlink:href="#DejaVuSans-Oblique-73"/>
     <use transform="translate(1137.564935 38.965625)scale(0.7)" xlink:href="#DejaVuSans-2212"/>
     <use transform="translate(1196.217279 38.965625)scale(0.7)" xlink:href="#DejaVuSans-31"/>
     <use transform="translate(1243.487786 0.684375)" xlink:href="#DejaVuSans-20"/>
     <use transform="translate(1275.274896 0.684375)" xlink:href="#DejaVuSans-61"/>
     <use transform="translate(1336.554193 0.684375)" xlink:href="#DejaVuSans-6e"/>
     <use transform="translate(1399.933099 0.684375)" xlink:href="#DejaVuSans-64"/>
     <use transform="translate(1463.409661 0.684375)" xlink:href="#DejaVuSans-20"/>
     <use transform="translate(1495.196771 0.684375)" xlink:href="#DejaVuSans-46"/>
     <use transform="translate(1552.716302 0.684375)" xlink:href="#DejaVuSans-20"/>
     <use transform="translate(1584.503411 0.684375)" xlink:href="#DejaVuSans-3d"/>
     <use transform="translate(1668.292474 0.684375)" xlink:href="#DejaVuSans-20"/>
     <use transform="translate(1700.079583 0.684375)" xlink:href="#DejaVuSans-30"/>
     <use transform="translate(1763.70263 0.684375)" xlink:href="#DejaVuSans-Oblique-4e"/>
    </g>
   </g>
  </g>
 </g>
 <defs>
  <clipPath id="p3e832b984e">
   <rect height="263.8944" width="357.12" x="57.6" y="41.1264"/>
  </clipPath>
 </defs>
</svg>
