<?xml version="1.0" encoding="utf-8" standalone="no"?>
<!DOCTYPE svg PUBLIC "-//W3C//DTD SVG 1.1//EN"
  "http://www.w3.org/Graphics/SVG/1.1/DTD/svg11.dtd">
<!-- Created with matplotlib (http://matplotlib.org/) -->
<svg height="342pt" version="1.1" viewBox="0 0 460 342" width="460pt" xmlns="http://www.w3.org/2000/svg" xmlns:xlink="http://www.w3.org/1999/xlink">
 <defs>
  <style type="text/css">
*{stroke-linecap:butt;stroke-linejoin:round;}
  </style>
 </defs>
 <g id="figure_1">
  <g id="patch_1">
   <path d="M 0 342.72 
L 460.8 342.72 
L 460.8 0 
L 0 0 
z
" style="fill:#ffffff;"/>
  </g>
  <g id="axes_1">
   <g id="patch_2">
    <path d="M 57.6 305.0208 
L 414.72 305.0208 
L 414.72 41.1264 
L 57.6 41.1264 
z
" style="fill:#ffffff;"/>
   </g>
   <g id="matplotlib.axis_1">
    <g id="xtick_1">
     <g id="line2d_1">
      <path clip-path="url(#pe92652f7f0)" d="M 119.610637 305.0208 
L 119.610637 41.1264 
" style="fill:none;stroke:#b0b0b0;stroke-linecap:square;stroke-width:0.8;"/>
     </g>
     <g id="line2d_2">
      <defs>
       <path d="M 0 0 
L 0 3.5 
" id="mf542624fbd" style="stroke:#000000;stroke-width:0.8;"/>
      </defs>
      <g>
       <use style="stroke:#000000;stroke-width:0.8;" x="119.610637" xlink:href="#mf542624fbd" y="305.0208"/>
      </g>
     </g>
     <g id="text_1">
      <!-- −4 -->
      <defs>
       <path d="M 10.59375 35.5 
L 73.1875 35.5 
L 73.1875 27.203125 
L 10.59375 27.203125 
z
" id="DejaVuSans-2212"/>
       <path d="M 37.796875 64.3125 
L 12.890625 25.390625 
L 37.796875 25.390625 
z
M 35.203125 72.90625 
L 47.609375 72.90625 
L 47.609375 25.390625 
L 58.015625 25.390625 
L 58.015625 17.1875 
L 47.609375 17.1875 
L 47.609375 0 
L 37.796875 0 
L 37.796875 17.1875 
L 4.890625 17.1875 
L 4.890625 26.703125 
z
" id="DejaVuSans-34"/>
      </defs>
      <g transform="translate(112.239543 319.619237)scale(0.1 -0.1)">
       <use xlink:href="#DejaVuSans-2212"/>
       <use x="83.789062" xlink:href="#DejaVuSans-34"/>
      </g>
     </g>
    </g>
    <g id="xtick_2">
     <g id="line2d_3">
      <path clip-path="url(#pe92652f7f0)" d="M 188.664746 305.0208 
L 188.664746 41.1264 
" style="fill:none;stroke:#b0b0b0;stroke-linecap:square;stroke-width:0.8;"/>
     </g>
     <g id="line2d_4">
      <g>
       <use style="stroke:#000000;stroke-width:0.8;" x="188.664746" xlink:href="#mf542624fbd" y="305.0208"/>
      </g>
     </g>
     <g id="text_2">
      <!-- −2 -->
      <defs>
       <path d="M 19.1875 8.296875 
L 53.609375 8.296875 
L 53.609375 0 
L 7.328125 0 
L 7.328125 8.296875 
Q 12.9375 14.109375 22.625 23.890625 
Q 32.328125 33.6875 34.8125 36.53125 
Q 39.546875 41.84375 41.421875 45.53125 
Q 43.3125 49.21875 43.3125 52.78125 
Q 43.3125 58.59375 39.234375 62.25 
Q 35.15625 65.921875 28.609375 65.921875 
Q 23.96875 65.921875 18.8125 64.3125 
Q 13.671875 62.703125 7.8125 59.421875 
L 7.8125 69.390625 
Q 13.765625 71.78125 18.9375 73 
Q 24.125 74.21875 28.421875 74.21875 
Q 39.75 74.21875 46.484375 68.546875 
Q 53.21875 62.890625 53.21875 53.421875 
Q 53.21875 48.921875 51.53125 44.890625 
Q 49.859375 40.875 45.40625 35.40625 
Q 44.1875 33.984375 37.640625 27.21875 
Q 31.109375 20.453125 19.1875 8.296875 
" id="DejaVuSans-32"/>
      </defs>
      <g transform="translate(181.293652 319.619237)scale(0.1 -0.1)">
       <use xlink:href="#DejaVuSans-2212"/>
       <use x="83.789062" xlink:href="#DejaVuSans-32"/>
      </g>
     </g>
    </g>
    <g id="xtick_3">
     <g id="line2d_5">
      <path clip-path="url(#pe92652f7f0)" d="M 257.718855 305.0208 
L 257.718855 41.1264 
" style="fill:none;stroke:#b0b0b0;stroke-linecap:square;stroke-width:0.8;"/>
     </g>
     <g id="line2d_6">
      <g>
       <use style="stroke:#000000;stroke-width:0.8;" x="257.718855" xlink:href="#mf542624fbd" y="305.0208"/>
      </g>
     </g>
     <g id="text_3">
      <!-- 0 -->
      <defs>
       <path d="M 31.78125 66.40625 
Q 24.171875 66.40625 20.328125 58.90625 
Q 16.5 51.421875 16.5 36.375 
Q 16.5 21.390625 20.328125 13.890625 
Q 24.171875 6.390625 31.78125 6.390625 
Q 39.453125 6.390625 43.28125 13.890625 
Q 47.125 21.390625 47.125 36.375 
Q 47.125 51.421875 43.28125 58.90625 
Q 39.453125 66.40625 31.78125 66.40625 
M 31.78125 74.21875 
Q 44.046875 74.21875 50.515625 64.515625 
Q 56.984375 54.828125 56.984375 36.375 
Q 56.984375 17.96875 50.515625 8.265625 
Q 44.046875 -1.421875 31.78125 -1.421875 
Q 19.53125 -1.421875 13.0625 8.265625 
Q 6.59375 17.96875 6.59375 36.375 
Q 6.59375 54.828125 13.0625 64.515625 
Q 19.53125 74.21875 31.78125 74.21875 
" id="DejaVuSans-30"/>
      </defs>
      <g transform="translate(254.537605 319.619237)scale(0.1 -0.1)">
       <use xlink:href="#DejaVuSans-30"/>
      </g>
     </g>
    </g>
    <g id="xtick_4">
     <g id="line2d_7">
      <path clip-path="url(#pe92652f7f0)" d="M 326.772964 305.0208 
L 326.772964 41.1264 
" style="fill:none;stroke:#b0b0b0;stroke-linecap:square;stroke-width:0.8;"/>
     </g>
     <g id="line2d_8">
      <g>
       <use style="stroke:#000000;stroke-width:0.8;" x="326.772964" xlink:href="#mf542624fbd" y="305.0208"/>
      </g>
     </g>
     <g id="text_4">
      <!-- 2 -->
      <g transform="translate(323.591714 319.619237)scale(0.1 -0.1)">
       <use xlink:href="#DejaVuSans-32"/>
      </g>
     </g>
    </g>
    <g id="xtick_5">
     <g id="line2d_9">
      <path clip-path="url(#pe92652f7f0)" d="M 395.827073 305.0208 
L 395.827073 41.1264 
" style="fill:none;stroke:#b0b0b0;stroke-linecap:square;stroke-width:0.8;"/>
     </g>
     <g id="line2d_10">
      <g>
       <use style="stroke:#000000;stroke-width:0.8;" x="395.827073" xlink:href="#mf542624fbd" y="305.0208"/>
      </g>
     </g>
     <g id="text_5">
      <!-- 4 -->
      <g transform="translate(392.645823 319.619237)scale(0.1 -0.1)">
       <use xlink:href="#DejaVuSans-34"/>
      </g>
     </g>
    </g>
    <g id="text_6">
     <!-- theta -->
     <defs>
      <path d="M 18.3125 70.21875 
L 18.3125 54.6875 
L 36.8125 54.6875 
L 36.8125 47.703125 
L 18.3125 47.703125 
L 18.3125 18.015625 
Q 18.3125 11.328125 20.140625 9.421875 
Q 21.96875 7.515625 27.59375 7.515625 
L 36.8125 7.515625 
L 36.8125 0 
L 27.59375 0 
Q 17.1875 0 13.234375 3.875 
Q 9.28125 7.765625 9.28125 18.015625 
L 9.28125 47.703125 
L 2.6875 47.703125 
L 2.6875 54.6875 
L 9.28125 54.6875 
L 9.28125 70.21875 
z
" id="DejaVuSans-74"/>
      <path d="M 54.890625 33.015625 
L 54.890625 0 
L 45.90625 0 
L 45.90625 32.71875 
Q 45.90625 40.484375 42.875 44.328125 
Q 39.84375 48.1875 33.796875 48.1875 
Q 26.515625 48.1875 22.3125 43.546875 
Q 18.109375 38.921875 18.109375 30.90625 
L 18.109375 0 
L 9.078125 0 
L 9.078125 75.984375 
L 18.109375 75.984375 
L 18.109375 46.1875 
Q 21.34375 51.125 25.703125 53.5625 
Q 30.078125 56 35.796875 56 
Q 45.21875 56 50.046875 50.171875 
Q 54.890625 44.34375 54.890625 33.015625 
" id="DejaVuSans-68"/>
      <path d="M 56.203125 29.59375 
L 56.203125 25.203125 
L 14.890625 25.203125 
Q 15.484375 15.921875 20.484375 11.0625 
Q 25.484375 6.203125 34.421875 6.203125 
Q 39.59375 6.203125 44.453125 7.46875 
Q 49.3125 8.734375 54.109375 11.28125 
L 54.109375 2.78125 
Q 49.265625 0.734375 44.1875 -0.34375 
Q 39.109375 -1.421875 33.890625 -1.421875 
Q 20.796875 -1.421875 13.15625 6.1875 
Q 5.515625 13.8125 5.515625 26.8125 
Q 5.515625 40.234375 12.765625 48.109375 
Q 20.015625 56 32.328125 56 
Q 43.359375 56 49.78125 48.890625 
Q 56.203125 41.796875 56.203125 29.59375 
M 47.21875 32.234375 
Q 47.125 39.59375 43.09375 43.984375 
Q 39.0625 48.390625 32.421875 48.390625 
Q 24.90625 48.390625 20.390625 44.140625 
Q 15.875 39.890625 15.1875 32.171875 
z
" id="DejaVuSans-65"/>
      <path d="M 34.28125 27.484375 
Q 23.390625 27.484375 19.1875 25 
Q 14.984375 22.515625 14.984375 16.5 
Q 14.984375 11.71875 18.140625 8.90625 
Q 21.296875 6.109375 26.703125 6.109375 
Q 34.1875 6.109375 38.703125 11.40625 
Q 43.21875 16.703125 43.21875 25.484375 
L 43.21875 27.484375 
z
M 52.203125 31.203125 
L 52.203125 0 
L 43.21875 0 
L 43.21875 8.296875 
Q 40.140625 3.328125 35.546875 0.953125 
Q 30.953125 -1.421875 24.3125 -1.421875 
Q 15.921875 -1.421875 10.953125 3.296875 
Q 6 8.015625 6 15.921875 
Q 6 25.140625 12.171875 29.828125 
Q 18.359375 34.515625 30.609375 34.515625 
L 43.21875 34.515625 
L 43.21875 35.40625 
Q 43.21875 41.609375 39.140625 45 
Q 35.0625 48.390625 27.6875 48.390625 
Q 23 48.390625 18.546875 47.265625 
Q 14.109375 46.140625 10.015625 43.890625 
L 10.015625 52.203125 
Q 14.9375 54.109375 19.578125 55.046875 
Q 24.21875 56 28.609375 56 
Q 40.484375 56 46.34375 49.84375 
Q 52.203125 43.703125 52.203125 31.203125 
" id="DejaVuSans-61"/>
     </defs>
     <g transform="translate(222.930312 333.297362)scale(0.1 -0.1)">
      <use xlink:href="#DejaVuSans-74"/>
      <use x="39.208984" xlink:href="#DejaVuSans-68"/>
      <use x="102.587891" xlink:href="#DejaVuSans-65"/>
      <use x="164.111328" xlink:href="#DejaVuSans-74"/>
      <use x="203.320312" xlink:href="#DejaVuSans-61"/>
     </g>
    </g>
   </g>
   <g id="matplotlib.axis_2">
    <g id="ytick_1">
     <g id="line2d_11">
      <path clip-path="url(#pe92652f7f0)" d="M 57.6 283.581253 
L 414.72 283.581253 
" style="fill:none;stroke:#b0b0b0;stroke-linecap:square;stroke-width:0.8;"/>
     </g>
     <g id="line2d_12">
      <defs>
       <path d="M 0 0 
L -3.5 0 
" id="m05ec95dd46" style="stroke:#000000;stroke-width:0.8;"/>
      </defs>
      <g>
       <use style="stroke:#000000;stroke-width:0.8;" x="57.6" xlink:href="#m05ec95dd46" y="283.581253"/>
      </g>
     </g>
     <g id="text_7">
      <!-- −2 -->
      <g transform="translate(35.857813 287.380472)scale(0.1 -0.1)">
       <use xlink:href="#DejaVuSans-2212"/>
       <use x="83.789062" xlink:href="#DejaVuSans-32"/>
      </g>
     </g>
    </g>
    <g id="ytick_2">
     <g id="line2d_13">
      <path clip-path="url(#pe92652f7f0)" d="M 57.6 228.89447 
L 414.72 228.89447 
" style="fill:none;stroke:#b0b0b0;stroke-linecap:square;stroke-width:0.8;"/>
     </g>
     <g id="line2d_14">
      <g>
       <use style="stroke:#000000;stroke-width:0.8;" x="57.6" xlink:href="#m05ec95dd46" y="228.89447"/>
      </g>
     </g>
     <g id="text_8">
      <!-- −1 -->
      <defs>
       <path d="M 12.40625 8.296875 
L 28.515625 8.296875 
L 28.515625 63.921875 
L 10.984375 60.40625 
L 10.984375 69.390625 
L 28.421875 72.90625 
L 38.28125 72.90625 
L 38.28125 8.296875 
L 54.390625 8.296875 
L 54.390625 0 
L 12.40625 0 
z
" id="DejaVuSans-31"/>
      </defs>
      <g transform="translate(35.857813 232.693688)scale(0.1 -0.1)">
       <use xlink:href="#DejaVuSans-2212"/>
       <use x="83.789062" xlink:href="#DejaVuSans-31"/>
      </g>
     </g>
    </g>
    <g id="ytick_3">
     <g id="line2d_15">
      <path clip-path="url(#pe92652f7f0)" d="M 57.6 174.207686 
L 414.72 174.207686 
" style="fill:none;stroke:#b0b0b0;stroke-linecap:square;stroke-width:0.8;"/>
     </g>
     <g id="line2d_16">
      <g>
       <use style="stroke:#000000;stroke-width:0.8;" x="57.6" xlink:href="#m05ec95dd46" y="174.207686"/>
      </g>
     </g>
     <g id="text_9">
      <!-- 0 -->
      <g transform="translate(44.2375 178.006905)scale(0.1 -0.1)">
       <use xlink:href="#DejaVuSans-30"/>
      </g>
     </g>
    </g>
    <g id="ytick_4">
     <g id="line2d_17">
      <path clip-path="url(#pe92652f7f0)" d="M 57.6 119.520903 
L 414.72 119.520903 
" style="fill:none;stroke:#b0b0b0;stroke-linecap:square;stroke-width:0.8;"/>
     </g>
     <g id="line2d_18">
      <g>
       <use style="stroke:#000000;stroke-width:0.8;" x="57.6" xlink:href="#m05ec95dd46" y="119.520903"/>
      </g>
     </g>
     <g id="text_10">
      <!-- 1 -->
      <g transform="translate(44.2375 123.320122)scale(0.1 -0.1)">
       <use xlink:href="#DejaVuSans-31"/>
      </g>
     </g>
    </g>
    <g id="ytick_5">
     <g id="line2d_19">
      <path clip-path="url(#pe92652f7f0)" d="M 57.6 64.834119 
L 414.72 64.834119 
" style="fill:none;stroke:#b0b0b0;stroke-linecap:square;stroke-width:0.8;"/>
     </g>
     <g id="line2d_20">
      <g>
       <use style="stroke:#000000;stroke-width:0.8;" x="57.6" xlink:href="#m05ec95dd46" y="64.834119"/>
      </g>
     </g>
     <g id="text_11">
      <!-- 2 -->
      <g transform="translate(44.2375 68.633338)scale(0.1 -0.1)">
       <use xlink:href="#DejaVuSans-32"/>
      </g>
     </g>
    </g>
    <g id="text_12">
     <!-- omega -->
     <defs>
      <path d="M 30.609375 48.390625 
Q 23.390625 48.390625 19.1875 42.75 
Q 14.984375 37.109375 14.984375 27.296875 
Q 14.984375 17.484375 19.15625 11.84375 
Q 23.34375 6.203125 30.609375 6.203125 
Q 37.796875 6.203125 41.984375 11.859375 
Q 46.1875 17.53125 46.1875 27.296875 
Q 46.1875 37.015625 41.984375 42.703125 
Q 37.796875 48.390625 30.609375 48.390625 
M 30.609375 56 
Q 42.328125 56 49.015625 48.375 
Q 55.71875 40.765625 55.71875 27.296875 
Q 55.71875 13.875 49.015625 6.21875 
Q 42.328125 -1.421875 30.609375 -1.421875 
Q 18.84375 -1.421875 12.171875 6.21875 
Q 5.515625 13.875 5.515625 27.296875 
Q 5.515625 40.765625 12.171875 48.375 
Q 18.84375 56 30.609375 56 
" id="DejaVuSans-6f"/>
      <path d="M 52 44.1875 
Q 55.375 50.25 60.0625 53.125 
Q 64.75 56 71.09375 56 
Q 79.640625 56 84.28125 50.015625 
Q 88.921875 44.046875 88.921875 33.015625 
L 88.921875 0 
L 79.890625 0 
L 79.890625 32.71875 
Q 79.890625 40.578125 77.09375 44.375 
Q 74.3125 48.1875 68.609375 48.1875 
Q 61.625 48.1875 57.5625 43.546875 
Q 53.515625 38.921875 53.515625 30.90625 
L 53.515625 0 
L 44.484375 0 
L 44.484375 32.71875 
Q 44.484375 40.625 41.703125 44.40625 
Q 38.921875 48.1875 33.109375 48.1875 
Q 26.21875 48.1875 22.15625 43.53125 
Q 18.109375 38.875 18.109375 30.90625 
L 18.109375 0 
L 9.078125 0 
L 9.078125 54.6875 
L 18.109375 54.6875 
L 18.109375 46.1875 
Q 21.1875 51.21875 25.484375 53.609375 
Q 29.78125 56 35.6875 56 
Q 41.65625 56 45.828125 52.96875 
Q 50 49.953125 52 44.1875 
" id="DejaVuSans-6d"/>
      <path d="M 45.40625 27.984375 
Q 45.40625 37.75 41.375 43.109375 
Q 37.359375 48.484375 30.078125 48.484375 
Q 22.859375 48.484375 18.828125 43.109375 
Q 14.796875 37.75 14.796875 27.984375 
Q 14.796875 18.265625 18.828125 12.890625 
Q 22.859375 7.515625 30.078125 7.515625 
Q 37.359375 7.515625 41.375 12.890625 
Q 45.40625 18.265625 45.40625 27.984375 
M 54.390625 6.78125 
Q 54.390625 -7.171875 48.1875 -13.984375 
Q 42 -20.796875 29.203125 -20.796875 
Q 24.46875 -20.796875 20.265625 -20.09375 
Q 16.0625 -19.390625 12.109375 -17.921875 
L 12.109375 -9.1875 
Q 16.0625 -11.328125 19.921875 -12.34375 
Q 23.78125 -13.375 27.78125 -13.375 
Q 36.625 -13.375 41.015625 -8.765625 
Q 45.40625 -4.15625 45.40625 5.171875 
L 45.40625 9.625 
Q 42.625 4.78125 38.28125 2.390625 
Q 33.9375 0 27.875 0 
Q 17.828125 0 11.671875 7.65625 
Q 5.515625 15.328125 5.515625 27.984375 
Q 5.515625 40.671875 11.671875 48.328125 
Q 17.828125 56 27.875 56 
Q 33.9375 56 38.28125 53.609375 
Q 42.625 51.21875 45.40625 46.390625 
L 45.40625 54.6875 
L 54.390625 54.6875 
z
" id="DejaVuSans-67"/>
     </defs>
     <g transform="translate(29.778125 190.318131)rotate(-90)scale(0.1 -0.1)">
      <use xlink:href="#DejaVuSans-6f"/>
      <use x="61.181641" xlink:href="#DejaVuSans-6d"/>
      <use x="158.59375" xlink:href="#DejaVuSans-65"/>
      <use x="220.117188" xlink:href="#DejaVuSans-67"/>
      <use x="283.59375" xlink:href="#DejaVuSans-61"/>
     </g>
    </g>
   </g>
   <g id="line2d_21">
    <path clip-path="url(#pe92652f7f0)" d="M 258.064125 174.207686 
L 258.168478 172.503754 
L 258.556888 169.5487 
L 259.391887 165.485822 
L 260.791886 160.660546 
L 261.728475 158.076217 
L 262.830153 155.439153 
L 264.098802 152.794986 
L 265.533464 150.187982 
L 267.130449 147.660337 
L 268.883485 145.25147 
L 270.783915 142.997354 
L 272.820938 140.929904 
L 274.98188 139.076453 
L 277.252495 137.45936 
L 279.61729 136.095772 
L 282.059855 134.997564 
L 284.563195 134.171479 
L 287.110042 133.619454 
L 289.683145 133.339124 
L 292.26552 133.324467 
L 294.840662 133.566567 
L 297.392696 134.054427 
L 299.906487 134.775804 
L 302.36769 135.718012 
L 304.762756 136.868655 
L 307.078892 138.216268 
L 309.303987 139.750836 
L 311.426503 141.464197 
L 313.435353 143.350309 
L 315.319761 145.405403 
L 317.069115 147.628028 
L 318.672823 150.018994 
L 320.120172 152.581238 
L 321.400205 155.319615 
L 322.501603 158.240639 
L 323.41259 161.35216 
L 324.120863 164.663001 
L 324.613544 168.182543 
L 324.877154 171.920255 
L 324.897629 175.885155 
L 324.660366 180.085188 
L 324.150311 184.526501 
L 323.352103 189.212591 
L 322.25027 194.143294 
L 320.829495 199.313596 
L 319.074967 204.712253 
L 316.972824 210.320228 
L 314.510695 216.108969 
L 311.678359 222.038634 
L 308.468515 228.056402 
L 304.877641 234.095119 
L 300.906929 240.0726 
L 296.563231 245.891988 
L 291.85993 251.443604 
L 286.817652 256.608651 
L 281.464663 261.264957 
L 275.836852 265.294625 
L 269.977187 268.59301 
L 263.934576 271.078029 
L 257.762173 272.698462 
L 251.515232 273.439836 
L 245.248686 273.326789 
L 239.014711 272.421392 
L 232.860518 270.817665 
L 226.826585 268.633246 
L 220.945477 265.99956 
L 215.241283 263.051979 
L 209.729654 259.921166 
L 199.307959 253.571256 
L 189.664135 247.703716 
L 185.106739 245.108467 
L 180.704623 242.789855 
L 176.439591 240.768885 
L 172.292483 239.055573 
L 168.243792 237.651148 
L 164.274161 236.54998 
L 160.364761 235.741172 
L 156.497586 235.20978 
L 152.655675 234.937679 
L 148.823299 234.904093 
L 144.986117 235.085834 
L 141.131328 235.457298 
L 137.24783 235.990258 
L 129.359862 237.412522 
L 117.154182 239.859464 
L 112.985579 240.575928 
L 108.775784 241.154859 
L 104.535281 241.538803 
L 100.27824 241.668915 
L 96.022536 241.486843 
L 91.789658 240.937038 
L 87.604444 239.969365 
L 83.494654 238.541807 
L 79.490379 236.623046 
L 75.623289 234.194645 
L 71.925769 231.252613 
L 68.429976 227.808163 
L 65.166882 223.887628 
L 62.165339 219.531505 
L 59.451238 214.792807 
L 57.046785 209.734871 
L 54.969924 204.428884 
L 53.233925 198.951329 
L 51.847124 193.381539 
L 50.812818 187.799498 
L 50.129285 182.283928 
L 49.789914 176.91071 
L 49.783425 171.75158 
L 50.094172 166.873069 
L 50.702492 162.335627 
L 51.585118 158.192897 
L 52.715628 154.491103 
L 54.064927 151.268566 
L 55.60176 148.555353 
L 57.293241 146.373105 
L 59.105381 144.735065 
L 61.003614 143.646344 
L 62.953296 143.104422 
L 64.920164 143.099891 
L 66.870742 143.617383 
L 68.772686 144.636637 
L 70.595055 146.133637 
L 72.308513 148.081727 
L 73.885463 150.452641 
L 75.300122 153.217374 
L 76.528541 156.346848 
L 77.5486 159.812342 
L 78.339974 163.585665 
L 78.884103 167.639084 
L 79.164173 171.945016 
L 79.165117 176.475511 
L 78.873664 181.201574 
L 78.278427 186.092356 
L 77.37005 191.114273 
L 76.141405 196.230131 
L 74.587848 201.39832 
L 72.707521 206.572185 
L 70.50168 211.699676 
L 67.975038 216.723404 
L 65.136087 221.581214 
L 61.997363 226.20738 
L 58.575619 230.534475 
L 54.891853 234.495899 
L 50.971164 238.028965 
L 46.842394 241.078323 
L 42.537558 243.599406 
L 38.091061 245.561513 
L 33.538747 246.950149 
L 28.916825 247.768273 
L 24.260764 248.036266 
L 19.604229 247.790581 
L 14.97814 247.081225 
L 10.409916 245.968392 
L 5.922957 244.518632 
L 1.53636 242.800973 
L -1 241.662315 
M -1 68.568792 
L 2.571256 67.285419 
L 9.372955 65.866014 
L 16.229475 65.570075 
L 23.066315 66.503196 
L 29.803783 68.722757 
L 36.360268 72.231594 
L 42.655712 76.978211 
L 48.614868 82.863449 
L 54.169953 89.752107 
L 59.262492 97.487113 
L 63.844242 105.903683 
L 67.877281 114.841361 
L 71.333446 124.152734 
L 74.193325 133.708428 
L 76.44506 143.39873 
L 78.083119 153.132531 
L 79.107209 162.83442 
L 79.521405 172.440699 
L 79.333554 181.894936 
L 78.55495 191.143546 
L 77.200292 200.131768 
L 75.28786 208.800328 
L 72.839886 217.083086 
L 69.883029 224.90593 
L 66.448871 232.187188 
L 62.574339 238.83976 
L 58.301932 244.775011 
L 53.679656 249.908256 
L 48.760565 254.165382 
L 43.601875 257.489786 
L 38.263656 259.848657 
L 32.807172 261.237544 
L 27.293012 261.682353 
L 21.77919 261.238345 
L 16.319398 259.986208 
L 10.961593 258.025838 
L 5.747013 255.468768 
L 0.709694 252.430337 
L -1 251.224884 
M -1 71.771815 
L 4.549001 66.567105 
L 11.521732 61.134549 
L 18.808208 56.660703 
L 26.342285 53.31739 
L 34.048286 51.231521 
L 41.844405 50.467948 
L 49.646989 51.019245 
L 57.375186 52.805033 
L 64.9553 55.681154 
L 72.32432 59.456663 
L 79.43222 63.914924 
L 86.242899 68.834723 
L 92.73389 74.008052 
L 98.895097 79.252706 
L 110.238071 89.393292 
L 120.362114 98.468636 
L 125.015558 102.491522 
L 129.426342 106.154937 
L 133.616992 109.466356 
L 137.60921 112.443905 
L 141.423307 115.112939 
L 145.077836 117.50335 
L 148.589378 119.647505 
L 155.239389 123.330225 
L 161.464316 126.421785 
L 175.487165 133.055161 
L 180.516206 135.740317 
L 185.194254 138.627936 
L 187.392569 140.168357 
L 189.491437 141.77813 
L 191.486466 143.457065 
L 193.37338 145.201863 
L 195.148202 147.006175 
L 196.807454 148.860723 
L 199.76886 152.669915 
L 202.246105 156.504908 
L 204.245426 160.211332 
L 205.793806 163.617061 
L 207.384481 167.776082 
L 208.333641 170.304363 
L 208.781474 170.854537 
L 208.995146 170.749139 
L 209.223851 170.377005 
L 209.795058 168.806164 
L 211.886715 162.304009 
L 213.686641 157.436042 
L 216.162897 151.615752 
L 217.689984 148.399467 
L 219.425613 145.015431 
L 221.379346 141.497208 
L 223.558456 137.883651 
L 225.967595 134.218902 
L 228.608472 130.552108 
L 231.479544 126.936808 
L 234.575778 123.429899 
L 237.88848 120.090164 
L 241.405234 116.976338 
L 245.109976 114.144814 
L 248.983222 111.647072 
L 253.002464 109.527057 
L 257.142719 107.81873 
L 261.377233 106.544059 
L 265.678278 105.711688 
L 270.018017 105.316457 
L 274.369364 105.339856 
L 278.706792 105.751371 
L 283.007023 106.510578 
L 287.249581 107.569757 
L 291.417155 108.876737 
L 295.495794 110.377741 
L 299.474928 112.019941 
L 307.108374 115.533781 
L 327.383728 125.447132 
L 333.371423 128.074694 
L 339.051327 130.327814 
L 344.467647 132.260683 
L 352.172914 134.736321 
L 361.76271 137.736938 
L 366.269812 139.320093 
L 370.567011 141.074773 
L 374.627727 143.07709 
L 378.41652 145.390651 
L 380.195882 146.679786 
L 381.890886 148.063215 
L 383.49548 149.543872 
L 385.003468 151.123294 
L 386.408603 152.801555 
L 387.704682 154.577214 
L 388.885642 156.447301 
L 389.945652 158.407332 
L 390.879215 160.45136 
L 391.68125 162.572064 
L 392.347181 164.760876 
L 392.873006 167.008142 
L 393.255364 169.303318 
L 393.49158 171.635187 
L 393.579704 173.992101 
L 393.518527 176.362227 
L 393.307588 178.733809 
L 392.947158 181.095413 
L 392.438214 183.436165 
L 391.782395 185.745971 
L 390.98195 188.015694 
L 390.039669 190.237318 
L 388.95881 192.404057 
L 387.743018 194.510433 
L 386.396243 196.552305 
L 384.922653 198.526853 
L 383.326556 200.432533 
L 381.612316 202.268972 
L 379.78429 204.036843 
L 377.846762 205.737699 
L 375.803896 207.37378 
L 371.418 210.462649 
L 366.656485 213.326166 
L 361.546598 215.981923 
L 356.114171 218.433145 
L 350.386031 220.65935 
L 344.393541 222.607863 
L 341.310299 223.451143 
L 338.177091 224.187745 
L 335.001198 224.800086 
L 331.791077 225.268399 
L 328.556496 225.571139 
L 325.308624 225.685551 
L 322.060084 225.588417 
L 318.824958 225.256951 
L 315.618727 224.669828 
L 312.458142 223.808299 
L 309.361027 222.657325 
L 306.346008 221.206663 
L 303.432184 219.451839 
L 300.63873 217.394904 
L 297.984474 215.044954 
L 295.487439 212.418332 
L 293.16439 209.538523 
L 291.030394 206.435737 
L 289.098416 203.14621 
L 287.378966 199.711287 
L 285.87981 196.176335 
L 284.605755 192.589561 
L 283.558504 189.000796 
L 282.736595 185.460304 
L 282.13541 182.01765 
L 281.747248 178.720675 
L 281.561468 175.614588 
L 281.564678 172.741188 
L 281.740969 170.138238 
L 282.072191 167.83897 
L 282.538247 165.871743 
L 283.11741 164.259833 
L 283.786645 163.021368 
L 284.521932 162.169381 
L 285.298589 161.711976 
L 286.091568 161.652592 
L 286.875743 161.990341 
L 287.626172 162.720384 
L 288.318331 163.834334 
L 288.928328 165.320639 
L 289.433092 167.164928 
L 289.81054 169.35029 
L 290.039732 171.857471 
L 290.101014 174.664965 
L 289.976163 177.749011 
L 289.648527 181.08348 
L 289.103187 184.639692 
L 288.327119 188.38615 
L 287.309386 192.288269 
L 286.041338 196.308106 
L 284.516835 200.404174 
L 282.732466 204.531391 
L 280.68778 208.641232 
L 278.385486 212.682166 
L 275.831624 216.60041 
L 273.035673 220.341066 
L 270.010573 223.849628 
L 266.772646 227.073812 
L 263.341392 229.965632 
L 259.739148 232.483566 
L 255.990614 234.594616 
L 252.122256 236.276068 
L 248.161616 237.516737 
L 244.136562 238.31754 
L 240.074522 238.691317 
L 236.001763 238.661879 
L 231.942741 238.262401 
L 227.919577 237.5333 
L 223.951675 236.519824 
L 220.055494 235.269575 
L 216.244475 233.830169 
L 212.529108 232.247195 
L 205.413705 228.813368 
L 198.743081 225.241133 
L 189.577261 219.993527 
L 181.375984 215.066597 
L 176.415112 211.92784 
L 171.847709 208.819733 
L 167.676138 205.640758 
L 165.743233 203.989464 
L 163.916434 202.277449 
L 162.200041 200.489985 
L 160.599279 198.612464 
L 159.12029 196.630525 
L 157.770112 194.530149 
L 156.556654 192.297736 
L 155.488672 189.920151 
L 154.575733 187.38475 
L 153.828189 184.679379 
L 153.257143 181.792343 
L 152.874424 178.712357 
L 152.692564 175.428468 
L 152.724775 171.92996 
L 152.984945 168.206252 
L 153.487626 164.246803 
L 154.248036 160.041043 
L 155.282063 155.578374 
L 156.606261 150.848277 
L 158.237841 145.840584 
L 160.19463 140.546001 
L 162.494995 134.956972 
L 165.157688 129.069003 
L 168.201605 122.882559 
L 171.645385 116.405661 
L 175.506838 109.657279 
L 179.802121 102.671518 
L 184.544633 95.50249 
L 189.743589 88.229481 
L 195.402273 80.961765 
L 201.516029 73.841959 
L 208.07012 67.046494 
L 215.037692 60.781544 
L 222.378183 55.273057 
L 230.036551 50.750319 
L 237.94374 47.424066 
L 246.018615 45.462089 
L 254.171404 44.966887 
L 262.308349 45.960447 
L 270.336991 48.380058 
L 278.171323 52.086409 
L 285.736084 56.882036 
L 292.969686 62.535752 
L 299.82553 68.80787 
L 306.271839 75.471812 
L 312.290304 82.329518 
L 317.87398 89.220018 
L 323.024833 96.021984 
L 327.751281 102.651842 
L 332.065942 109.059168 
L 335.983724 115.22083 
L 339.520297 121.134938 
L 342.690926 126.815263 
L 345.50964 132.286459 
L 347.988671 137.580185 
L 350.138116 142.732111 
L 351.965749 147.779694 
L 353.476968 152.760609 
L 354.674812 157.711692 
L 355.560041 162.668289 
L 356.131238 167.663898 
L 356.384935 172.730021 
L 356.315738 177.896139 
L 355.916456 183.189738 
L 355.178222 188.636316 
L 354.090627 194.259291 
L 352.641854 200.079719 
L 350.818846 206.115734 
L 348.607517 212.381586 
L 345.993039 218.886174 
L 342.960247 225.630926 
L 339.494196 232.606946 
L 335.580918 239.791384 
L 331.208444 247.143066 
L 326.368112 254.597685 
L 321.056173 262.063045 
L 315.275686 269.41525 
L 309.038585 276.497119 
L 302.367735 283.120323 
L 295.2987 289.072734 
L 287.880848 294.131893 
L 280.177429 298.08429 
L 272.264288 300.748377 
L 264.227114 301.997554 
L 256.157356 301.778267 
L 248.147276 300.118848 
L 240.284806 297.126698 
L 232.648941 292.974379 
L 225.30628 287.877937 
L 218.309056 282.072262 
L 211.694691 275.788212 
L 205.48664 269.2348 
L 199.696165 262.587889 
L 194.324619 255.985178 
L 189.365873 249.526209 
L 184.808635 243.275773 
L 180.638485 237.269161 
L 176.839549 231.518039 
L 173.395812 226.016155 
L 170.292085 220.744396 
L 167.514677 215.67501 
L 165.051833 210.774957 
L 162.893981 206.008464 
L 161.033844 201.33888 
L 159.466452 196.729973 
L 158.189085 192.146771 
L 157.20118 187.556059 
L 156.504208 182.92661 
L 156.101545 178.229237 
L 155.998351 173.436713 
L 156.201446 168.523637 
L 156.719198 163.466274 
L 157.561426 158.242462 
L 158.739298 152.831616 
L 160.265229 147.214938 
L 162.15275 141.375894 
L 164.416345 135.30109 
L 167.071209 128.981652 
L 170.132903 122.415229 
L 173.616862 115.608746 
L 177.537699 108.581957 
L 181.90826 101.371774 
L 186.738395 94.037159 
L 192.033399 86.664122 
L 197.792167 79.37002 
L 204.005123 72.30594 
L 210.652104 65.655667 
L 217.700449 59.629666 
L 225.103672 54.452933 
L 232.801086 50.346714 
L 240.718747 47.505673 
L 248.77189 46.074096 
L 256.868773 46.125886 
L 264.915543 47.653096 
L 272.82146 50.566047 
L 280.503743 54.705127 
L 287.891372 59.861452 
L 294.92742 65.801638 
L 301.569832 72.291726 
L 307.79082 79.116512 
L 313.575235 86.092398 
L 318.918342 93.073702 
L 323.823373 99.953548 
L 328.299151 106.660962 
L 332.357978 113.155825 
L 336.01387 119.422976 
L 339.281165 125.466377 
L 342.17349 131.303867 
L 344.703022 136.962763 
L 346.880013 142.476339 
L 348.712495 147.881146 
L 350.206143 153.215049 
L 351.364239 158.51585 
L 352.187702 163.820381 
L 352.675174 169.163922 
L 352.823126 174.579868 
L 352.625989 180.099517 
L 352.076283 185.751909 
L 351.164776 191.563607 
L 349.880642 197.558331 
L 348.211666 203.756341 
L 346.144485 210.173445 
L 343.664918 216.819515 
L 340.758399 223.696398 
L 337.410574 230.79511 
L 333.608086 238.092292 
L 329.339618 245.545996 
L 324.597209 253.091088 
L 319.377862 260.634759 
L 313.685411 268.053086 
L 307.532533 275.189832 
L 300.942741 281.858968 
L 293.952046 287.852299 
L 286.609965 292.953007 
L 278.97949 296.954661 
L 271.135731 299.683676 
L 263.163133 301.021392 
L 255.151427 300.921213 
L 247.190773 299.416616 
L 239.366744 296.617874 
L 231.755867 292.698166 
L 224.422298 287.872328 
L 217.415941 282.372906 
L 210.772052 276.427998 
L 204.512093 270.244048 
L 198.645478 263.994934 
L 193.171814 257.817121 
L 188.08328 251.80968 
L 179.006538 240.536831 
L 171.283092 230.382493 
L 164.774665 221.265059 
L 161.938121 217.027485 
L 159.363615 212.959338 
L 157.041552 209.02568 
L 154.96453 205.192158 
L 153.127274 201.42592 
L 151.526518 197.696188 
L 150.160867 193.974569 
L 149.03064 190.235167 
L 148.137712 186.454543 
L 147.485364 182.611555 
L 147.078148 178.687118 
L 146.921761 174.663903 
L 147.022949 170.525997 
L 147.389429 166.258552 
L 148.029827 161.84745 
L 148.953648 157.279005 
L 150.171254 152.539762 
L 151.69385 147.616427 
L 153.533471 142.495992 
L 155.702959 137.166141 
L 158.215888 131.616029 
L 161.086441 125.83753 
L 164.329183 119.827088 
L 167.95869 113.588269 
L 171.989006 107.135101 
L 176.432851 100.496211 
L 181.30055 93.719627 
L 186.59865 86.877904 
L 192.328212 80.072929 
L 198.482841 73.439375 
L 205.046576 67.145475 
L 211.991849 61.389527 
L 219.277845 56.390813 
L 226.849628 52.374341 
L 234.638403 49.550258 
L 242.563188 48.090568 
L 250.53393 48.107321 
L 258.455825 49.637118 
L 266.234313 52.635733 
L 273.780042 56.984331 
L 281.013113 62.50579 
L 287.866064 68.987246 
L 294.285371 76.204006 
L 300.231503 83.940554 
L 305.677826 92.00601 
L 310.608726 100.243158 
L 315.017354 108.531692 
L 318.903317 116.787033 
L 322.27053 124.95636 
L 325.125385 133.013231 
L 327.475257 140.951861 
L 329.327382 148.781694 
L 330.688045 156.522621 
L 331.562055 164.200912 
L 331.95245 171.845834 
L 331.860402 179.486807 
L 331.285288 187.150902 
L 330.22491 194.860513 
L 328.675865 202.631006 
L 326.634068 210.468198 
L 324.095441 218.365578 
L 321.056785 226.301247 
L 317.516855 234.234704 
L 313.477632 242.103762 
L 308.945777 249.822101 
L 303.934194 257.278183 
L 298.463606 264.336427 
L 292.56395 270.841582 
L 286.275378 276.626973 
L 279.648618 281.526708 
L 272.744448 285.39102 
L 265.632161 288.102815 
L 258.387003 289.592649 
L 251.086814 289.849132 
L 243.808208 288.92237 
L 236.62279 286.919559 
L 229.593879 283.993578 
L 222.774112 280.326994 
L 216.204124 276.114546 
L 209.912301 271.547034 
L 203.915448 266.798637 
L 198.22013 262.018588 
L 182.892391 248.545058 
L 174.002062 240.868713 
L 166.004944 234.395618 
L 158.753744 229.028678 
L 152.120421 224.573487 
L 146.004121 220.801859 
L 130.17032 211.457293 
L 125.65601 208.435101 
L 121.531568 205.270768 
L 117.818627 201.913115 
L 116.124405 200.15748 
L 114.542583 198.353612 
L 113.076048 196.506912 
L 111.727272 194.625178 
L 109.389922 190.798734 
L 107.536704 186.977351 
L 106.159145 183.28836 
L 105.231642 179.874214 
L 104.71014 176.883161 
L 104.531945 174.460854 
L 104.616493 172.743743 
L 104.86681 171.854742 
L 105.019796 171.754939 
L 105.171377 171.901136 
L 105.30567 172.304241 
L 105.455637 173.91993 
L 105.330586 176.669719 
L 104.783893 180.604509 
L 103.663763 185.754209 
L 102.840562 188.786157 
L 101.816398 192.118675 
L 100.572504 195.744454 
L 99.090703 199.65189 
L 97.353714 203.824113 
L 95.345512 208.237933 
L 93.05177 212.862682 
L 90.46036 217.659068 
L 87.561937 222.578148 
L 84.350572 227.560569 
L 80.82442 232.536292 
L 76.986388 237.425047 
L 72.844738 242.137751 
L 68.413572 246.579105 
L 63.713106 250.651464 
L 58.769666 254.259896 
L 53.615331 257.318128 
L 48.28719 259.754803 
L 42.826209 261.519312 
L 37.275771 262.586368 
L 31.679983 262.958578 
L 26.081894 262.666562 
L 20.521796 261.766549 
L 15.035735 260.335799 
L 9.654373 258.466518 
L 4.402255 256.259148 
L -1 253.660577 
M -1 111.037996 
L 0.472002 111.655766 
L 4.355404 113.839919 
L 8.084737 116.536108 
L 11.627773 119.738546 
L 14.953123 123.426545 
L 18.03116 127.565095 
L 20.834886 132.106207 
L 23.340694 136.990851 
L 25.528993 142.151275 
L 27.384678 147.513495 
L 28.897448 152.999746 
L 30.061973 158.530757 
L 30.877921 164.02775 
L 31.349873 169.414143 
L 31.48714 174.616947 
L 31.303495 179.567918 
L 30.816846 184.204505 
L 30.048852 188.470632 
L 29.024488 192.317355 
L 27.771581 195.703396 
L 26.320311 198.595542 
L 24.702694 200.968887 
L 22.952056 202.806882 
L 21.102505 204.10116 
L 19.188431 204.851128 
L 17.244032 205.063322 
L 15.30289 204.750552 
L 13.397608 203.9309 
L 11.559507 202.626613 
L 9.818403 200.862993 
L 8.202445 198.667343 
L 6.73802 196.068041 
L 5.449709 193.093806 
L 4.360283 189.773181 
L 3.490724 186.134272 
L 2.860255 182.20472 
L 2.486362 178.011926 
L 2.384799 173.583482 
L 2.569553 168.947792 
L 3.052776 164.134823 
L 3.844653 159.176959 
L 4.953227 154.109879 
L 6.384162 148.973387 
L 8.140457 143.812112 
L 10.222131 138.675976 
L 12.625877 133.620292 
L 15.344736 128.705404 
L 18.3678 123.995735 
L 21.680007 119.558185 
L 25.262051 115.459848 
L 29.090458 111.765135 
L 33.137856 108.532458 
L 37.373467 105.810777 
L 41.763807 103.636336 
L 46.273576 102.030017 
L 50.866688 100.99565 
L 55.507371 100.519537 
L 60.161249 100.571312 
L 64.796342 101.106018 
L 69.383887 102.067184 
L 73.898955 103.390503 
L 78.320825 105.007724 
L 82.633108 106.850353 
L 86.823662 108.852854 
L 94.810496 113.104592 
L 105.779018 119.43308 
L 115.606141 125.08283 
L 124.445757 129.863804 
L 144.186616 140.106359 
L 148.332309 142.681061 
L 152.140061 145.474156 
L 153.907238 146.980376 
L 155.576644 148.572497 
L 157.142589 150.25869 
L 158.598907 152.045907 
L 159.939034 153.939829 
L 161.156087 155.944839 
L 162.242948 158.064016 
L 163.192343 160.299164 
L 163.996927 162.650865 
L 164.64935 165.118581 
L 165.142331 167.700786 
L 165.468711 170.395133 
L 165.621499 173.198672 
L 165.593906 176.108081 
L 165.379353 179.119938 
L 164.971476 182.231009 
L 164.364101 185.438537 
L 163.551204 188.740538 
L 162.526857 192.136069 
L 161.28515 195.625464 
L 159.820108 199.210509 
L 158.125595 202.894539 
L 156.195214 206.682417 
L 154.022219 210.580371 
L 151.599434 214.595644 
L 148.919209 218.735906 
L 145.973419 223.008376 
L 142.753529 227.418597 
L 139.250748 231.968803 
L 135.456301 236.655826 
L 131.361853 241.468519 
L 126.960101 246.384742 
L 122.245576 251.367962 
L 117.215662 256.363766 
L 111.871832 261.296622 
L 106.221058 266.067514 
L 100.277332 270.553171 
L 94.063161 274.607775 
L 87.610847 278.067925 
L 80.963348 280.761267 
L 74.174477 282.518643 
L 67.308247 283.188606 
L 60.437279 282.6524 
L 53.640311 280.836766 
L 46.999042 277.722136 
L 40.594645 273.344441 
L 34.504382 267.790227 
L 28.79872 261.186169 
L 23.539219 253.685248 
L 18.777333 245.452194 
L 14.554091 236.650521 
L 10.900508 227.432677 
L 7.838491 217.933907 
L 5.382026 208.269686 
L 3.538431 198.536087 
L 2.309508 188.812248 
L 1.692498 179.164156 
L 1.68078 169.649049 
L 2.26427 160.319936 
L 3.429561 151.229826 
L 5.159803 142.435359 
L 7.434376 133.999564 
L 10.228434 125.993463 
L 13.512386 118.496234 
L 17.25142 111.593725 
L 21.405172 105.375171 
L 25.927665 99.928199 
L 30.767604 95.332479 
L 35.8691 91.6527 
L 41.17283 88.931815 
L 46.617597 87.185635 
L 52.142147 86.399725 
L 57.687107 86.529258 
L 63.196826 87.50191 
L 68.620945 89.223388 
L 73.915567 91.584704 
L 79.04393 94.47012 
L 83.976592 97.764718 
L 88.691167 101.360789 
L 93.171718 105.162565 
L 97.407891 109.089166 
L 101.393933 113.075897 
L 105.127665 117.0742 
L 108.609486 121.050626 
L 111.841475 124.985185 
L 114.826598 128.869393 
L 117.568049 132.704238 
L 120.068711 136.498232 
L 122.330737 140.265647 
L 124.355241 144.024989 
L 126.142068 147.797712 
L 127.689643 151.607176 
L 128.994878 155.477815 
L 130.053127 159.434503 
L 130.858171 163.502065 
L 131.402235 167.70491 
L 131.676025 172.066755 
L 131.668775 176.610386 
L 131.368318 181.357434 
L 130.761164 186.328097 
L 129.832601 191.540769 
L 128.566828 197.011494 
L 126.947125 202.753173 
L 124.956083 208.774419 
L 122.575929 215.077983 
L 119.788953 221.658632 
L 116.578097 228.50042 
L 112.927736 235.573342 
L 108.824685 242.829474 
L 104.259455 250.198867 
L 99.227776 257.585722 
L 93.732317 264.865671 
L 87.784524 271.885272 
L 81.406381 278.465007 
L 74.631844 284.406933 
L 67.507622 289.507572 
L 60.092995 293.57556 
L 52.458408 296.452045 
L 44.682778 298.030502 
L 36.849682 298.271897 
L 29.042821 297.211601 
L 21.341369 294.956253 
L 13.815832 291.671109 
L 6.524921 287.560801 
L -1 282.456703 
L -1 282.456703 
" style="fill:none;stroke:#0000ff;stroke-linecap:square;stroke-width:1.5;"/>
   </g>
   <g id="patch_3">
    <path d="M 57.6 305.0208 
L 57.6 41.1264 
" style="fill:none;stroke:#000000;stroke-linecap:square;stroke-linejoin:miter;stroke-width:0.8;"/>
   </g>
   <g id="patch_4">
    <path d="M 414.72 305.0208 
L 414.72 41.1264 
" style="fill:none;stroke:#000000;stroke-linecap:square;stroke-linejoin:miter;stroke-width:0.8;"/>
   </g>
   <g id="patch_5">
    <path d="M 57.6 305.0208 
L 414.72 305.0208 
" style="fill:none;stroke:#000000;stroke-linecap:square;stroke-linejoin:miter;stroke-width:0.8;"/>
   </g>
   <g id="patch_6">
    <path d="M 57.6 41.1264 
L 414.72 41.1264 
" style="fill:none;stroke:#000000;stroke-linecap:square;stroke-linejoin:miter;stroke-width:0.8;"/>
   </g>
   <g id="text_13">
    <!-- $\theta_0$ = 0.01$^{\circ}$, q = 0.5$kg s^{-1}$ and F = 1.2$N$ -->
    <defs>
     <path d="M 45.515625 34.671875 
L 14.453125 34.671875 
Q 12.359375 20.0625 14.5 13.875 
Q 17.1875 6.25 24.46875 6.25 
Q 31.78125 6.25 37.359375 13.921875 
Q 42.234375 20.65625 45.515625 34.671875 
M 47.015625 42.96875 
Q 48.34375 56.84375 46.625 61.71875 
Q 43.953125 69.4375 36.765625 69.4375 
Q 29.296875 69.4375 23.828125 61.8125 
Q 19.53125 55.671875 16.15625 42.96875 
z
M 38.1875 76.765625 
Q 49.90625 76.765625 54.59375 66.40625 
Q 59.28125 56.109375 55.71875 37.84375 
Q 52.203125 19.625 43.453125 9.28125 
Q 34.765625 -1.125 23.046875 -1.125 
Q 11.28125 -1.125 6.640625 9.28125 
Q 2 19.625 5.515625 37.84375 
Q 9.078125 56.109375 17.71875 66.40625 
Q 26.421875 76.765625 38.1875 76.765625 
" id="DejaVuSans-Oblique-3b8"/>
     <path id="DejaVuSans-20"/>
     <path d="M 10.59375 45.40625 
L 73.1875 45.40625 
L 73.1875 37.203125 
L 10.59375 37.203125 
z
M 10.59375 25.484375 
L 73.1875 25.484375 
L 73.1875 17.1875 
L 10.59375 17.1875 
z
" id="DejaVuSans-3d"/>
     <path d="M 10.6875 12.40625 
L 21 12.40625 
L 21 0 
L 10.6875 0 
z
" id="DejaVuSans-2e"/>
     <path d="M 31.25 40.921875 
Q 27.34375 40.921875 24.65625 38.203125 
Q 21.96875 35.5 21.96875 31.59375 
Q 21.96875 27.734375 24.65625 25.078125 
Q 27.34375 22.421875 31.25 22.421875 
Q 35.15625 22.421875 37.84375 25.078125 
Q 40.53125 27.734375 40.53125 31.59375 
Q 40.53125 35.453125 37.8125 38.1875 
Q 35.109375 40.921875 31.25 40.921875 
M 31.25 47.21875 
Q 34.375 47.21875 37.25 46.015625 
Q 40.140625 44.828125 42.234375 42.578125 
Q 44.484375 40.390625 45.609375 37.59375 
Q 46.734375 34.8125 46.734375 31.59375 
Q 46.734375 25.15625 42.21875 20.6875 
Q 37.703125 16.21875 31.15625 16.21875 
Q 24.5625 16.21875 20.15625 20.609375 
Q 15.765625 25 15.765625 31.59375 
Q 15.765625 38.140625 20.25 42.671875 
Q 24.75 47.21875 31.25 47.21875 
" id="DejaVuSans-2218"/>
     <path d="M 11.71875 12.40625 
L 22.015625 12.40625 
L 22.015625 4 
L 14.015625 -11.625 
L 7.71875 -11.625 
L 11.71875 4 
z
" id="DejaVuSans-2c"/>
     <path d="M 14.796875 27.296875 
Q 14.796875 17.390625 18.875 11.75 
Q 22.953125 6.109375 30.078125 6.109375 
Q 37.203125 6.109375 41.296875 11.75 
Q 45.40625 17.390625 45.40625 27.296875 
Q 45.40625 37.203125 41.296875 42.84375 
Q 37.203125 48.484375 30.078125 48.484375 
Q 22.953125 48.484375 18.875 42.84375 
Q 14.796875 37.203125 14.796875 27.296875 
M 45.40625 8.203125 
Q 42.578125 3.328125 38.25 0.953125 
Q 33.9375 -1.421875 27.875 -1.421875 
Q 17.96875 -1.421875 11.734375 6.484375 
Q 5.515625 14.40625 5.515625 27.296875 
Q 5.515625 40.1875 11.734375 48.09375 
Q 17.96875 56 27.875 56 
Q 33.9375 56 38.25 53.625 
Q 42.578125 51.265625 45.40625 46.390625 
L 45.40625 54.6875 
L 54.390625 54.6875 
L 54.390625 -20.796875 
L 45.40625 -20.796875 
z
" id="DejaVuSans-71"/>
     <path d="M 10.796875 72.90625 
L 49.515625 72.90625 
L 49.515625 64.59375 
L 19.828125 64.59375 
L 19.828125 46.734375 
Q 21.96875 47.46875 24.109375 47.828125 
Q 26.265625 48.1875 28.421875 48.1875 
Q 40.625 48.1875 47.75 41.5 
Q 54.890625 34.8125 54.890625 23.390625 
Q 54.890625 11.625 47.5625 5.09375 
Q 40.234375 -1.421875 26.90625 -1.421875 
Q 22.3125 -1.421875 17.546875 -0.640625 
Q 12.796875 0.140625 7.71875 1.703125 
L 7.71875 11.625 
Q 12.109375 9.234375 16.796875 8.0625 
Q 21.484375 6.890625 26.703125 6.890625 
Q 35.15625 6.890625 40.078125 11.328125 
Q 45.015625 15.765625 45.015625 23.390625 
Q 45.015625 31 40.078125 35.4375 
Q 35.15625 39.890625 26.703125 39.890625 
Q 22.75 39.890625 18.8125 39.015625 
Q 14.890625 38.140625 10.796875 36.28125 
z
" id="DejaVuSans-35"/>
     <path d="M 18.3125 75.984375 
L 27.296875 75.984375 
L 18.703125 31.6875 
L 49.515625 54.6875 
L 61.1875 54.6875 
L 26.8125 28.515625 
L 51.90625 0 
L 41.015625 0 
L 17.671875 26.703125 
L 12.5 0 
L 3.515625 0 
z
" id="DejaVuSans-Oblique-6b"/>
     <path d="M 59.625 54.6875 
L 50.296875 6.78125 
Q 47.609375 -7.125 40.015625 -13.953125 
Q 32.421875 -20.796875 19.578125 -20.796875 
Q 14.84375 -20.796875 10.78125 -20.09375 
Q 6.734375 -19.390625 3.21875 -17.921875 
L 4.890625 -9.1875 
Q 8.203125 -11.328125 11.90625 -12.34375 
Q 15.625 -13.375 19.828125 -13.375 
Q 28.375 -13.375 33.859375 -8.703125 
Q 39.359375 -4.046875 41.109375 4.6875 
L 41.890625 8.796875 
Q 38.140625 4.5 33.15625 2.25 
Q 28.171875 0 22.40625 0 
Q 14.109375 0 9.34375 5.484375 
Q 4.59375 10.984375 4.59375 20.609375 
Q 4.59375 28.171875 7.46875 35.421875 
Q 10.359375 42.671875 15.578125 48.296875 
Q 19.046875 52 23.65625 54 
Q 28.265625 56 33.296875 56 
Q 38.8125 56 42.90625 53.4375 
Q 47.015625 50.875 49.03125 46.1875 
L 50.59375 54.6875 
z
M 46.09375 34.625 
Q 46.09375 41.265625 42.96875 44.875 
Q 39.84375 48.484375 34.078125 48.484375 
Q 30.515625 48.484375 27.296875 47.0625 
Q 24.078125 45.65625 21.78125 43.109375 
Q 18.0625 38.921875 15.984375 33.234375 
Q 13.921875 27.546875 13.921875 21.484375 
Q 13.921875 14.75 17.0625 11.125 
Q 20.21875 7.515625 26.125 7.515625 
Q 34.671875 7.515625 40.375 15.25 
Q 46.09375 23 46.09375 34.625 
" id="DejaVuSans-Oblique-67"/>
     <path d="M 50 53.078125 
L 48.296875 44.578125 
Q 44.734375 46.53125 40.765625 47.5 
Q 36.8125 48.484375 32.625 48.484375 
Q 25.53125 48.484375 21.453125 46.0625 
Q 17.390625 43.65625 17.390625 39.5 
Q 17.390625 34.671875 26.859375 32.078125 
Q 27.59375 31.890625 27.9375 31.78125 
L 30.8125 30.90625 
Q 39.796875 28.421875 42.796875 25.6875 
Q 45.796875 22.953125 45.796875 18.21875 
Q 45.796875 9.515625 38.890625 4.046875 
Q 31.984375 -1.421875 20.796875 -1.421875 
Q 16.453125 -1.421875 11.671875 -0.578125 
Q 6.890625 0.25 1.125 2 
L 2.875 11.28125 
Q 7.8125 8.734375 12.59375 7.421875 
Q 17.390625 6.109375 21.78125 6.109375 
Q 28.375 6.109375 32.5 8.9375 
Q 36.625 11.765625 36.625 16.109375 
Q 36.625 20.796875 25.78125 23.6875 
L 24.859375 23.921875 
L 21.78125 24.703125 
Q 14.9375 26.515625 11.765625 29.46875 
Q 8.59375 32.421875 8.59375 37.015625 
Q 8.59375 45.75 15.15625 50.875 
Q 21.734375 56 33.015625 56 
Q 37.453125 56 41.671875 55.265625 
Q 45.90625 54.546875 50 53.078125 
" id="DejaVuSans-Oblique-73"/>
     <path d="M 54.890625 33.015625 
L 54.890625 0 
L 45.90625 0 
L 45.90625 32.71875 
Q 45.90625 40.484375 42.875 44.328125 
Q 39.84375 48.1875 33.796875 48.1875 
Q 26.515625 48.1875 22.3125 43.546875 
Q 18.109375 38.921875 18.109375 30.90625 
L 18.109375 0 
L 9.078125 0 
L 9.078125 54.6875 
L 18.109375 54.6875 
L 18.109375 46.1875 
Q 21.34375 51.125 25.703125 53.5625 
Q 30.078125 56 35.796875 56 
Q 45.21875 56 50.046875 50.171875 
Q 54.890625 44.34375 54.890625 33.015625 
" id="DejaVuSans-6e"/>
     <path d="M 45.40625 46.390625 
L 45.40625 75.984375 
L 54.390625 75.984375 
L 54.390625 0 
L 45.40625 0 
L 45.40625 8.203125 
Q 42.578125 3.328125 38.25 0.953125 
Q 33.9375 -1.421875 27.875 -1.421875 
Q 17.96875 -1.421875 11.734375 6.484375 
Q 5.515625 14.40625 5.515625 27.296875 
Q 5.515625 40.1875 11.734375 48.09375 
Q 17.96875 56 27.875 56 
Q 33.9375 56 38.25 53.625 
Q 42.578125 51.265625 45.40625 46.390625 
M 14.796875 27.296875 
Q 14.796875 17.390625 18.875 11.75 
Q 22.953125 6.109375 30.078125 6.109375 
Q 37.203125 6.109375 41.296875 11.75 
Q 45.40625 17.390625 45.40625 27.296875 
Q 45.40625 37.203125 41.296875 42.84375 
Q 37.203125 48.484375 30.078125 48.484375 
Q 22.953125 48.484375 18.875 42.84375 
Q 14.796875 37.203125 14.796875 27.296875 
" id="DejaVuSans-64"/>
     <path d="M 9.8125 72.90625 
L 51.703125 72.90625 
L 51.703125 64.59375 
L 19.671875 64.59375 
L 19.671875 43.109375 
L 48.578125 43.109375 
L 48.578125 34.8125 
L 19.671875 34.8125 
L 19.671875 0 
L 9.8125 0 
z
" id="DejaVuSans-46"/>
     <path d="M 16.890625 72.90625 
L 30.171875 72.90625 
L 50.296875 10.40625 
L 62.5 72.90625 
L 72.125 72.90625 
L 57.90625 0 
L 44.578125 0 
L 24.515625 62.890625 
L 12.3125 0 
L 2.6875 0 
z
" id="DejaVuSans-Oblique-4e"/>
    </defs>
    <g transform="translate(120.12 35.1264)scale(0.12 -0.12)">
     <use transform="translate(0 0.684375)" xlink:href="#DejaVuSans-Oblique-3b8"/>
     <use transform="translate(61.181641 -15.721875)scale(0.7)" xlink:href="#DejaVuSans-30"/>
     <use transform="translate(108.452148 0.684375)" xlink:href="#DejaVuSans-20"/>
     <use transform="translate(140.239258 0.684375)" xlink:href="#DejaVuSans-3d"/>
     <use transform="translate(224.02832 0.684375)" xlink:href="#DejaVuSans-20"/>
     <use transform="translate(255.81543 0.684375)" xlink:href="#DejaVuSans-30"/>
     <use transform="translate(319.438477 0.684375)" xlink:href="#DejaVuSans-2e"/>
     <use transform="translate(351.225586 0.684375)" xlink:href="#DejaVuSans-30"/>
     <use transform="translate(414.848633 0.684375)" xlink:href="#DejaVuSans-31"/>
     <use transform="translate(479.428711 38.965625)scale(0.7)" xlink:href="#DejaVuSans-2218"/>
     <use transform="translate(525.981445 0.684375)" xlink:href="#DejaVuSans-2c"/>
     <use transform="translate(557.768555 0.684375)" xlink:href="#DejaVuSans-20"/>
     <use transform="translate(589.555664 0.684375)" xlink:href="#DejaVuSans-71"/>
     <use transform="translate(653.032227 0.684375)" xlink:href="#DejaVuSans-20"/>
     <use transform="translate(684.819336 0.684375)" xlink:href="#DejaVuSans-3d"/>
     <use transform="translate(768.608398 0.684375)" xlink:href="#DejaVuSans-20"/>
     <use transform="translate(800.395508 0.684375)" xlink:href="#DejaVuSans-30"/>
     <use transform="translate(864.018555 0.684375)" xlink:href="#DejaVuSans-2e"/>
     <use transform="translate(895.805664 0.684375)" xlink:href="#DejaVuSans-35"/>
     <use transform="translate(959.428711 0.684375)" xlink:href="#DejaVuSans-Oblique-6b"/>
     <use transform="translate(1017.338867 0.684375)" xlink:href="#DejaVuSans-Oblique-67"/>
     <use transform="translate(1080.81543 0.684375)" xlink:href="#DejaVuSans-Oblique-73"/>
     <use transform="translate(1137.564935 38.965625)scale(0.7)" xlink:href="#DejaVuSans-2212"/>
     <use transform="translate(1196.217279 38.965625)scale(0.7)" xlink:href="#DejaVuSans-31"/>
     <use transform="translate(1243.487786 0.684375)" xlink:href="#DejaVuSans-20"/>
     <use transform="translate(1275.274896 0.684375)" xlink:href="#DejaVuSans-61"/>
     <use transform="translate(1336.554193 0.684375)" xlink:href="#DejaVuSans-6e"/>
     <use transform="translate(1399.933099 0.684375)" xlink:href="#DejaVuSans-64"/>
     <use transform="translate(1463.409661 0.684375)" xlink:href="#DejaVuSans-20"/>
     <use transform="translate(1495.196771 0.684375)" xlink:href="#DejaVuSans-46"/>
     <use transform="translate(1552.716302 0.684375)" xlink:href="#DejaVuSans-20"/>
     <use transform="translate(1584.503411 0.684375)" xlink:href="#DejaVuSans-3d"/>
     <use transform="translate(1668.292474 0.684375)" xlink:href="#DejaVuSans-20"/>
     <use transform="translate(1700.079583 0.684375)" xlink:href="#DejaVuSans-31"/>
     <use transform="translate(1763.70263 0.684375)" xlink:href="#DejaVuSans-2e"/>
     <use transform="translate(1795.411615 0.684375)" xlink:href="#DejaVuSans-32"/>
     <use transform="translate(1859.034661 0.684375)" xlink:href="#DejaVuSans-Oblique-4e"/>
    </g>
   </g>
  </g>
 </g>
 <defs>
  <clipPath id="pe92652f7f0">
   <rect height="263.8944" width="357.12" x="57.6" y="41.1264"/>
  </clipPath>
 </defs>
</svg>
