<?xml version="1.0" encoding="utf-8" standalone="no"?>
<!DOCTYPE svg PUBLIC "-//W3C//DTD SVG 1.1//EN"
  "http://www.w3.org/Graphics/SVG/1.1/DTD/svg11.dtd">
<!-- Created with matplotlib (http://matplotlib.org/) -->
<svg height="342pt" version="1.1" viewBox="0 0 460 342" width="460pt" xmlns="http://www.w3.org/2000/svg" xmlns:xlink="http://www.w3.org/1999/xlink">
 <defs>
  <style type="text/css">
*{stroke-linecap:butt;stroke-linejoin:round;}
  </style>
 </defs>
 <g id="figure_1">
  <g id="patch_1">
   <path d="M 0 342.72 
L 460.8 342.72 
L 460.8 0 
L 0 0 
z
" style="fill:#ffffff;"/>
  </g>
  <g id="axes_1">
   <g id="patch_2">
    <path d="M 57.6 305.0208 
L 414.72 305.0208 
L 414.72 41.1264 
L 57.6 41.1264 
z
" style="fill:#ffffff;"/>
   </g>
   <g id="matplotlib.axis_1">
    <g id="xtick_1">
     <g id="line2d_1">
      <path clip-path="url(#p6dbd13e0e5)" d="M 60.599748 305.0208 
L 60.599748 41.1264 
" style="fill:none;stroke:#b0b0b0;stroke-linecap:square;stroke-width:0.8;"/>
     </g>
     <g id="line2d_2">
      <defs>
       <path d="M 0 0 
L 0 3.5 
" id="m588b91229f" style="stroke:#000000;stroke-width:0.8;"/>
      </defs>
      <g>
       <use style="stroke:#000000;stroke-width:0.8;" x="60.599748" xlink:href="#m588b91229f" y="305.0208"/>
      </g>
     </g>
     <g id="text_1">
      <!-- −30 -->
      <defs>
       <path d="M 10.59375 35.5 
L 73.1875 35.5 
L 73.1875 27.203125 
L 10.59375 27.203125 
z
" id="DejaVuSans-2212"/>
       <path d="M 40.578125 39.3125 
Q 47.65625 37.796875 51.625 33 
Q 55.609375 28.21875 55.609375 21.1875 
Q 55.609375 10.40625 48.1875 4.484375 
Q 40.765625 -1.421875 27.09375 -1.421875 
Q 22.515625 -1.421875 17.65625 -0.515625 
Q 12.796875 0.390625 7.625 2.203125 
L 7.625 11.71875 
Q 11.71875 9.328125 16.59375 8.109375 
Q 21.484375 6.890625 26.8125 6.890625 
Q 36.078125 6.890625 40.9375 10.546875 
Q 45.796875 14.203125 45.796875 21.1875 
Q 45.796875 27.640625 41.28125 31.265625 
Q 36.765625 34.90625 28.71875 34.90625 
L 20.21875 34.90625 
L 20.21875 43.015625 
L 29.109375 43.015625 
Q 36.375 43.015625 40.234375 45.921875 
Q 44.09375 48.828125 44.09375 54.296875 
Q 44.09375 59.90625 40.109375 62.90625 
Q 36.140625 65.921875 28.71875 65.921875 
Q 24.65625 65.921875 20.015625 65.03125 
Q 15.375 64.15625 9.8125 62.3125 
L 9.8125 71.09375 
Q 15.4375 72.65625 20.34375 73.4375 
Q 25.25 74.21875 29.59375 74.21875 
Q 40.828125 74.21875 47.359375 69.109375 
Q 53.90625 64.015625 53.90625 55.328125 
Q 53.90625 49.265625 50.4375 45.09375 
Q 46.96875 40.921875 40.578125 39.3125 
" id="DejaVuSans-33"/>
       <path d="M 31.78125 66.40625 
Q 24.171875 66.40625 20.328125 58.90625 
Q 16.5 51.421875 16.5 36.375 
Q 16.5 21.390625 20.328125 13.890625 
Q 24.171875 6.390625 31.78125 6.390625 
Q 39.453125 6.390625 43.28125 13.890625 
Q 47.125 21.390625 47.125 36.375 
Q 47.125 51.421875 43.28125 58.90625 
Q 39.453125 66.40625 31.78125 66.40625 
M 31.78125 74.21875 
Q 44.046875 74.21875 50.515625 64.515625 
Q 56.984375 54.828125 56.984375 36.375 
Q 56.984375 17.96875 50.515625 8.265625 
Q 44.046875 -1.421875 31.78125 -1.421875 
Q 19.53125 -1.421875 13.0625 8.265625 
Q 6.59375 17.96875 6.59375 36.375 
Q 6.59375 54.828125 13.0625 64.515625 
Q 19.53125 74.21875 31.78125 74.21875 
" id="DejaVuSans-30"/>
      </defs>
      <g transform="translate(50.047404 319.619237)scale(0.1 -0.1)">
       <use xlink:href="#DejaVuSans-2212"/>
       <use x="83.789062" xlink:href="#DejaVuSans-33"/>
       <use x="147.412109" xlink:href="#DejaVuSans-30"/>
      </g>
     </g>
    </g>
    <g id="xtick_2">
     <g id="line2d_3">
      <path clip-path="url(#p6dbd13e0e5)" d="M 103.561463 305.0208 
L 103.561463 41.1264 
" style="fill:none;stroke:#b0b0b0;stroke-linecap:square;stroke-width:0.8;"/>
     </g>
     <g id="line2d_4">
      <g>
       <use style="stroke:#000000;stroke-width:0.8;" x="103.561463" xlink:href="#m588b91229f" y="305.0208"/>
      </g>
     </g>
     <g id="text_2">
      <!-- −25 -->
      <defs>
       <path d="M 19.1875 8.296875 
L 53.609375 8.296875 
L 53.609375 0 
L 7.328125 0 
L 7.328125 8.296875 
Q 12.9375 14.109375 22.625 23.890625 
Q 32.328125 33.6875 34.8125 36.53125 
Q 39.546875 41.84375 41.421875 45.53125 
Q 43.3125 49.21875 43.3125 52.78125 
Q 43.3125 58.59375 39.234375 62.25 
Q 35.15625 65.921875 28.609375 65.921875 
Q 23.96875 65.921875 18.8125 64.3125 
Q 13.671875 62.703125 7.8125 59.421875 
L 7.8125 69.390625 
Q 13.765625 71.78125 18.9375 73 
Q 24.125 74.21875 28.421875 74.21875 
Q 39.75 74.21875 46.484375 68.546875 
Q 53.21875 62.890625 53.21875 53.421875 
Q 53.21875 48.921875 51.53125 44.890625 
Q 49.859375 40.875 45.40625 35.40625 
Q 44.1875 33.984375 37.640625 27.21875 
Q 31.109375 20.453125 19.1875 8.296875 
" id="DejaVuSans-32"/>
       <path d="M 10.796875 72.90625 
L 49.515625 72.90625 
L 49.515625 64.59375 
L 19.828125 64.59375 
L 19.828125 46.734375 
Q 21.96875 47.46875 24.109375 47.828125 
Q 26.265625 48.1875 28.421875 48.1875 
Q 40.625 48.1875 47.75 41.5 
Q 54.890625 34.8125 54.890625 23.390625 
Q 54.890625 11.625 47.5625 5.09375 
Q 40.234375 -1.421875 26.90625 -1.421875 
Q 22.3125 -1.421875 17.546875 -0.640625 
Q 12.796875 0.140625 7.71875 1.703125 
L 7.71875 11.625 
Q 12.109375 9.234375 16.796875 8.0625 
Q 21.484375 6.890625 26.703125 6.890625 
Q 35.15625 6.890625 40.078125 11.328125 
Q 45.015625 15.765625 45.015625 23.390625 
Q 45.015625 31 40.078125 35.4375 
Q 35.15625 39.890625 26.703125 39.890625 
Q 22.75 39.890625 18.8125 39.015625 
Q 14.890625 38.140625 10.796875 36.28125 
z
" id="DejaVuSans-35"/>
      </defs>
      <g transform="translate(93.00912 319.619237)scale(0.1 -0.1)">
       <use xlink:href="#DejaVuSans-2212"/>
       <use x="83.789062" xlink:href="#DejaVuSans-32"/>
       <use x="147.412109" xlink:href="#DejaVuSans-35"/>
      </g>
     </g>
    </g>
    <g id="xtick_3">
     <g id="line2d_5">
      <path clip-path="url(#p6dbd13e0e5)" d="M 146.523178 305.0208 
L 146.523178 41.1264 
" style="fill:none;stroke:#b0b0b0;stroke-linecap:square;stroke-width:0.8;"/>
     </g>
     <g id="line2d_6">
      <g>
       <use style="stroke:#000000;stroke-width:0.8;" x="146.523178" xlink:href="#m588b91229f" y="305.0208"/>
      </g>
     </g>
     <g id="text_3">
      <!-- −20 -->
      <g transform="translate(135.970835 319.619237)scale(0.1 -0.1)">
       <use xlink:href="#DejaVuSans-2212"/>
       <use x="83.789062" xlink:href="#DejaVuSans-32"/>
       <use x="147.412109" xlink:href="#DejaVuSans-30"/>
      </g>
     </g>
    </g>
    <g id="xtick_4">
     <g id="line2d_7">
      <path clip-path="url(#p6dbd13e0e5)" d="M 189.484894 305.0208 
L 189.484894 41.1264 
" style="fill:none;stroke:#b0b0b0;stroke-linecap:square;stroke-width:0.8;"/>
     </g>
     <g id="line2d_8">
      <g>
       <use style="stroke:#000000;stroke-width:0.8;" x="189.484894" xlink:href="#m588b91229f" y="305.0208"/>
      </g>
     </g>
     <g id="text_4">
      <!-- −15 -->
      <defs>
       <path d="M 12.40625 8.296875 
L 28.515625 8.296875 
L 28.515625 63.921875 
L 10.984375 60.40625 
L 10.984375 69.390625 
L 28.421875 72.90625 
L 38.28125 72.90625 
L 38.28125 8.296875 
L 54.390625 8.296875 
L 54.390625 0 
L 12.40625 0 
z
" id="DejaVuSans-31"/>
      </defs>
      <g transform="translate(178.93255 319.619237)scale(0.1 -0.1)">
       <use xlink:href="#DejaVuSans-2212"/>
       <use x="83.789062" xlink:href="#DejaVuSans-31"/>
       <use x="147.412109" xlink:href="#DejaVuSans-35"/>
      </g>
     </g>
    </g>
    <g id="xtick_5">
     <g id="line2d_9">
      <path clip-path="url(#p6dbd13e0e5)" d="M 232.446609 305.0208 
L 232.446609 41.1264 
" style="fill:none;stroke:#b0b0b0;stroke-linecap:square;stroke-width:0.8;"/>
     </g>
     <g id="line2d_10">
      <g>
       <use style="stroke:#000000;stroke-width:0.8;" x="232.446609" xlink:href="#m588b91229f" y="305.0208"/>
      </g>
     </g>
     <g id="text_5">
      <!-- −10 -->
      <g transform="translate(221.894265 319.619237)scale(0.1 -0.1)">
       <use xlink:href="#DejaVuSans-2212"/>
       <use x="83.789062" xlink:href="#DejaVuSans-31"/>
       <use x="147.412109" xlink:href="#DejaVuSans-30"/>
      </g>
     </g>
    </g>
    <g id="xtick_6">
     <g id="line2d_11">
      <path clip-path="url(#p6dbd13e0e5)" d="M 275.408324 305.0208 
L 275.408324 41.1264 
" style="fill:none;stroke:#b0b0b0;stroke-linecap:square;stroke-width:0.8;"/>
     </g>
     <g id="line2d_12">
      <g>
       <use style="stroke:#000000;stroke-width:0.8;" x="275.408324" xlink:href="#m588b91229f" y="305.0208"/>
      </g>
     </g>
     <g id="text_6">
      <!-- −5 -->
      <g transform="translate(268.03723 319.619237)scale(0.1 -0.1)">
       <use xlink:href="#DejaVuSans-2212"/>
       <use x="83.789062" xlink:href="#DejaVuSans-35"/>
      </g>
     </g>
    </g>
    <g id="xtick_7">
     <g id="line2d_13">
      <path clip-path="url(#p6dbd13e0e5)" d="M 318.370039 305.0208 
L 318.370039 41.1264 
" style="fill:none;stroke:#b0b0b0;stroke-linecap:square;stroke-width:0.8;"/>
     </g>
     <g id="line2d_14">
      <g>
       <use style="stroke:#000000;stroke-width:0.8;" x="318.370039" xlink:href="#m588b91229f" y="305.0208"/>
      </g>
     </g>
     <g id="text_7">
      <!-- 0 -->
      <g transform="translate(315.188789 319.619237)scale(0.1 -0.1)">
       <use xlink:href="#DejaVuSans-30"/>
      </g>
     </g>
    </g>
    <g id="xtick_8">
     <g id="line2d_15">
      <path clip-path="url(#p6dbd13e0e5)" d="M 361.331754 305.0208 
L 361.331754 41.1264 
" style="fill:none;stroke:#b0b0b0;stroke-linecap:square;stroke-width:0.8;"/>
     </g>
     <g id="line2d_16">
      <g>
       <use style="stroke:#000000;stroke-width:0.8;" x="361.331754" xlink:href="#m588b91229f" y="305.0208"/>
      </g>
     </g>
     <g id="text_8">
      <!-- 5 -->
      <g transform="translate(358.150504 319.619237)scale(0.1 -0.1)">
       <use xlink:href="#DejaVuSans-35"/>
      </g>
     </g>
    </g>
    <g id="xtick_9">
     <g id="line2d_17">
      <path clip-path="url(#p6dbd13e0e5)" d="M 404.293469 305.0208 
L 404.293469 41.1264 
" style="fill:none;stroke:#b0b0b0;stroke-linecap:square;stroke-width:0.8;"/>
     </g>
     <g id="line2d_18">
      <g>
       <use style="stroke:#000000;stroke-width:0.8;" x="404.293469" xlink:href="#m588b91229f" y="305.0208"/>
      </g>
     </g>
     <g id="text_9">
      <!-- 10 -->
      <g transform="translate(397.930969 319.619237)scale(0.1 -0.1)">
       <use xlink:href="#DejaVuSans-31"/>
       <use x="63.623047" xlink:href="#DejaVuSans-30"/>
      </g>
     </g>
    </g>
    <g id="text_10">
     <!-- theta -->
     <defs>
      <path d="M 18.3125 70.21875 
L 18.3125 54.6875 
L 36.8125 54.6875 
L 36.8125 47.703125 
L 18.3125 47.703125 
L 18.3125 18.015625 
Q 18.3125 11.328125 20.140625 9.421875 
Q 21.96875 7.515625 27.59375 7.515625 
L 36.8125 7.515625 
L 36.8125 0 
L 27.59375 0 
Q 17.1875 0 13.234375 3.875 
Q 9.28125 7.765625 9.28125 18.015625 
L 9.28125 47.703125 
L 2.6875 47.703125 
L 2.6875 54.6875 
L 9.28125 54.6875 
L 9.28125 70.21875 
z
" id="DejaVuSans-74"/>
      <path d="M 54.890625 33.015625 
L 54.890625 0 
L 45.90625 0 
L 45.90625 32.71875 
Q 45.90625 40.484375 42.875 44.328125 
Q 39.84375 48.1875 33.796875 48.1875 
Q 26.515625 48.1875 22.3125 43.546875 
Q 18.109375 38.921875 18.109375 30.90625 
L 18.109375 0 
L 9.078125 0 
L 9.078125 75.984375 
L 18.109375 75.984375 
L 18.109375 46.1875 
Q 21.34375 51.125 25.703125 53.5625 
Q 30.078125 56 35.796875 56 
Q 45.21875 56 50.046875 50.171875 
Q 54.890625 44.34375 54.890625 33.015625 
" id="DejaVuSans-68"/>
      <path d="M 56.203125 29.59375 
L 56.203125 25.203125 
L 14.890625 25.203125 
Q 15.484375 15.921875 20.484375 11.0625 
Q 25.484375 6.203125 34.421875 6.203125 
Q 39.59375 6.203125 44.453125 7.46875 
Q 49.3125 8.734375 54.109375 11.28125 
L 54.109375 2.78125 
Q 49.265625 0.734375 44.1875 -0.34375 
Q 39.109375 -1.421875 33.890625 -1.421875 
Q 20.796875 -1.421875 13.15625 6.1875 
Q 5.515625 13.8125 5.515625 26.8125 
Q 5.515625 40.234375 12.765625 48.109375 
Q 20.015625 56 32.328125 56 
Q 43.359375 56 49.78125 48.890625 
Q 56.203125 41.796875 56.203125 29.59375 
M 47.21875 32.234375 
Q 47.125 39.59375 43.09375 43.984375 
Q 39.0625 48.390625 32.421875 48.390625 
Q 24.90625 48.390625 20.390625 44.140625 
Q 15.875 39.890625 15.1875 32.171875 
z
" id="DejaVuSans-65"/>
      <path d="M 34.28125 27.484375 
Q 23.390625 27.484375 19.1875 25 
Q 14.984375 22.515625 14.984375 16.5 
Q 14.984375 11.71875 18.140625 8.90625 
Q 21.296875 6.109375 26.703125 6.109375 
Q 34.1875 6.109375 38.703125 11.40625 
Q 43.21875 16.703125 43.21875 25.484375 
L 43.21875 27.484375 
z
M 52.203125 31.203125 
L 52.203125 0 
L 43.21875 0 
L 43.21875 8.296875 
Q 40.140625 3.328125 35.546875 0.953125 
Q 30.953125 -1.421875 24.3125 -1.421875 
Q 15.921875 -1.421875 10.953125 3.296875 
Q 6 8.015625 6 15.921875 
Q 6 25.140625 12.171875 29.828125 
Q 18.359375 34.515625 30.609375 34.515625 
L 43.21875 34.515625 
L 43.21875 35.40625 
Q 43.21875 41.609375 39.140625 45 
Q 35.0625 48.390625 27.6875 48.390625 
Q 23 48.390625 18.546875 47.265625 
Q 14.109375 46.140625 10.015625 43.890625 
L 10.015625 52.203125 
Q 14.9375 54.109375 19.578125 55.046875 
Q 24.21875 56 28.609375 56 
Q 40.484375 56 46.34375 49.84375 
Q 52.203125 43.703125 52.203125 31.203125 
" id="DejaVuSans-61"/>
     </defs>
     <g transform="translate(222.930312 333.297362)scale(0.1 -0.1)">
      <use xlink:href="#DejaVuSans-74"/>
      <use x="39.208984" xlink:href="#DejaVuSans-68"/>
      <use x="102.587891" xlink:href="#DejaVuSans-65"/>
      <use x="164.111328" xlink:href="#DejaVuSans-74"/>
      <use x="203.320312" xlink:href="#DejaVuSans-61"/>
     </g>
    </g>
   </g>
   <g id="matplotlib.axis_2">
    <g id="ytick_1">
     <g id="line2d_19">
      <path clip-path="url(#p6dbd13e0e5)" d="M 57.6 299.279048 
L 414.72 299.279048 
" style="fill:none;stroke:#b0b0b0;stroke-linecap:square;stroke-width:0.8;"/>
     </g>
     <g id="line2d_20">
      <defs>
       <path d="M 0 0 
L -3.5 0 
" id="m9bfb48b61f" style="stroke:#000000;stroke-width:0.8;"/>
      </defs>
      <g>
       <use style="stroke:#000000;stroke-width:0.8;" x="57.6" xlink:href="#m9bfb48b61f" y="299.279048"/>
      </g>
     </g>
     <g id="text_11">
      <!-- −2.5 -->
      <defs>
       <path d="M 10.6875 12.40625 
L 21 12.40625 
L 21 0 
L 10.6875 0 
z
" id="DejaVuSans-2e"/>
      </defs>
      <g transform="translate(26.317187 303.078267)scale(0.1 -0.1)">
       <use xlink:href="#DejaVuSans-2212"/>
       <use x="83.789062" xlink:href="#DejaVuSans-32"/>
       <use x="147.412109" xlink:href="#DejaVuSans-2e"/>
       <use x="179.199219" xlink:href="#DejaVuSans-35"/>
      </g>
     </g>
    </g>
    <g id="ytick_2">
     <g id="line2d_21">
      <path clip-path="url(#p6dbd13e0e5)" d="M 57.6 266.157226 
L 414.72 266.157226 
" style="fill:none;stroke:#b0b0b0;stroke-linecap:square;stroke-width:0.8;"/>
     </g>
     <g id="line2d_22">
      <g>
       <use style="stroke:#000000;stroke-width:0.8;" x="57.6" xlink:href="#m9bfb48b61f" y="266.157226"/>
      </g>
     </g>
     <g id="text_12">
      <!-- −2.0 -->
      <g transform="translate(26.317187 269.956444)scale(0.1 -0.1)">
       <use xlink:href="#DejaVuSans-2212"/>
       <use x="83.789062" xlink:href="#DejaVuSans-32"/>
       <use x="147.412109" xlink:href="#DejaVuSans-2e"/>
       <use x="179.199219" xlink:href="#DejaVuSans-30"/>
      </g>
     </g>
    </g>
    <g id="ytick_3">
     <g id="line2d_23">
      <path clip-path="url(#p6dbd13e0e5)" d="M 57.6 233.035403 
L 414.72 233.035403 
" style="fill:none;stroke:#b0b0b0;stroke-linecap:square;stroke-width:0.8;"/>
     </g>
     <g id="line2d_24">
      <g>
       <use style="stroke:#000000;stroke-width:0.8;" x="57.6" xlink:href="#m9bfb48b61f" y="233.035403"/>
      </g>
     </g>
     <g id="text_13">
      <!-- −1.5 -->
      <g transform="translate(26.317187 236.834622)scale(0.1 -0.1)">
       <use xlink:href="#DejaVuSans-2212"/>
       <use x="83.789062" xlink:href="#DejaVuSans-31"/>
       <use x="147.412109" xlink:href="#DejaVuSans-2e"/>
       <use x="179.199219" xlink:href="#DejaVuSans-35"/>
      </g>
     </g>
    </g>
    <g id="ytick_4">
     <g id="line2d_25">
      <path clip-path="url(#p6dbd13e0e5)" d="M 57.6 199.913581 
L 414.72 199.913581 
" style="fill:none;stroke:#b0b0b0;stroke-linecap:square;stroke-width:0.8;"/>
     </g>
     <g id="line2d_26">
      <g>
       <use style="stroke:#000000;stroke-width:0.8;" x="57.6" xlink:href="#m9bfb48b61f" y="199.913581"/>
      </g>
     </g>
     <g id="text_14">
      <!-- −1.0 -->
      <g transform="translate(26.317187 203.7128)scale(0.1 -0.1)">
       <use xlink:href="#DejaVuSans-2212"/>
       <use x="83.789062" xlink:href="#DejaVuSans-31"/>
       <use x="147.412109" xlink:href="#DejaVuSans-2e"/>
       <use x="179.199219" xlink:href="#DejaVuSans-30"/>
      </g>
     </g>
    </g>
    <g id="ytick_5">
     <g id="line2d_27">
      <path clip-path="url(#p6dbd13e0e5)" d="M 57.6 166.791758 
L 414.72 166.791758 
" style="fill:none;stroke:#b0b0b0;stroke-linecap:square;stroke-width:0.8;"/>
     </g>
     <g id="line2d_28">
      <g>
       <use style="stroke:#000000;stroke-width:0.8;" x="57.6" xlink:href="#m9bfb48b61f" y="166.791758"/>
      </g>
     </g>
     <g id="text_15">
      <!-- −0.5 -->
      <g transform="translate(26.317187 170.590977)scale(0.1 -0.1)">
       <use xlink:href="#DejaVuSans-2212"/>
       <use x="83.789062" xlink:href="#DejaVuSans-30"/>
       <use x="147.412109" xlink:href="#DejaVuSans-2e"/>
       <use x="179.199219" xlink:href="#DejaVuSans-35"/>
      </g>
     </g>
    </g>
    <g id="ytick_6">
     <g id="line2d_29">
      <path clip-path="url(#p6dbd13e0e5)" d="M 57.6 133.669936 
L 414.72 133.669936 
" style="fill:none;stroke:#b0b0b0;stroke-linecap:square;stroke-width:0.8;"/>
     </g>
     <g id="line2d_30">
      <g>
       <use style="stroke:#000000;stroke-width:0.8;" x="57.6" xlink:href="#m9bfb48b61f" y="133.669936"/>
      </g>
     </g>
     <g id="text_16">
      <!-- 0.0 -->
      <g transform="translate(34.696875 137.469155)scale(0.1 -0.1)">
       <use xlink:href="#DejaVuSans-30"/>
       <use x="63.623047" xlink:href="#DejaVuSans-2e"/>
       <use x="95.410156" xlink:href="#DejaVuSans-30"/>
      </g>
     </g>
    </g>
    <g id="ytick_7">
     <g id="line2d_31">
      <path clip-path="url(#p6dbd13e0e5)" d="M 57.6 100.548113 
L 414.72 100.548113 
" style="fill:none;stroke:#b0b0b0;stroke-linecap:square;stroke-width:0.8;"/>
     </g>
     <g id="line2d_32">
      <g>
       <use style="stroke:#000000;stroke-width:0.8;" x="57.6" xlink:href="#m9bfb48b61f" y="100.548113"/>
      </g>
     </g>
     <g id="text_17">
      <!-- 0.5 -->
      <g transform="translate(34.696875 104.347332)scale(0.1 -0.1)">
       <use xlink:href="#DejaVuSans-30"/>
       <use x="63.623047" xlink:href="#DejaVuSans-2e"/>
       <use x="95.410156" xlink:href="#DejaVuSans-35"/>
      </g>
     </g>
    </g>
    <g id="ytick_8">
     <g id="line2d_33">
      <path clip-path="url(#p6dbd13e0e5)" d="M 57.6 67.426291 
L 414.72 67.426291 
" style="fill:none;stroke:#b0b0b0;stroke-linecap:square;stroke-width:0.8;"/>
     </g>
     <g id="line2d_34">
      <g>
       <use style="stroke:#000000;stroke-width:0.8;" x="57.6" xlink:href="#m9bfb48b61f" y="67.426291"/>
      </g>
     </g>
     <g id="text_18">
      <!-- 1.0 -->
      <g transform="translate(34.696875 71.22551)scale(0.1 -0.1)">
       <use xlink:href="#DejaVuSans-31"/>
       <use x="63.623047" xlink:href="#DejaVuSans-2e"/>
       <use x="95.410156" xlink:href="#DejaVuSans-30"/>
      </g>
     </g>
    </g>
    <g id="text_19">
     <!-- omega -->
     <defs>
      <path d="M 30.609375 48.390625 
Q 23.390625 48.390625 19.1875 42.75 
Q 14.984375 37.109375 14.984375 27.296875 
Q 14.984375 17.484375 19.15625 11.84375 
Q 23.34375 6.203125 30.609375 6.203125 
Q 37.796875 6.203125 41.984375 11.859375 
Q 46.1875 17.53125 46.1875 27.296875 
Q 46.1875 37.015625 41.984375 42.703125 
Q 37.796875 48.390625 30.609375 48.390625 
M 30.609375 56 
Q 42.328125 56 49.015625 48.375 
Q 55.71875 40.765625 55.71875 27.296875 
Q 55.71875 13.875 49.015625 6.21875 
Q 42.328125 -1.421875 30.609375 -1.421875 
Q 18.84375 -1.421875 12.171875 6.21875 
Q 5.515625 13.875 5.515625 27.296875 
Q 5.515625 40.765625 12.171875 48.375 
Q 18.84375 56 30.609375 56 
" id="DejaVuSans-6f"/>
      <path d="M 52 44.1875 
Q 55.375 50.25 60.0625 53.125 
Q 64.75 56 71.09375 56 
Q 79.640625 56 84.28125 50.015625 
Q 88.921875 44.046875 88.921875 33.015625 
L 88.921875 0 
L 79.890625 0 
L 79.890625 32.71875 
Q 79.890625 40.578125 77.09375 44.375 
Q 74.3125 48.1875 68.609375 48.1875 
Q 61.625 48.1875 57.5625 43.546875 
Q 53.515625 38.921875 53.515625 30.90625 
L 53.515625 0 
L 44.484375 0 
L 44.484375 32.71875 
Q 44.484375 40.625 41.703125 44.40625 
Q 38.921875 48.1875 33.109375 48.1875 
Q 26.21875 48.1875 22.15625 43.53125 
Q 18.109375 38.875 18.109375 30.90625 
L 18.109375 0 
L 9.078125 0 
L 9.078125 54.6875 
L 18.109375 54.6875 
L 18.109375 46.1875 
Q 21.1875 51.21875 25.484375 53.609375 
Q 29.78125 56 35.6875 56 
Q 41.65625 56 45.828125 52.96875 
Q 50 49.953125 52 44.1875 
" id="DejaVuSans-6d"/>
      <path d="M 45.40625 27.984375 
Q 45.40625 37.75 41.375 43.109375 
Q 37.359375 48.484375 30.078125 48.484375 
Q 22.859375 48.484375 18.828125 43.109375 
Q 14.796875 37.75 14.796875 27.984375 
Q 14.796875 18.265625 18.828125 12.890625 
Q 22.859375 7.515625 30.078125 7.515625 
Q 37.359375 7.515625 41.375 12.890625 
Q 45.40625 18.265625 45.40625 27.984375 
M 54.390625 6.78125 
Q 54.390625 -7.171875 48.1875 -13.984375 
Q 42 -20.796875 29.203125 -20.796875 
Q 24.46875 -20.796875 20.265625 -20.09375 
Q 16.0625 -19.390625 12.109375 -17.921875 
L 12.109375 -9.1875 
Q 16.0625 -11.328125 19.921875 -12.34375 
Q 23.78125 -13.375 27.78125 -13.375 
Q 36.625 -13.375 41.015625 -8.765625 
Q 45.40625 -4.15625 45.40625 5.171875 
L 45.40625 9.625 
Q 42.625 4.78125 38.28125 2.390625 
Q 33.9375 0 27.875 0 
Q 17.828125 0 11.671875 7.65625 
Q 5.515625 15.328125 5.515625 27.984375 
Q 5.515625 40.671875 11.671875 48.328125 
Q 17.828125 56 27.875 56 
Q 33.9375 56 38.28125 53.609375 
Q 42.625 51.21875 45.40625 46.390625 
L 45.40625 54.6875 
L 54.390625 54.6875 
z
" id="DejaVuSans-67"/>
     </defs>
     <g transform="translate(20.2375 190.318131)rotate(-90)scale(0.1 -0.1)">
      <use xlink:href="#DejaVuSans-6f"/>
      <use x="61.181641" xlink:href="#DejaVuSans-6d"/>
      <use x="158.59375" xlink:href="#DejaVuSans-65"/>
      <use x="220.117188" xlink:href="#DejaVuSans-67"/>
      <use x="283.59375" xlink:href="#DejaVuSans-61"/>
     </g>
    </g>
   </g>
   <g id="line2d_35">
    <path clip-path="url(#p6dbd13e0e5)" d="M 318.455963 133.669936 
L 318.532431 129.229321 
L 318.856084 120.919818 
L 319.557012 110.13265 
L 320.267276 102.447135 
L 321.175299 94.969761 
L 322.26958 88.1586 
L 323.52785 82.37966 
L 324.209253 79.959072 
L 324.919869 77.877895 
L 325.655225 76.145475 
L 326.410783 74.762905 
L 327.182037 73.723721 
L 327.964612 73.014888 
L 328.754336 72.618017 
L 329.547304 72.510724 
L 330.33992 72.668042 
L 331.128921 73.063806 
L 331.911382 73.671928 
L 332.684712 74.467518 
L 334.195135 76.532823 
L 335.645024 79.114145 
L 337.022277 82.122249 
L 338.316346 85.526169 
L 339.516785 89.347664 
L 340.611998 93.65159 
L 341.588272 98.534766 
L 342.429083 104.115003 
L 343.114688 110.521362 
L 343.621935 117.886418 
L 343.924246 126.341161 
L 343.991688 136.012941 
L 343.791071 147.026041 
L 343.286002 159.5028 
L 342.43697 173.55993 
L 341.201688 189.289467 
L 339.536311 206.706839 
L 337.39868 225.642738 
L 334.755306 245.561973 
L 333.238812 255.566078 
L 331.593816 265.334635 
L 329.825006 274.608267 
L 327.940708 283.088073 
L 325.953284 290.454236 
L 323.879231 296.394743 
L 321.73885 300.641391 
L 319.555435 303.006946 
L 317.354013 303.415177 
L 315.159791 301.915828 
L 312.996526 298.680096 
L 310.885081 293.977549 
L 308.842377 288.140427 
L 306.880831 281.523889 
L 305.008304 274.470252 
L 301.541328 260.208709 
L 296.999184 241.268212 
L 294.342276 231.25531 
L 291.91739 223.341962 
L 289.674154 217.1797 
L 287.573176 212.290773 
L 281.925263 200.232626 
L 280.256781 195.607506 
L 278.718681 190.146941 
L 277.334749 183.711581 
L 276.130506 176.308808 
L 275.129354 168.092792 
L 274.348974 159.346032 
L 273.798409 150.445111 
L 273.476176 141.817264 
L 273.36954 133.895551 
L 273.45489 127.079257 
L 273.699034 121.704007 
L 274.061099 118.023904 
L 274.494753 116.206065 
L 274.723001 116.025106 
L 274.950407 116.336095 
L 275.170586 117.139162 
L 275.563855 120.206258 
L 275.852779 125.17058 
L 275.989234 131.942315 
L 275.927834 140.39959 
L 275.626862 150.378887 
L 275.049604 161.653357 
L 274.166389 173.901301 
L 272.957495 186.671904 
L 271.416846 199.362596 
L 270.524915 205.449919 
L 269.555895 211.23072 
L 268.514432 216.601893 
L 267.406491 221.464344 
L 266.239262 225.728801 
L 265.021 229.321882 
L 263.760777 232.19175 
L 262.46817 234.312596 
L 261.152911 235.687273 
L 259.824502 236.347648 
L 258.491854 236.352552 
L 257.162964 235.783601 
L 255.84465 234.739463 
L 254.542376 233.329333 
L 252.000544 229.861962 
L 248.362491 224.59398 
L 247.192571 223.160571 
L 246.039572 221.993565 
L 244.899737 221.137354 
L 243.768808 220.625182 
L 242.64216 220.480325 
L 241.514927 220.717155 
L 240.382109 221.341936 
L 239.238672 222.353247 
L 238.079655 223.741903 
L 236.900267 225.490387 
L 235.696003 227.571738 
L 233.197088 232.567999 
L 229.182771 241.140368 
L 227.770586 243.892755 
L 226.324297 246.373545 
L 224.848428 248.426161 
L 223.349607 249.883879 
L 221.836649 250.577975 
L 220.320516 250.348092 
L 218.814131 249.053839 
L 217.332049 246.586205 
L 215.889981 242.877076 
L 214.504221 237.905289 
L 213.191023 231.698222 
L 211.965984 224.328729 
L 210.843499 215.908135 
L 209.836319 206.576652 
L 208.955244 196.492897 
L 208.208955 185.824056 
L 207.60395 174.737832 
L 207.144581 163.39674 
L 206.833145 151.954838 
L 206.670003 140.556532 
L 206.653704 129.336898 
L 206.781098 118.422847 
L 207.047436 107.934479 
L 207.446449 97.986072 
L 207.970421 88.686242 
L 208.61027 80.137031 
L 209.355641 72.431813 
L 210.195041 65.652192 
L 211.116018 59.864232 
L 212.105381 55.11458 
L 213.14948 51.427123 
L 214.234515 48.800844 
L 215.346865 47.209362 
L 216.473408 46.602412 
L 217.601811 46.909197 
L 218.72077 48.043237 
L 219.82017 49.908135 
L 220.891179 52.40359 
L 221.926263 55.431025 
L 222.919127 58.898334 
L 223.864609 62.723497 
L 225.597539 71.182563 
L 227.100359 80.414573 
L 228.355868 90.231478 
L 229.349474 100.611861 
L 230.065525 111.650746 
L 230.484909 123.512409 
L 230.583788 136.39095 
L 230.333271 150.476441 
L 229.699962 165.919278 
L 228.647585 182.780979 
L 227.140219 200.956941 
L 225.148019 220.060716 
L 223.964616 229.727451 
L 222.656361 239.281965 
L 221.225872 248.539468 
L 219.678372 257.284329 
L 218.022033 265.279515 
L 216.268156 272.282372 
L 214.431117 278.066175 
L 212.527991 282.445031 
L 210.577871 285.298117 
L 208.600887 286.58821 
L 206.617058 286.370168 
L 204.64511 284.787038 
L 202.701418 282.054501 
L 200.799215 278.437133 
L 198.948131 274.221456 
L 195.41941 265.104692 
L 192.122544 256.61701 
L 190.5515 253.031286 
L 189.023301 250.023614 
L 187.530044 247.650715 
L 186.063303 245.937048 
L 184.614519 244.879484 
L 183.175333 244.451016 
L 181.737875 244.603282 
L 180.295035 245.267903 
L 178.840714 246.356869 
L 177.370087 247.762351 
L 172.836569 252.50243 
L 171.286806 253.708752 
L 169.724384 254.422392 
L 168.15692 254.45539 
L 166.59441 253.630875 
L 165.049004 251.794985 
L 163.534641 248.828445 
L 162.066527 244.65605 
L 160.660523 239.252446 
L 159.33249 232.643233 
L 158.097641 224.901302 
L 156.969978 216.139174 
L 155.96184 206.498845 
L 155.083592 196.140852 
L 154.343452 185.234158 
L 153.747438 173.947958 
L 153.299402 162.445957 
L 153.001128 150.883129 
L 152.852453 139.404564 
L 152.851396 128.14581 
L 152.994271 117.233992 
L 153.275794 106.789076 
L 153.689163 96.924703 
L 154.226145 87.748163 
L 154.877161 79.359282 
L 155.631396 71.848206 
L 156.476946 65.292211 
L 157.401008 59.752027 
L 158.390119 55.268174 
L 159.430436 51.857992 
L 160.508053 49.513977 
L 161.609323 48.203841 
L 162.72117 47.872491 
L 163.831359 48.445739 
L 164.928715 49.835375 
L 166.003269 51.944947 
L 167.046322 54.675638 
L 168.050445 57.93161 
L 169.009407 61.624417 
L 169.91806 65.676238 
L 171.568315 74.60967 
L 172.975502 84.371372 
L 174.120621 94.799744 
L 174.986717 105.890723 
L 175.55544 117.747026 
L 175.80492 130.530301 
L 175.708785 144.419006 
L 175.236251 159.567659 
L 174.35335 176.057803 
L 173.025673 193.82765 
L 171.223345 212.569469 
L 170.137996 222.10959 
L 168.929055 231.60025 
L 167.598179 240.87934 
L 166.149334 249.753964 
L 164.589155 258.006903 
L 162.927188 265.408684 
L 161.175947 271.735281 
L 159.350696 276.790038 
L 157.468947 280.426848 
L 155.54967 282.570323 
L 153.612276 283.228618 
L 151.675512 282.495734 
L 149.756391 280.542549 
L 147.869305 277.598452 
L 146.02542 273.927534 
L 144.232385 269.803907 
L 137.605705 253.568744 
L 136.071151 250.457312 
L 134.573177 247.939008 
L 133.103766 246.058345 
L 131.654518 244.83088 
L 130.216995 244.247099 
L 128.78303 244.275262 
L 127.345002 244.863079 
L 125.896099 245.938287 
L 124.430575 247.408405 
L 121.433634 251.058602 
L 119.898497 252.948356 
L 118.339838 254.654809 
L 116.761247 255.988907 
L 115.168826 256.754184 
L 113.571221 256.75666 
L 111.979513 255.816905 
L 110.406948 253.782996 
L 108.868497 250.54258 
L 107.380277 246.032112 
L 105.958889 240.241636 
L 104.620712 233.214307 
L 103.381248 225.040831 
L 102.254567 215.850034 
L 101.252878 205.797331 
L 100.386268 195.053024 
L 99.662575 183.792031 
L 99.087379 172.18605 
L 98.664087 160.398549 
L 98.394048 148.582391 
L 98.276703 136.879564 
L 98.309714 125.422297 
L 98.489082 114.334814 
L 98.809239 103.735025 
L 99.263124 93.735596 
L 99.842244 84.443965 
L 100.536755 75.961086 
L 101.335559 68.378873 
L 102.226442 61.776586 
L 103.196267 56.216601 
L 104.23122 51.740235 
L 105.317108 48.364331 
L 106.439688 46.079311 
L 107.585014 44.849178 
L 108.73977 44.613642 
L 109.891557 45.2922 
L 111.029121 46.789673 
L 112.142505 49.002513 
L 113.223116 51.825158 
L 114.26371 55.15576 
L 115.258315 58.900847 
L 116.202099 62.978675 
L 117.922554 71.875022 
L 119.402536 81.473037 
L 120.626346 91.611408 
L 121.580219 102.293382 
L 122.248756 113.633191 
L 122.612681 125.807896 
L 122.647748 139.017991 
L 122.32457 153.453247 
L 121.609374 169.255219 
L 120.46589 186.463571 
L 118.859013 204.931357 
L 117.872648 214.510728 
L 116.761177 224.201067 
L 115.523963 233.872845 
L 114.162276 243.361443 
L 112.679748 252.468199 
L 111.082776 260.966323 
L 109.380823 268.612917 
L 107.58651 275.167368 
L 105.71544 280.414843 
L 103.785696 284.191742 
L 101.817026 286.408465 
L 99.829774 287.064506 
L 97.843684 286.252088 
L 95.876745 284.147216 
L 93.944222 280.99007 
L 92.057985 277.05907 
L 90.226193 272.643838 
L 83.484289 255.178544 
L 81.930726 251.780396 
L 80.41738 248.987883 
L 78.936083 246.843555 
L 77.478318 245.359614 
L 76.035581 244.522284 
L 74.599698 244.295131 
L 73.163101 244.621139 
L 71.71909 245.423689 
L 70.262087 246.606717 
L 67.293905 249.631657 
L 65.779452 251.183984 
L 64.245937 252.540874 
L 62.69707 253.519855 
L 61.138968 253.933613 
L 59.580158 253.599426 
L 58.031449 252.350352 
L 56.50565 250.046998 
L 55.017139 246.588243 
L 53.581312 241.919234 
L 52.213954 236.0353 
L 50.930588 228.981124 
L 49.74586 220.845476 
L 48.673028 211.752547 
L 47.723563 201.851502 
L 46.906898 191.30591 
L 46.2303 180.284445 
L 45.698856 168.953733 
L 45.315533 157.473662 
L 45.081279 145.995003 
L 44.995151 134.658852 
L 45.054434 123.597254 
L 45.254754 112.934342 
L 45.590172 102.787374 
L 46.053268 93.267153 
L 46.63523 84.477529 
L 47.325954 76.513791 
L 48.114166 69.460046 
L 48.987592 63.385849 
L 49.933171 58.342571 
L 50.937312 54.360094 
L 51.986188 51.444471 
L 53.066053 49.57708 
L 54.16356 48.715571 
L 55.26605 48.796643 
L 56.3618 49.740372 
L 57.440202 51.455577 
L 58.491871 53.845613 
L 59.508683 56.813954 
L 60.483737 60.269076 
L 61.411266 64.128276 
L 62.286504 68.320312 
L 63.865078 77.482959 
L 65.195078 87.447727 
L 66.257627 98.093848 
L 67.034999 109.444752 
L 67.507538 121.617761 
L 67.651836 134.777493 
L 67.440056 149.093744 
L 66.840354 164.697944 
L 65.818551 181.627377 
L 64.341564 199.744327 
L 63.423734 209.129965 
L 62.383342 218.6232 
L 61.219733 228.104659 
L 59.934006 237.423029 
L 58.529428 246.395872 
L 57.011812 254.814625 
L 55.389789 262.45483 
L 53.674926 269.092042 
L 51.881592 274.522332 
L 50.026542 278.585038 
L 48.128223 281.183817 
L 46.205824 282.301708 
L 44.278207 282.006641 
L 42.362824 280.445887 
L 40.474784 277.830539 
L 38.626158 274.413331 
L 36.825603 270.464282 
L 30.160181 254.244375 
L 28.617576 251.017913 
L 27.113214 248.360067 
L 25.639328 246.32575 
L 24.187637 244.939911 
L 22.749711 244.201559 
L 21.31728 244.086875 
L 19.882522 244.551181 
L 18.438324 245.529773 
L 16.978544 246.937812 
L 13.994111 250.598207 
L 10.909737 254.430379 
L 9.332735 255.979411 
L 7.738686 257.02554 
L 6.1354 257.370899 
L 4.533205 256.827638 
L 2.944729 255.230935 
L 1.384518 252.451835 
L -0.131499 248.407882 
L -1 245.221866 
M -1 44.651632 
L -0.887085 44.488911 
L 0.274919 43.862335 
L 1.438781 44.188625 
L 2.592716 45.376523 
L 3.726203 47.323616 
L 4.830085 49.922868 
L 5.896593 53.068782 
L 6.919285 56.662628 
L 7.892934 60.616394 
L 9.677304 69.319395 
L 11.225714 78.754916 
L 12.522233 88.719914 
L 13.553782 99.188544 
L 14.306244 110.257958 
L 14.761936 122.098174 
L 14.898271 134.911267 
L 14.687368 148.897785 
L 14.096521 164.223088 
L 13.089659 180.971896 
L 11.6303 199.076002 
L 9.686878 218.202584 
L 8.527186 227.937319 
L 7.241448 237.609502 
L 5.831585 247.042112 
L 4.302036 256.024642 
L 2.660152 264.320826 
L 0.91644 271.682847 
L -1 278.085694 
L -1 278.085694 
" style="fill:none;stroke:#0000ff;stroke-linecap:square;stroke-width:1.5;"/>
   </g>
   <g id="patch_3">
    <path d="M 57.6 305.0208 
L 57.6 41.1264 
" style="fill:none;stroke:#000000;stroke-linecap:square;stroke-linejoin:miter;stroke-width:0.8;"/>
   </g>
   <g id="patch_4">
    <path d="M 414.72 305.0208 
L 414.72 41.1264 
" style="fill:none;stroke:#000000;stroke-linecap:square;stroke-linejoin:miter;stroke-width:0.8;"/>
   </g>
   <g id="patch_5">
    <path d="M 57.6 305.0208 
L 414.72 305.0208 
" style="fill:none;stroke:#000000;stroke-linecap:square;stroke-linejoin:miter;stroke-width:0.8;"/>
   </g>
   <g id="patch_6">
    <path d="M 57.6 41.1264 
L 414.72 41.1264 
" style="fill:none;stroke:#000000;stroke-linecap:square;stroke-linejoin:miter;stroke-width:0.8;"/>
   </g>
   <g id="text_20">
    <!-- $\theta_0$ = 0.01$^{\circ}$, q = 0.5$kg s^{-1}$ and F = 1.44$N$ -->
    <defs>
     <path d="M 45.515625 34.671875 
L 14.453125 34.671875 
Q 12.359375 20.0625 14.5 13.875 
Q 17.1875 6.25 24.46875 6.25 
Q 31.78125 6.25 37.359375 13.921875 
Q 42.234375 20.65625 45.515625 34.671875 
M 47.015625 42.96875 
Q 48.34375 56.84375 46.625 61.71875 
Q 43.953125 69.4375 36.765625 69.4375 
Q 29.296875 69.4375 23.828125 61.8125 
Q 19.53125 55.671875 16.15625 42.96875 
z
M 38.1875 76.765625 
Q 49.90625 76.765625 54.59375 66.40625 
Q 59.28125 56.109375 55.71875 37.84375 
Q 52.203125 19.625 43.453125 9.28125 
Q 34.765625 -1.125 23.046875 -1.125 
Q 11.28125 -1.125 6.640625 9.28125 
Q 2 19.625 5.515625 37.84375 
Q 9.078125 56.109375 17.71875 66.40625 
Q 26.421875 76.765625 38.1875 76.765625 
" id="DejaVuSans-Oblique-3b8"/>
     <path id="DejaVuSans-20"/>
     <path d="M 10.59375 45.40625 
L 73.1875 45.40625 
L 73.1875 37.203125 
L 10.59375 37.203125 
z
M 10.59375 25.484375 
L 73.1875 25.484375 
L 73.1875 17.1875 
L 10.59375 17.1875 
z
" id="DejaVuSans-3d"/>
     <path d="M 31.25 40.921875 
Q 27.34375 40.921875 24.65625 38.203125 
Q 21.96875 35.5 21.96875 31.59375 
Q 21.96875 27.734375 24.65625 25.078125 
Q 27.34375 22.421875 31.25 22.421875 
Q 35.15625 22.421875 37.84375 25.078125 
Q 40.53125 27.734375 40.53125 31.59375 
Q 40.53125 35.453125 37.8125 38.1875 
Q 35.109375 40.921875 31.25 40.921875 
M 31.25 47.21875 
Q 34.375 47.21875 37.25 46.015625 
Q 40.140625 44.828125 42.234375 42.578125 
Q 44.484375 40.390625 45.609375 37.59375 
Q 46.734375 34.8125 46.734375 31.59375 
Q 46.734375 25.15625 42.21875 20.6875 
Q 37.703125 16.21875 31.15625 16.21875 
Q 24.5625 16.21875 20.15625 20.609375 
Q 15.765625 25 15.765625 31.59375 
Q 15.765625 38.140625 20.25 42.671875 
Q 24.75 47.21875 31.25 47.21875 
" id="DejaVuSans-2218"/>
     <path d="M 11.71875 12.40625 
L 22.015625 12.40625 
L 22.015625 4 
L 14.015625 -11.625 
L 7.71875 -11.625 
L 11.71875 4 
z
" id="DejaVuSans-2c"/>
     <path d="M 14.796875 27.296875 
Q 14.796875 17.390625 18.875 11.75 
Q 22.953125 6.109375 30.078125 6.109375 
Q 37.203125 6.109375 41.296875 11.75 
Q 45.40625 17.390625 45.40625 27.296875 
Q 45.40625 37.203125 41.296875 42.84375 
Q 37.203125 48.484375 30.078125 48.484375 
Q 22.953125 48.484375 18.875 42.84375 
Q 14.796875 37.203125 14.796875 27.296875 
M 45.40625 8.203125 
Q 42.578125 3.328125 38.25 0.953125 
Q 33.9375 -1.421875 27.875 -1.421875 
Q 17.96875 -1.421875 11.734375 6.484375 
Q 5.515625 14.40625 5.515625 27.296875 
Q 5.515625 40.1875 11.734375 48.09375 
Q 17.96875 56 27.875 56 
Q 33.9375 56 38.25 53.625 
Q 42.578125 51.265625 45.40625 46.390625 
L 45.40625 54.6875 
L 54.390625 54.6875 
L 54.390625 -20.796875 
L 45.40625 -20.796875 
z
" id="DejaVuSans-71"/>
     <path d="M 18.3125 75.984375 
L 27.296875 75.984375 
L 18.703125 31.6875 
L 49.515625 54.6875 
L 61.1875 54.6875 
L 26.8125 28.515625 
L 51.90625 0 
L 41.015625 0 
L 17.671875 26.703125 
L 12.5 0 
L 3.515625 0 
z
" id="DejaVuSans-Oblique-6b"/>
     <path d="M 59.625 54.6875 
L 50.296875 6.78125 
Q 47.609375 -7.125 40.015625 -13.953125 
Q 32.421875 -20.796875 19.578125 -20.796875 
Q 14.84375 -20.796875 10.78125 -20.09375 
Q 6.734375 -19.390625 3.21875 -17.921875 
L 4.890625 -9.1875 
Q 8.203125 -11.328125 11.90625 -12.34375 
Q 15.625 -13.375 19.828125 -13.375 
Q 28.375 -13.375 33.859375 -8.703125 
Q 39.359375 -4.046875 41.109375 4.6875 
L 41.890625 8.796875 
Q 38.140625 4.5 33.15625 2.25 
Q 28.171875 0 22.40625 0 
Q 14.109375 0 9.34375 5.484375 
Q 4.59375 10.984375 4.59375 20.609375 
Q 4.59375 28.171875 7.46875 35.421875 
Q 10.359375 42.671875 15.578125 48.296875 
Q 19.046875 52 23.65625 54 
Q 28.265625 56 33.296875 56 
Q 38.8125 56 42.90625 53.4375 
Q 47.015625 50.875 49.03125 46.1875 
L 50.59375 54.6875 
z
M 46.09375 34.625 
Q 46.09375 41.265625 42.96875 44.875 
Q 39.84375 48.484375 34.078125 48.484375 
Q 30.515625 48.484375 27.296875 47.0625 
Q 24.078125 45.65625 21.78125 43.109375 
Q 18.0625 38.921875 15.984375 33.234375 
Q 13.921875 27.546875 13.921875 21.484375 
Q 13.921875 14.75 17.0625 11.125 
Q 20.21875 7.515625 26.125 7.515625 
Q 34.671875 7.515625 40.375 15.25 
Q 46.09375 23 46.09375 34.625 
" id="DejaVuSans-Oblique-67"/>
     <path d="M 50 53.078125 
L 48.296875 44.578125 
Q 44.734375 46.53125 40.765625 47.5 
Q 36.8125 48.484375 32.625 48.484375 
Q 25.53125 48.484375 21.453125 46.0625 
Q 17.390625 43.65625 17.390625 39.5 
Q 17.390625 34.671875 26.859375 32.078125 
Q 27.59375 31.890625 27.9375 31.78125 
L 30.8125 30.90625 
Q 39.796875 28.421875 42.796875 25.6875 
Q 45.796875 22.953125 45.796875 18.21875 
Q 45.796875 9.515625 38.890625 4.046875 
Q 31.984375 -1.421875 20.796875 -1.421875 
Q 16.453125 -1.421875 11.671875 -0.578125 
Q 6.890625 0.25 1.125 2 
L 2.875 11.28125 
Q 7.8125 8.734375 12.59375 7.421875 
Q 17.390625 6.109375 21.78125 6.109375 
Q 28.375 6.109375 32.5 8.9375 
Q 36.625 11.765625 36.625 16.109375 
Q 36.625 20.796875 25.78125 23.6875 
L 24.859375 23.921875 
L 21.78125 24.703125 
Q 14.9375 26.515625 11.765625 29.46875 
Q 8.59375 32.421875 8.59375 37.015625 
Q 8.59375 45.75 15.15625 50.875 
Q 21.734375 56 33.015625 56 
Q 37.453125 56 41.671875 55.265625 
Q 45.90625 54.546875 50 53.078125 
" id="DejaVuSans-Oblique-73"/>
     <path d="M 54.890625 33.015625 
L 54.890625 0 
L 45.90625 0 
L 45.90625 32.71875 
Q 45.90625 40.484375 42.875 44.328125 
Q 39.84375 48.1875 33.796875 48.1875 
Q 26.515625 48.1875 22.3125 43.546875 
Q 18.109375 38.921875 18.109375 30.90625 
L 18.109375 0 
L 9.078125 0 
L 9.078125 54.6875 
L 18.109375 54.6875 
L 18.109375 46.1875 
Q 21.34375 51.125 25.703125 53.5625 
Q 30.078125 56 35.796875 56 
Q 45.21875 56 50.046875 50.171875 
Q 54.890625 44.34375 54.890625 33.015625 
" id="DejaVuSans-6e"/>
     <path d="M 45.40625 46.390625 
L 45.40625 75.984375 
L 54.390625 75.984375 
L 54.390625 0 
L 45.40625 0 
L 45.40625 8.203125 
Q 42.578125 3.328125 38.25 0.953125 
Q 33.9375 -1.421875 27.875 -1.421875 
Q 17.96875 -1.421875 11.734375 6.484375 
Q 5.515625 14.40625 5.515625 27.296875 
Q 5.515625 40.1875 11.734375 48.09375 
Q 17.96875 56 27.875 56 
Q 33.9375 56 38.25 53.625 
Q 42.578125 51.265625 45.40625 46.390625 
M 14.796875 27.296875 
Q 14.796875 17.390625 18.875 11.75 
Q 22.953125 6.109375 30.078125 6.109375 
Q 37.203125 6.109375 41.296875 11.75 
Q 45.40625 17.390625 45.40625 27.296875 
Q 45.40625 37.203125 41.296875 42.84375 
Q 37.203125 48.484375 30.078125 48.484375 
Q 22.953125 48.484375 18.875 42.84375 
Q 14.796875 37.203125 14.796875 27.296875 
" id="DejaVuSans-64"/>
     <path d="M 9.8125 72.90625 
L 51.703125 72.90625 
L 51.703125 64.59375 
L 19.671875 64.59375 
L 19.671875 43.109375 
L 48.578125 43.109375 
L 48.578125 34.8125 
L 19.671875 34.8125 
L 19.671875 0 
L 9.8125 0 
z
" id="DejaVuSans-46"/>
     <path d="M 37.796875 64.3125 
L 12.890625 25.390625 
L 37.796875 25.390625 
z
M 35.203125 72.90625 
L 47.609375 72.90625 
L 47.609375 25.390625 
L 58.015625 25.390625 
L 58.015625 17.1875 
L 47.609375 17.1875 
L 47.609375 0 
L 37.796875 0 
L 37.796875 17.1875 
L 4.890625 17.1875 
L 4.890625 26.703125 
z
" id="DejaVuSans-34"/>
     <path d="M 16.890625 72.90625 
L 30.171875 72.90625 
L 50.296875 10.40625 
L 62.5 72.90625 
L 72.125 72.90625 
L 57.90625 0 
L 44.578125 0 
L 24.515625 62.890625 
L 12.3125 0 
L 2.6875 0 
z
" id="DejaVuSans-Oblique-4e"/>
    </defs>
    <g transform="translate(116.28 35.1264)scale(0.12 -0.12)">
     <use transform="translate(0 0.684375)" xlink:href="#DejaVuSans-Oblique-3b8"/>
     <use transform="translate(61.181641 -15.721875)scale(0.7)" xlink:href="#DejaVuSans-30"/>
     <use transform="translate(108.452148 0.684375)" xlink:href="#DejaVuSans-20"/>
     <use transform="translate(140.239258 0.684375)" xlink:href="#DejaVuSans-3d"/>
     <use transform="translate(224.02832 0.684375)" xlink:href="#DejaVuSans-20"/>
     <use transform="translate(255.81543 0.684375)" xlink:href="#DejaVuSans-30"/>
     <use transform="translate(319.438477 0.684375)" xlink:href="#DejaVuSans-2e"/>
     <use transform="translate(351.225586 0.684375)" xlink:href="#DejaVuSans-30"/>
     <use transform="translate(414.848633 0.684375)" xlink:href="#DejaVuSans-31"/>
     <use transform="translate(479.428711 38.965625)scale(0.7)" xlink:href="#DejaVuSans-2218"/>
     <use transform="translate(525.981445 0.684375)" xlink:href="#DejaVuSans-2c"/>
     <use transform="translate(557.768555 0.684375)" xlink:href="#DejaVuSans-20"/>
     <use transform="translate(589.555664 0.684375)" xlink:href="#DejaVuSans-71"/>
     <use transform="translate(653.032227 0.684375)" xlink:href="#DejaVuSans-20"/>
     <use transform="translate(684.819336 0.684375)" xlink:href="#DejaVuSans-3d"/>
     <use transform="translate(768.608398 0.684375)" xlink:href="#DejaVuSans-20"/>
     <use transform="translate(800.395508 0.684375)" xlink:href="#DejaVuSans-30"/>
     <use transform="translate(864.018555 0.684375)" xlink:href="#DejaVuSans-2e"/>
     <use transform="translate(895.805664 0.684375)" xlink:href="#DejaVuSans-35"/>
     <use transform="translate(959.428711 0.684375)" xlink:href="#DejaVuSans-Oblique-6b"/>
     <use transform="translate(1017.338867 0.684375)" xlink:href="#DejaVuSans-Oblique-67"/>
     <use transform="translate(1080.81543 0.684375)" xlink:href="#DejaVuSans-Oblique-73"/>
     <use transform="translate(1137.564935 38.965625)scale(0.7)" xlink:href="#DejaVuSans-2212"/>
     <use transform="translate(1196.217279 38.965625)scale(0.7)" xlink:href="#DejaVuSans-31"/>
     <use transform="translate(1243.487786 0.684375)" xlink:href="#DejaVuSans-20"/>
     <use transform="translate(1275.274896 0.684375)" xlink:href="#DejaVuSans-61"/>
     <use transform="translate(1336.554193 0.684375)" xlink:href="#DejaVuSans-6e"/>
     <use transform="translate(1399.933099 0.684375)" xlink:href="#DejaVuSans-64"/>
     <use transform="translate(1463.409661 0.684375)" xlink:href="#DejaVuSans-20"/>
     <use transform="translate(1495.196771 0.684375)" xlink:href="#DejaVuSans-46"/>
     <use transform="translate(1552.716302 0.684375)" xlink:href="#DejaVuSans-20"/>
     <use transform="translate(1584.503411 0.684375)" xlink:href="#DejaVuSans-3d"/>
     <use transform="translate(1668.292474 0.684375)" xlink:href="#DejaVuSans-20"/>
     <use transform="translate(1700.079583 0.684375)" xlink:href="#DejaVuSans-31"/>
     <use transform="translate(1763.70263 0.684375)" xlink:href="#DejaVuSans-2e"/>
     <use transform="translate(1795.48974 0.684375)" xlink:href="#DejaVuSans-34"/>
     <use transform="translate(1859.112786 0.684375)" xlink:href="#DejaVuSans-34"/>
     <use transform="translate(1922.735833 0.684375)" xlink:href="#DejaVuSans-Oblique-4e"/>
    </g>
   </g>
  </g>
 </g>
 <defs>
  <clipPath id="p6dbd13e0e5">
   <rect height="263.8944" width="357.12" x="57.6" y="41.1264"/>
  </clipPath>
 </defs>
</svg>
